<?xml version="1.0" encoding="UTF-8"?>
<!DOCTYPE svg PUBLIC "-//W3C//DTD SVG 1.1//EN" "http://www.w3.org/Graphics/SVG/1.1/DTD/svg11.dtd">
<!-- Creator: CorelDRAW X7 -->
<svg xmlns="http://www.w3.org/2000/svg" xml:space="preserve" width="210mm" height="210mm" version="1.1" style="shape-rendering:geometricPrecision; text-rendering:geometricPrecision; image-rendering:optimizeQuality; fill-rule:evenodd; clip-rule:evenodd"
viewBox="0 0 21000 21000"
 xmlns:xlink="http://www.w3.org/1999/xlink">
 <defs>
  <style type="text/css">
   <![CDATA[
    .str0 {stroke:#9D9E9E;stroke-width:7.62}
    .fil1 {fill:none}
    .fil0 {fill:#EBECEC}
    .fil3 {fill:#D4AD0C}
    .fil2 {fill:#D4AD0C;fill-rule:nonzero}
   ]]>
  </style>
 </defs>
 <g id="Layer_x0020_1">
  <metadata id="CorelCorpID_0Corel-Layer"/>
  <g id="_2251626626272">
   <path class="fil0" d="M10379 17427c-87,182 -219,366 -414,425 -206,62 -400,-37 -553,-169 -165,-143 -289,-330 -265,-557 19,-172 119,-320 238,-441 -211,16 -449,-9 -596,-168 -75,-16 -150,-34 -224,-52 1,29 -2,58 -8,88 -32,134 -143,213 -267,256 -130,45 -271,49 -387,-35 -45,-34 -80,-76 -108,-125 -47,62 -107,111 -183,134 -132,40 -257,-17 -356,-102 -105,-91 -178,-210 -163,-353 7,-56 26,-108 54,-155 -77,-11 -150,-38 -208,-93 -56,-52 -86,-119 -96,-194 -217,-63 -433,-133 -645,-209 -82,-23 -166,-38 -250,-44 -139,-10 -285,6 -411,69 32,97 58,196 76,296 35,199 42,463 -142,593 -101,71 -222,102 -340,55 -122,-50 -207,-174 -259,-293 -59,13 -122,20 -181,15 -162,-14 -280,-110 -331,-264 -23,-71 -26,-146 -4,-219 85,-285 515,-408 777,-463 52,-44 109,-83 169,-115 -183,-86 -362,-178 -538,-276 -187,76 -424,65 -619,36 -165,-25 -329,-66 -488,-115 -106,59 -216,113 -330,157 -73,28 -148,51 -225,65 -147,27 -305,19 -417,-93 -87,-88 -137,-201 -110,-325 28,-129 136,-234 245,-305 -23,-56 -40,-117 -45,-176 -14,-162 61,-295 204,-370 61,-33 127,-49 195,-44 -66,-64 -130,-129 -193,-195 -212,-71 -420,-167 -616,-275 -357,-196 -689,-449 -956,-758 -271,-62 -755,-209 -774,-540 -7,-124 31,-241 134,-316 106,-78 257,-84 386,-66 20,-57 47,-114 83,-162 44,-59 102,-105 172,-131 14,-6 30,-10 45,-13 -140,-68 -277,-144 -406,-229 -223,-146 -513,-381 -546,-665 -5,-42 -4,-85 3,-127 27,-170 109,-320 272,-392 117,-51 250,-49 373,-25 94,19 190,52 279,91 55,-103 129,-208 215,-282 175,-150 384,-174 590,-73 95,47 173,116 224,209 224,405 -163,1081 -394,1430 210,570 504,1099 876,1577 -33,-150 -55,-303 -64,-457 -178,-213 -475,-621 -290,-896 70,-103 170,-175 298,-172 132,2 256,88 347,181 50,-33 106,-62 163,-79 108,-30 212,-18 300,36 -219,-916 -240,-1874 -64,-2800 251,-1320 891,-2535 1842,-3486 339,-339 714,-641 1117,-900 1152,-850 2535,-1302 3966,-1302 471,0 942,49 1404,148 1371,230 2634,884 3617,1867 1030,1030 1693,2366 1895,3808 64,459 80,924 49,1385 -29,432 -101,861 -213,1279 68,-41 148,-59 232,-48 80,10 161,47 229,92 32,-32 66,-63 103,-90 86,-62 191,-104 299,-87 104,16 184,82 242,168 185,275 -112,683 -290,896 -9,154 -31,307 -64,457 372,-478 666,-1007 877,-1577 -117,-175 -224,-360 -310,-552 -49,-111 -93,-226 -121,-344 -35,-146 -50,-309 0,-454 10,-28 22,-55 36,-80 51,-93 129,-162 224,-209 170,-84 352,-85 515,17 122,77 222,209 290,338 89,-39 185,-72 279,-91 147,-29 309,-25 438,60 123,81 184,215 207,357 7,42 8,85 3,127 -46,391 -582,713 -952,894 65,14 124,46 175,96 57,57 99,134 126,211 45,-7 91,-10 136,-9 107,2 216,32 291,111 73,76 97,177 92,279 -19,331 -503,478 -774,540 -267,309 -599,562 -956,758 -196,108 -404,204 -616,274 -63,67 -127,132 -193,196 68,-5 134,11 195,44 119,63 195,168 205,304 5,81 -15,167 -46,242 38,25 75,53 108,84 175,161 200,372 27,546 -35,34 -75,60 -120,78 -162,63 -366,9 -522,-50 -114,-44 -224,-98 -329,-157 -160,49 -324,90 -489,115 -195,29 -432,40 -619,-36 -380,211 -627,173 -368,391 110,24 221,53 327,92 177,66 391,176 449,371 22,73 19,148 -4,219 -43,129 -134,222 -267,254 -78,19 -166,13 -246,-5 -18,42 -39,83 -64,121 -58,89 -142,165 -249,188 -102,21 -201,-12 -285,-71 -31,-21 -57,-48 -79,-79 -150,-208 -64,-575 13,-809 -204,-102 -476,-92 -686,-17 -195,69 -392,133 -591,192 -17,42 -42,80 -75,111 -58,54 -131,81 -208,92 28,48 47,100 54,156 15,143 -58,262 -163,352 -99,86 -224,143 -356,103 -75,-23 -135,-73 -183,-134 -27,48 -63,91 -108,124 -116,85 -257,81 -387,36 -124,-43 -235,-122 -267,-257 -15,-65 -8,-130 12,-192 -40,11 -80,23 -120,36 -3,37 -8,74 -16,110 -41,215 -141,416 -350,508 -157,70 -336,57 -500,14 3,6 7,11 10,16 106,160 197,361 151,556 -50,209 -232,328 -423,394 -206,71 -432,85 -615,-50 -139,-101 -218,-262 -263,-426zm-6542 -5389c-96,199 -323,373 -497,487 32,332 133,657 284,954 68,135 150,275 245,393 308,256 639,484 985,685 -145,-221 -259,-463 -319,-720 -222,-162 -595,-479 -485,-785 25,-69 64,-133 121,-179 -130,-271 -242,-550 -334,-835zm13318 -17c-100,284 -220,561 -358,829 74,46 123,119 153,202 110,306 -263,623 -485,785 -60,257 -174,499 -319,720 346,-202 677,-429 985,-685 140,-173 252,-383 337,-588 99,-242 167,-499 192,-760 -88,-57 -174,-120 -253,-189 -96,-84 -199,-191 -252,-314z"/>
   <path class="fil1 str0" d="M10379 17427c-87,182 -219,366 -414,425 -206,62 -400,-37 -553,-169 -165,-143 -289,-330 -265,-557 19,-172 119,-320 238,-441 -211,16 -449,-9 -596,-168 -75,-16 -150,-34 -224,-52 1,29 -2,58 -8,88 -32,134 -143,213 -267,256 -130,45 -271,49 -387,-35 -45,-34 -80,-76 -108,-125 -47,62 -107,111 -183,134 -132,40 -257,-17 -356,-102 -105,-91 -178,-210 -163,-353 7,-56 26,-108 54,-155 -77,-11 -150,-38 -208,-93 -56,-52 -86,-119 -96,-194 -217,-63 -433,-133 -645,-209 -82,-23 -166,-38 -250,-44 -139,-10 -285,6 -411,69 32,97 58,196 76,296 35,199 42,463 -142,593 -101,71 -222,102 -340,55 -122,-50 -207,-174 -259,-293 -59,13 -122,20 -181,15 -162,-14 -280,-110 -331,-264 -23,-71 -26,-146 -4,-219 85,-285 515,-408 777,-463 52,-44 109,-83 169,-115 -183,-86 -362,-178 -538,-276 -187,76 -424,65 -619,36 -165,-25 -329,-66 -488,-115 -106,59 -216,113 -330,157 -73,28 -148,51 -225,65 -147,27 -305,19 -417,-93 -87,-88 -137,-201 -110,-325 28,-129 136,-234 245,-305 -23,-56 -40,-117 -45,-176 -14,-162 61,-295 204,-370 61,-33 127,-49 195,-44 -66,-64 -130,-129 -193,-195 -212,-71 -420,-167 -616,-275 -357,-196 -689,-449 -956,-758 -271,-62 -755,-209 -774,-540 -7,-124 31,-241 134,-316 106,-78 257,-84 386,-66 20,-57 47,-114 83,-162 44,-59 102,-105 172,-131 14,-6 30,-10 45,-13 -140,-68 -277,-144 -406,-229 -223,-146 -513,-381 -546,-665 -5,-42 -4,-85 3,-127 27,-170 109,-320 272,-392 117,-51 250,-49 373,-25 94,19 190,52 279,91 55,-103 129,-208 215,-282 175,-150 384,-174 590,-73 95,47 173,116 224,209 224,405 -163,1081 -394,1430 210,570 504,1099 876,1577 -33,-150 -55,-303 -64,-457 -178,-213 -475,-621 -290,-896 70,-103 170,-175 298,-172 132,2 256,88 347,181 50,-33 106,-62 163,-79 108,-30 212,-18 300,36 -219,-916 -240,-1874 -64,-2800 251,-1320 891,-2535 1842,-3486 339,-339 714,-641 1117,-900 1152,-850 2535,-1302 3966,-1302 471,0 942,49 1404,148 1371,230 2634,884 3617,1867 1030,1030 1693,2366 1895,3808 64,459 80,924 49,1385 -29,432 -101,861 -213,1279 68,-41 148,-59 232,-48 80,10 161,47 229,92 32,-32 66,-63 103,-90 86,-62 191,-104 299,-87 104,16 184,82 242,168 185,275 -112,683 -290,896 -9,154 -31,307 -64,457 372,-478 666,-1007 877,-1577 -117,-175 -224,-360 -310,-552 -49,-111 -93,-226 -121,-344 -35,-146 -50,-309 0,-454 10,-28 22,-55 36,-80 51,-93 129,-162 224,-209 170,-84 352,-85 515,17 122,77 222,209 290,338 89,-39 185,-72 279,-91 147,-29 309,-25 438,60 123,81 184,215 207,357 7,42 8,85 3,127 -46,391 -582,713 -952,894 65,14 124,46 175,96 57,57 99,134 126,211 45,-7 91,-10 136,-9 107,2 216,32 291,111 73,76 97,177 92,279 -19,331 -503,478 -774,540 -267,309 -599,562 -956,758 -196,108 -404,204 -616,274 -63,67 -127,132 -193,196 68,-5 134,11 195,44 119,63 195,168 205,304 5,81 -15,167 -46,242 38,25 75,53 108,84 175,161 200,372 27,546 -35,34 -75,60 -120,78 -162,63 -366,9 -522,-50 -114,-44 -224,-98 -329,-157 -160,49 -324,90 -489,115 -195,29 -432,40 -619,-36 -380,211 -627,173 -368,391 110,24 221,53 327,92 177,66 391,176 449,371 22,73 19,148 -4,219 -43,129 -134,222 -267,254 -78,19 -166,13 -246,-5 -18,42 -39,83 -64,121 -58,89 -142,165 -249,188 -102,21 -201,-12 -285,-71 -31,-21 -57,-48 -79,-79 -150,-208 -64,-575 13,-809 -204,-102 -476,-92 -686,-17 -195,69 -392,133 -591,192 -17,42 -42,80 -75,111 -58,54 -131,81 -208,92 28,48 47,100 54,156 15,143 -58,262 -163,352 -99,86 -224,143 -356,103 -75,-23 -135,-73 -183,-134 -27,48 -63,91 -108,124 -116,85 -257,81 -387,36 -124,-43 -235,-122 -267,-257 -15,-65 -8,-130 12,-192 -40,11 -80,23 -120,36 -3,37 -8,74 -16,110 -41,215 -141,416 -350,508 -157,70 -336,57 -500,14 3,6 7,11 10,16 106,160 197,361 151,556 -50,209 -232,328 -423,394 -206,71 -432,85 -615,-50 -139,-101 -218,-262 -263,-426m-6542 -5389c-96,199 -323,373 -497,487 32,332 133,657 284,954 68,135 150,275 245,393 308,256 639,484 985,685 -145,-221 -259,-463 -319,-720 -222,-162 -595,-479 -485,-785 25,-69 64,-133 121,-179 -130,-271 -242,-550 -334,-835m13318 -17c-100,284 -220,561 -358,829 74,46 123,119 153,202 110,306 -263,623 -485,785 -60,257 -174,499 -319,720 346,-202 677,-429 985,-685 140,-173 252,-383 337,-588 99,-242 167,-499 192,-760 -88,-57 -174,-120 -253,-189 -96,-84 -199,-191 -252,-314"/>
   <g>
    <path class="fil2" d="M14096 15584c77,-62 159,-146 235,-256l-235 256zm-7673 -560c-243,-165 -852,-616 -773,-961 -185,-210 -357,-431 -514,-664 -49,81 -110,160 -167,227 413,592 925,1111 1511,1533 -20,-43 -39,-88 -57,-135zm6489 622c-252,-131 -562,-361 -278,-607 312,-270 449,210 503,508l3 -2c-21,-284 1,-739 383,-607 203,70 206,202 130,339 223,-131 437,-275 640,-432 -270,-296 -697,-854 -349,-1112 355,-263 643,261 643,261 0,0 458,-402 685,-141 179,-234 342,-481 488,-739 -1,-72 24,-136 90,-185 6,-4 12,-8 18,-12 457,-880 716,-1880 716,-2940 0,-1762 -714,-3357 -1869,-4512 -8,-7 -15,-15 -23,-23 -1091,-995 -2543,-1603 -4136,-1603 -1695,0 -3230,687 -4340,1798 -779,779 -1350,1766 -1621,2871 -85,414 -129,843 -129,1282 0,1526 536,2927 1430,4025 232,-27 521,227 521,227 0,0 288,-525 643,-261 298,221 28,662 -226,970 172,139 351,269 537,390 63,-116 529,-356 544,317 11,6 22,11 33,17 70,-276 209,-569 468,-345 224,194 79,378 -116,511 31,14 63,28 95,41 187,-32 358,-15 383,145 30,10 59,20 89,30 226,-585 983,-154 1391,134 -439,-360 -1193,-1094 -416,-1363 766,-266 776,700 727,1235 92,-561 351,-1581 972,-1043 613,531 -220,1023 -707,1247 369,-139 974,-320 1254,-146 64,-16 128,-33 191,-52 0,-4 -1,-7 -2,-10 -72,-372 331,-300 618,-206 6,-3 11,-5 17,-7zm280 330c21,285 -3,734 -384,602 -299,-103 -163,-339 21,-531 -55,9 -108,19 -160,27 -121,28 -306,81 -430,122 4,56 -1,119 -15,191 -140,729 -856,394 -1313,94 -7,1 -14,2 -21,2 441,380 1039,1031 318,1280 -766,266 -776,-701 -727,-1236 -92,560 -351,1583 -972,1044 -477,-413 -79,-803 351,-1061 -71,-4 -141,-8 -210,-14 -326,70 -649,78 -779,-113 -190,-39 -377,-87 -560,-142 128,167 178,343 -69,428 -373,129 -404,-298 -386,-584l-5 -2c-56,299 -194,749 -498,486 -272,-236 0,-456 244,-590 -8,-4 -17,-7 -25,-11 -276,85 -627,133 -581,-193 -244,-69 -495,-148 -749,-239 -203,-57 -590,-119 -883,104 77,210 226,691 27,830 -297,210 -421,-304 -421,-304 0,0 -369,180 -464,-108 -101,-306 449,-450 699,-499 156,-143 339,-208 516,-229 -318,-135 -637,-289 -949,-467 -275,173 -850,19 -1128,-72 -170,101 -666,369 -849,186 -256,-258 230,-467 230,-467 0,0 -240,-333 28,-475 279,-148 509,346 604,591 215,74 691,218 948,139 -549,-330 -1074,-734 -1537,-1228 -153,-49 -994,-339 -1574,-1038 -225,-48 -693,-176 -706,-414 -21,-363 481,-196 481,-196 0,0 43,-408 337,-337 324,79 132,658 44,882 383,445 877,709 1188,843 -446,-532 -821,-1160 -1085,-1901 -285,-121 -1167,-534 -1096,-968 96,-596 851,-147 851,-147 0,0 215,-647 667,-425 520,254 -67,1190 -270,1486 327,920 832,1662 1431,2260 -144,-293 -289,-700 -309,-1177 -151,-175 -445,-559 -312,-757 203,-301 502,135 502,135 0,0 280,-300 472,-65 211,259 -294,604 -498,729 54,901 574,1525 575,1527l0 0c526,440 1105,788 1691,1063 -547,-519 -727,-996 -784,-1287 -192,-136 -558,-428 -479,-649 41,-112 110,-150 186,-150 -1297,-2536 -788,-5610 1202,-7600 332,-332 700,-629 1097,-883 1086,-802 2428,-1276 3882,-1276 472,0 932,50 1376,145 1372,229 2599,885 3541,1827 2048,2048 2518,5233 1100,7792 94,-18 188,7 238,145 79,221 -286,513 -479,649 -57,291 -237,768 -784,1287 586,-275 1165,-623 1691,-1063l0 0c247,-302 536,-880 575,-1527 -204,-125 -709,-470 -498,-729 192,-235 472,65 472,65 0,0 299,-436 502,-135 133,198 -161,582 -312,757 -20,477 -165,884 -309,1177 599,-598 1104,-1340 1431,-2260 -203,-296 -790,-1232 -270,-1486 452,-222 667,425 667,425 0,0 755,-449 851,147 71,434 -811,847 -1096,968 -264,741 -638,1367 -1085,1901 311,-134 805,-399 1188,-843 -88,-224 -280,-803 44,-882 294,-71 337,337 337,337 0,0 502,-167 481,196 -13,238 -481,366 -706,414 -580,699 -1421,989 -1574,1038 -455,486 -970,885 -1510,1212 -9,6 -18,11 -27,16 251,77 678,-46 948,-139 95,-245 325,-739 604,-591 268,142 28,475 28,475 0,0 486,209 230,467 -183,183 -679,-85 -849,-186 -278,91 -853,245 -1128,72 -312,178 -631,332 -949,467 177,22 360,86 516,229 250,49 800,193 699,499 -95,288 -463,108 -463,108 0,0 -125,514 -422,304 -199,-139 -50,-620 27,-830 -296,-225 -705,-168 -913,-94 -225,81 -448,151 -666,214 -16,220 -279,200 -517,136 -18,5 -36,9 -54,13 233,135 464,345 206,569 -309,268 -447,-205 -501,-503l-4 1zm628 -547c63,1 577,-337 660,-394 -7,-6 -20,-18 -39,-37 -116,86 -235,168 -356,246 -87,64 -175,125 -265,185zm182 92c15,22 28,48 38,79 173,-50 342,-103 517,-164l-1 -2c1,-1 64,-28 165,-55 100,-37 202,-75 303,-115l0 -1c713,-522 1045,-1078 1141,-1492 -20,-20 -44,-45 -71,-74 -558,748 -1274,1373 -2092,1824zm1916 -2039c22,31 45,61 68,89 -252,342 -537,658 -852,944 95,-104 172,-214 207,-320 208,-224 402,-462 577,-713zm-9282 1490c-16,17 -30,31 -43,44 63,155 139,274 217,365 96,61 195,119 295,175 166,-111 465,63 640,187 -70,-58 -155,-133 -228,-214 -309,-162 -604,-349 -881,-557zm93 558c-7,-7 -14,-14 -20,-22 -410,-259 -790,-563 -1132,-905 -263,-264 -504,-549 -720,-855 -8,9 -15,16 -22,23 76,331 329,897 1141,1492l0 1c101,40 203,79 303,115 101,27 164,54 165,55l-1 2c96,33 191,65 286,94zm1323 250l0 0 -7 3 7 -3zm-3200 -2840c-1159,-2056 -1109,-4610 121,-6618 -725,1035 -1150,2295 -1150,3655 0,1105 281,2145 775,3051 65,40 111,80 111,80 0,0 55,-100 143,-168zm12003 -2963c0,699 -114,1372 -324,2000 887,-2362 285,-5006 -1464,-6755 -852,-852 -1944,-1464 -3166,-1726 -499,-95 -1119,-107 -1635,-61 1768,17 3369,735 4538,1890 70,65 139,130 206,198 1140,1140 1845,2714 1845,4454zm-12274 2000c-211,-628 -325,-1301 -325,-2000 0,-518 63,-1022 181,-1504 261,-1278 895,-2421 1784,-3309 322,-323 678,-612 1062,-861 -178,91 -350,191 -518,298 -255,189 -497,397 -721,621 -1749,1749 -2351,4393 -1463,6755zm1533 -6467c1474,-1465 3622,-2140 5733,-1700 -525,-139 -1075,-214 -1644,-214 -503,0 -993,59 -1463,169 -915,320 -1734,842 -2405,1513 -76,75 -149,153 -221,232z"/>
   </g>
   <path class="fil2" d="M7277 7987c3,162 -7,325 -14,486 -10,263 -21,526 -32,789 -1,13 5,21 15,24 14,33 92,4 91,-37 -2,-129 21,-257 42,-385 19,-121 41,-243 64,-364 33,-176 68,-351 108,-525 254,-16 509,-47 761,-86 -4,85 -8,170 -11,255 -5,123 -4,248 0,372 2,111 7,228 40,336 48,161 179,379 380,304 102,-38 170,-131 225,-220 63,-103 111,-215 154,-327 99,-258 183,-521 268,-783 17,-52 -79,-37 -93,5 -75,235 -149,469 -234,700 -41,112 -83,223 -140,327 -43,77 -130,248 -240,227 -105,-19 -123,-178 -128,-262 -7,-115 2,-231 4,-346 3,-254 18,-506 19,-759 1,-249 -5,-500 -62,-745 -35,-151 -103,-376 -296,-367 -202,9 -337,222 -420,381 -106,206 -177,432 -238,654 -23,87 -45,174 -66,262 -33,1 -67,2 -101,4 -3,-71 -8,-141 -17,-212 -57,-408 -292,-812 -729,-886 -210,-35 -426,14 -606,126 -163,101 -330,268 -343,469 -15,214 166,370 350,438 222,82 472,109 706,129 181,15 362,20 543,16l0 0zm323 -216c58,-232 126,-465 225,-684 56,-124 260,-535 446,-364 77,71 67,185 66,280 -1,126 -1,253 -4,379 -4,143 -11,288 -17,432 -248,38 -497,68 -747,84 10,-43 20,-85 31,-127l0 0zm-144 210c-34,153 -65,307 -95,461 7,-152 16,-305 14,-458 27,-1 54,-2 81,-3l0 0zm-1097 -145c-193,-37 -421,-85 -533,-265 -118,-190 2,-391 156,-515 159,-130 365,-197 571,-170 419,53 646,439 703,824 9,66 15,133 18,199 -72,1 -144,1 -217,-1 -234,-6 -467,-29 -698,-72l0 0zm3571 -136c-94,45 -182,100 -263,166 -33,-39 -67,-77 -96,-113 -70,-86 -154,-206 -138,-324 6,-46 35,-114 87,-121 59,-7 111,47 134,95 20,43 108,1 89,-43 -29,-71 -90,-122 -165,-136 -87,-17 -171,29 -235,84 -79,68 -141,158 -142,266 -1,111 61,210 126,295 48,61 104,120 157,181 -13,16 -26,33 -38,50 -99,141 -193,403 -9,522 173,111 373,-99 417,-253 49,-171 -39,-319 -144,-450 78,-65 164,-119 248,-160 52,-25 24,-84 -28,-59l0 0zm-435 839c-81,-69 -72,-196 -39,-286 19,-51 46,-99 77,-144 68,85 123,177 136,290 12,97 -71,230 -174,140l0 0zm1463 -742c-39,80 -56,167 -94,247 -30,65 -95,212 -177,216 -62,4 -53,-51 -46,-90 8,-44 11,-91 14,-135 9,-97 14,-196 19,-293 5,-92 3,-182 -19,-271 -18,-69 -62,-139 -128,-173 -146,-77 -264,171 -306,267 -39,88 -68,178 -92,270 -1,-8 -2,-16 -2,-23 -12,-124 -21,-247 -26,-371 -1,-47 -3,-95 -3,-143 228,-77 456,-183 604,-380 132,-176 220,-481 3,-632 -198,-138 -449,-32 -600,125 -205,212 -240,545 -250,825 -5,172 3,342 24,512 19,155 42,342 147,463 29,33 101,1 114,-37 5,-5 8,-11 9,-18 36,-180 71,-362 140,-532 18,-45 38,-88 60,-130 20,-35 42,-85 76,-108 62,-42 38,28 34,63 -6,52 -7,104 -11,156 -7,93 -21,185 -32,278 -11,96 -20,197 13,289 49,133 197,223 329,140 77,-48 131,-136 173,-216 48,-91 68,-193 112,-285 26,-55 -65,-55 -85,-14l0 0zm-809 -1097c39,-185 146,-424 376,-386 258,42 244,338 138,516 -122,208 -344,315 -565,390 2,-174 16,-350 51,-520l0 0zm1950 1055c-54,107 -110,213 -174,315 -28,45 -60,101 -104,133 -64,47 -74,-38 -82,-84 -41,-238 24,-476 17,-714 -1,-56 -70,-71 -113,-64 -57,10 -111,47 -128,104 -13,44 -22,91 -29,138 -21,85 -41,170 -65,254 -15,54 -90,366 -159,348 -44,-12 -61,-105 -68,-141 -11,-63 -13,-125 -14,-190 -2,-140 14,-281 10,-422 -4,-126 -229,-54 -243,41 -36,232 -88,863 302,800 142,-24 188,-186 226,-306 7,124 35,276 162,326 127,50 246,-26 318,-126 89,-122 157,-263 222,-399 25,-51 -59,-50 -78,-13l0 0zm1910 -1321c-27,-41 -117,4 -91,44 120,183 -336,214 -428,220 -173,12 -346,10 -519,4 21,-257 -58,-556 -361,-504 -250,43 -395,236 -473,458 -159,-8 -317,-14 -476,-14 -149,1 -383,-28 -473,124 -29,49 59,49 81,13 43,-72 171,-58 242,-60 104,-2 208,-1 312,1 97,3 193,7 290,12 -26,91 -41,184 -50,272 -18,201 -20,407 -2,608 17,181 45,383 149,537 55,80 121,135 220,153 84,15 161,2 228,-55 147,-122 211,-332 272,-506 17,-51 -77,-34 -92,5 -50,136 -100,279 -189,394 -43,55 -119,127 -179,51 -39,-48 -61,-120 -81,-177 -46,-136 -59,-281 -65,-423 -2,-55 -4,-110 -5,-166 119,-17 234,-59 332,-127 130,-90 221,-232 275,-378 15,-40 27,-88 35,-141 50,2 99,3 148,4 199,2 401,1 598,-37 89,-18 190,-40 260,-104 57,-52 87,-139 42,-208l0 0zm-1152 389c-33,143 -107,290 -220,386 -89,77 -203,119 -319,134 0,-78 2,-156 7,-234 6,-115 15,-240 39,-362 40,2 80,5 120,8 128,8 255,15 383,21 -3,16 -6,31 -10,47l0 0zm20 -125c-165,-7 -331,-18 -496,-28 26,-102 66,-200 127,-282 35,-48 87,-95 150,-95 76,0 135,55 170,118 46,86 57,189 49,287l0 0zm664 1036c-56,25 -123,45 -192,54 2,-105 -13,-211 -47,-310 -31,-91 -90,-196 -197,-204 -95,-7 -185,58 -226,140 -32,65 -34,139 -15,206 -7,12 -14,24 -17,37 -47,175 -112,559 156,588 221,25 322,-197 341,-384 83,-11 162,-36 228,-65 55,-25 24,-86 -31,-62l0 0zm-296 160c-11,90 -39,201 -119,255 -111,75 -103,-165 -99,-220 3,-33 9,-66 16,-99 61,28 132,39 204,39 0,8 -1,17 -2,25l0 0zm-183 -159c8,-38 14,-76 16,-116 3,-54 -71,-67 -109,-61 -5,1 -11,2 -16,4 -14,-77 -1,-164 73,-199 117,-58 179,130 199,211 17,71 26,145 26,218 -69,-3 -135,-20 -189,-57l0 0zm1115 -35c-93,45 -182,100 -263,166 -33,-39 -66,-77 -96,-113 -70,-86 -153,-206 -137,-324 6,-46 35,-114 87,-121 59,-7 111,47 133,95 21,43 108,1 90,-43 -29,-71 -90,-122 -166,-136 -87,-17 -171,29 -235,84 -79,68 -140,158 -141,266 -1,111 60,210 126,295 48,61 104,120 157,181 -13,16 -26,33 -39,50 -99,141 -193,403 -8,522 172,111 373,-99 417,-253 49,-171 -39,-319 -144,-450 78,-65 164,-119 248,-160 52,-25 23,-84 -29,-59l0 0zm-435 839c-80,-69 -71,-196 -38,-286 19,-51 45,-99 77,-144 67,85 123,177 136,290 11,97 -71,230 -175,140l0 0zm1463 -742c-38,80 -56,167 -93,247 -31,65 -95,212 -177,216 -62,4 -54,-51 -47,-90 9,-44 11,-91 15,-135 8,-97 13,-196 18,-293 5,-92 4,-182 -19,-271 -17,-69 -62,-139 -128,-173 -146,-77 -264,171 -306,267 -38,88 -67,178 -92,270 0,-8 -1,-16 -2,-23 -12,-124 -20,-247 -25,-371 -2,-47 -3,-95 -4,-143 229,-77 456,-183 604,-380 133,-176 220,-481 4,-632 -198,-138 -449,-32 -601,125 -205,212 -240,545 -249,825 -6,172 3,342 23,512 19,155 43,342 148,463 29,33 100,1 113,-37 5,-5 9,-11 10,-18 35,-180 71,-362 139,-532 18,-45 38,-88 61,-130 19,-35 41,-85 75,-108 63,-42 38,28 35,63 -6,52 -7,104 -11,156 -8,93 -22,185 -32,278 -11,96 -21,197 13,289 48,133 197,223 328,140 78,-48 132,-136 174,-216 48,-91 67,-193 111,-285 27,-55 -65,-55 -85,-14l0 0zm-808 -1097c38,-185 145,-424 376,-386 258,42 244,338 138,516 -122,208 -345,315 -566,390 3,-174 17,-350 52,-520l0 0z"/>
   <path class="fil2" d="M7668 10669c-236,28 -402,258 -506,453 -129,245 -190,520 -230,792 -8,58 -16,116 -23,174 -1,-43 -2,-86 -2,-129 -3,-207 -3,-415 7,-622 10,-204 37,-408 36,-613 0,-49 -63,-62 -100,-55 -49,8 -98,40 -112,90 -55,202 -67,414 -77,622 -9,210 -11,422 -2,632 9,206 21,413 44,618 12,103 23,205 40,307 14,86 23,212 84,278 23,25 74,3 86,-23 40,-86 30,-203 28,-295 -1,-38 -2,-76 -4,-114 31,-453 56,-921 192,-1356 65,-210 167,-426 331,-579 86,-80 213,-140 328,-80 101,53 131,172 134,277 5,131 -22,260 -54,386 -28,111 -61,217 -111,319 -90,181 -219,336 -401,429 -26,13 -51,23 -78,33 -35,-51 -82,-89 -158,-75 -81,14 -168,123 -97,198 48,52 137,55 215,42 10,60 13,119 28,178 55,219 105,465 320,580 214,115 462,27 591,-169 69,-106 104,-232 139,-352 40,-141 74,-283 103,-426 11,-55 -84,-38 -92,6 -30,143 -64,285 -105,426 -39,133 -77,279 -177,382 -42,45 -98,82 -161,86 -63,5 -122,-32 -166,-74 -89,-85 -143,-206 -190,-317 -26,-62 -53,-124 -81,-184 -27,-59 -60,-111 -92,-165 493,-162 767,-725 711,-1223 -25,-222 -129,-490 -398,-457l0 0zm-512 1584c-12,1 -23,5 -33,-1 -30,-15 -8,-38 17,-34 18,3 32,13 45,27 -10,4 -20,6 -29,8zm2121 -249c-38,106 -85,209 -142,307 -13,22 -71,144 -110,114 -8,-7 -14,-55 -16,-66 -4,-22 -4,-43 -5,-65 -4,-114 -6,-228 3,-342 8,-114 34,-235 24,-350 -5,-55 -67,-71 -113,-63 -38,6 -76,26 -101,56 -57,-36 -132,-35 -195,-16 -183,53 -291,230 -338,404 -40,145 -70,407 84,499 60,36 138,43 200,10 68,-36 105,-109 132,-178 24,-62 42,-126 56,-190 6,116 21,318 142,369 46,20 115,27 162,10 56,-20 93,-64 124,-112 78,-122 138,-256 186,-393 17,-52 -79,-35 -93,6l0 0zm-629 175c-19,75 -39,170 -93,229 -86,91 -86,-133 -86,-174 1,-155 35,-306 116,-440 27,-43 72,-133 134,-125 18,3 32,11 45,22 -49,161 -74,326 -116,488l0 0zm1899 -196c-50,135 -100,278 -190,394 -42,54 -118,126 -179,50 -38,-48 -60,-119 -80,-177 -46,-135 -59,-280 -65,-422 -2,-56 -4,-111 -5,-166 118,-18 233,-60 332,-128 130,-90 221,-232 275,-378 92,-250 82,-790 -316,-722 -378,66 -516,473 -546,806 -11,111 -16,224 -15,336 -49,-15 -105,-11 -153,3 -183,53 -292,230 -339,404 -39,145 -69,407 85,499 60,36 137,43 200,10 68,-36 105,-109 132,-178 47,-123 70,-255 95,-386 19,159 52,326 141,457 55,80 121,135 220,153 84,15 161,2 228,-54 146,-123 211,-333 271,-507 18,-51 -77,-34 -91,6l0 0zm-916 196c-19,75 -39,170 -94,229 -85,91 -86,-133 -85,-174 1,-155 35,-306 116,-440 26,-43 72,-133 134,-125 17,3 32,11 44,22 -48,161 -73,326 -115,488l0 0zm402 -834c14,-238 37,-522 183,-721 36,-48 88,-94 151,-94 76,0 135,54 170,118 66,121 60,280 29,411 -33,143 -108,290 -220,386 -89,77 -203,119 -319,135 0,-79 2,-157 6,-235l0 0zm1582 688c-39,80 -56,168 -94,247 -30,65 -95,212 -177,217 -62,4 -53,-52 -46,-91 8,-44 11,-91 15,-135 8,-97 13,-195 18,-293 5,-91 3,-181 -19,-271 -18,-69 -62,-138 -128,-173 -146,-77 -264,171 -306,267 -39,88 -68,178 -92,270 -1,-8 -2,-15 -2,-23 -12,-123 -21,-247 -26,-371 -1,-47 -3,-95 -3,-143 228,-77 456,-183 604,-380 132,-176 220,-481 3,-631 -198,-139 -449,-33 -600,124 -205,212 -240,545 -250,826 -5,171 3,341 24,511 19,155 42,342 147,463 29,33 101,1 114,-37 5,-5 8,-11 9,-18 36,-180 71,-361 140,-532 18,-45 38,-88 60,-130 20,-35 42,-85 76,-108 62,-42 38,28 34,63 -6,52 -7,104 -11,156 -7,93 -21,185 -32,278 -11,96 -20,197 13,289 49,133 197,223 329,141 77,-49 131,-137 173,-217 48,-91 68,-193 112,-285 27,-55 -65,-55 -85,-14l0 0zm-809 -1096c39,-186 146,-425 376,-387 258,43 244,338 138,516 -121,208 -344,315 -565,390 2,-174 16,-350 51,-519l0 0zm1404 1054c-54,107 -110,213 -174,315 -28,45 -61,101 -105,133 -63,47 -73,-38 -81,-84 -41,-238 24,-476 17,-714 -2,-56 -70,-71 -113,-64 -57,10 -111,47 -128,104 -45,154 -47,328 -42,487 4,129 25,307 164,361 127,50 245,-26 318,-125 89,-123 156,-264 222,-400 25,-51 -59,-50 -78,-13l0 0zm-504 -539c5,3 11,4 16,4 23,10 53,-5 68,-21 65,-65 124,-136 177,-212 31,-46 98,-137 44,-191 -50,-51 -139,14 -175,52 -26,28 -48,61 -66,95 -1,2 -2,5 -3,7 -5,-18 -8,-31 -9,-34 -15,-40 -33,-79 -58,-113 -38,-52 -104,-61 -143,0 -41,64 -16,162 12,227 29,67 71,150 137,186l0 0zm1540 635c-49,96 -100,193 -171,275 -30,36 -70,77 -120,82 -51,4 -88,-32 -104,-76 -51,-136 -86,-305 -201,-394 48,-1 95,-8 145,-25 74,-27 147,-70 183,-143 60,-123 7,-278 -147,-268 -147,11 -259,143 -319,267 -33,69 -57,141 -78,215 -10,-114 -18,-228 -22,-343 -2,-47 -3,-95 -4,-143 229,-77 456,-183 604,-380 133,-176 220,-481 4,-631 -199,-139 -449,-33 -601,124 -205,212 -240,545 -249,826 -6,171 3,341 23,511 19,155 42,342 148,463 30,35 108,-3 115,-43 3,-24 6,-47 6,-71 2,-2 3,-5 3,-8 18,-101 39,-201 64,-301 26,40 27,113 37,152 13,56 27,116 50,170 44,102 158,166 267,178 232,27 365,-253 451,-423 27,-54 -64,-54 -84,-14l0 0zm-786 -1150c38,-186 145,-425 376,-387 257,43 244,338 138,516 -122,208 -345,315 -566,390 2,-174 16,-350 52,-519l0 0zm132 880c21,-47 47,-90 82,-126 39,-40 97,-83 155,-77 58,6 97,78 65,130 -45,73 -200,86 -272,73 -10,-1 -20,-2 -30,0l0 0zm1627 187c-38,106 -85,209 -142,307 -13,22 -71,144 -110,114 -8,-7 -14,-55 -16,-66 -4,-22 -4,-43 -5,-65 -4,-114 -6,-228 3,-342 8,-114 34,-235 24,-350 -5,-55 -67,-71 -113,-63 -38,6 -76,26 -101,56 -57,-36 -132,-35 -195,-16 -183,53 -291,230 -338,404 -40,145 -70,407 84,499 60,36 138,43 200,10 68,-36 105,-109 132,-178 24,-62 42,-126 56,-190 6,116 21,318 142,369 46,20 115,27 162,10 56,-20 93,-64 124,-112 78,-122 138,-256 186,-393 17,-52 -79,-35 -93,6l0 0zm-629 175c-19,75 -39,170 -93,229 -86,91 -86,-133 -86,-174 1,-155 35,-306 116,-440 27,-43 72,-133 134,-125 18,3 32,11 45,22 -49,161 -74,326 -116,488l0 0z"/>
   <path class="fil3" d="M10906 9916c-119,-99 -192,-250 -185,-417 8,-166 94,-311 222,-398 119,99 192,250 184,417 -7,166 -94,311 -221,398zm350 -905c283,13 501,252 488,535 -13,282 -252,501 -534,488 -64,-3 -124,-17 -179,-41 135,-113 224,-280 233,-469 8,-190 -65,-364 -190,-488 57,-19 119,-28 182,-25zm-481 970c-125,-124 -199,-298 -190,-488 9,-190 98,-356 233,-469 -55,-24 -115,-38 -179,-41 -282,-13 -522,206 -535,488 -12,283 206,522 489,535 63,3 124,-6 182,-25zm487 -1106c358,16 635,319 619,677 -17,358 -320,635 -678,618 -111,-5 -215,-38 -305,-92 -94,46 -200,69 -312,64 -357,-16 -634,-319 -618,-677 15,-318 256,-573 562,-613 -50,-21 -47,-15 -77,-73 -30,-61 -61,-122 -91,-182 -7,-14 -3,-20 12,-26 89,-32 178,-57 267,-89 19,-6 37,-5 53,2 79,36 159,72 238,108 30,15 35,27 20,52 -34,55 -68,109 -102,164 -19,31 -41,40 -70,59 61,16 118,40 170,72 94,-46 201,-69 312,-64z"/>
  </g>
 </g>
</svg>
