<?xml version="1.0" encoding="UTF-8"?>
<!DOCTYPE svg PUBLIC "-//W3C//DTD SVG 1.1//EN" "http://www.w3.org/Graphics/SVG/1.1/DTD/svg11.dtd">
<!-- Creator: CorelDRAW X7 -->
<svg xmlns="http://www.w3.org/2000/svg" xml:space="preserve" width="210mm" height="210mm" version="1.1" style="shape-rendering:geometricPrecision; text-rendering:geometricPrecision; image-rendering:optimizeQuality; fill-rule:evenodd; clip-rule:evenodd"
viewBox="0 0 21000 21000"
 xmlns:xlink="http://www.w3.org/1999/xlink">
 <defs>
  <style type="text/css">
   <![CDATA[
    .fil0 {fill:#D4AD0C;fill-rule:nonzero}
   ]]>
  </style>
 </defs>
 <g id="Layer_x0020_1">
  <metadata id="CorelCorpID_0Corel-Layer"/>
  <g id="_2251626601280">
   <g>
    <path class="fil0" d="M14150 15660c78,-63 161,-148 238,-260l-238 260zm-7788 -569c-247,-167 -865,-624 -784,-975 -188,-213 -363,-438 -523,-673 -50,82 -111,162 -169,230 419,601 939,1127 1534,1556 -21,-43 -40,-89 -58,-138zm6586 632c-256,-133 -570,-367 -282,-617 317,-273 456,214 510,516l3 -1c-21,-289 1,-751 390,-616 206,71 209,204 131,343 226,-132 443,-279 650,-438 -274,-300 -708,-866 -355,-1129 361,-267 653,265 653,265 0,0 465,-408 695,-143 182,-237 348,-488 496,-750 -1,-73 24,-138 91,-188 6,-4 12,-8 18,-12 464,-893 727,-1908 727,-2984 0,-1788 -725,-3408 -1897,-4580 -8,-7 -15,-15 -23,-23 -1108,-1010 -2581,-1627 -4199,-1627 -1720,0 -3277,697 -4405,1825 -790,790 -1369,1793 -1645,2914 -85,420 -130,855 -130,1301 0,1549 544,2971 1451,4085 236,-26 529,230 529,230 0,0 292,-531 653,-264 302,224 28,672 -230,984 174,141 356,274 545,396 64,-117 537,-360 553,322 11,6 22,12 33,18 71,-281 212,-578 474,-351 228,197 80,384 -117,519 32,14 64,28 97,42 189,-33 363,-16 388,147 30,10 60,20 90,30 230,-593 998,-157 1413,136 -446,-365 -1211,-1111 -423,-1384 777,-269 788,711 738,1254 93,-569 356,-1605 987,-1059 622,539 -223,1039 -718,1267 375,-142 988,-326 1273,-148 65,-17 130,-35 194,-54 -1,-3 -2,-7 -2,-10 -73,-377 336,-305 627,-209 6,-2 11,-5 17,-7zm285 335c21,289 -3,745 -390,611 -304,-105 -166,-344 20,-539 -54,9 -108,19 -162,28 -122,28 -310,82 -436,123 4,57 -1,121 -15,195 -142,739 -869,399 -1333,95 -7,0 -14,1 -21,2 448,386 1054,1046 323,1299 -778,269 -788,-712 -738,-1254 -93,568 -356,1606 -987,1059 -484,-419 -80,-815 356,-1077 -71,-4 -142,-8 -213,-14 -331,71 -658,78 -791,-115 -192,-40 -382,-88 -568,-144 130,169 181,348 -70,435 -378,131 -410,-303 -391,-593l-6 -2c-57,303 -197,760 -506,493 -276,-239 0,-463 249,-599 -9,-4 -18,-7 -26,-11 -280,86 -636,134 -590,-196 -248,-70 -502,-150 -760,-243 -206,-57 -598,-120 -896,106 78,213 229,701 27,843 -301,212 -428,-309 -428,-309 0,0 -374,183 -470,-110 -103,-310 456,-456 710,-506 158,-145 344,-211 523,-233 -323,-137 -646,-293 -963,-474 -279,176 -863,19 -1145,-73 -173,103 -676,375 -861,189 -260,-262 233,-474 233,-474 0,0 -243,-338 28,-482 283,-150 517,351 613,599 219,76 701,222 962,142 -557,-335 -1090,-745 -1560,-1247 -154,-49 -1008,-344 -1597,-1053 -228,-49 -703,-178 -717,-420 -21,-369 489,-200 489,-200 0,0 43,-414 342,-341 329,80 133,668 44,895 389,451 890,719 1206,856 -453,-540 -833,-1178 -1101,-1930 -289,-123 -1184,-542 -1113,-983 98,-605 865,-148 865,-148 0,0 217,-657 676,-432 527,258 -68,1207 -274,1508 332,934 844,1687 1453,2294 -147,-297 -294,-711 -314,-1195 -153,-177 -452,-567 -317,-768 206,-306 510,137 510,137 0,0 284,-305 478,-66 214,263 -297,613 -505,740 55,915 583,1547 584,1549l0 1c534,446 1121,800 1716,1079 -555,-527 -737,-1011 -796,-1306 -195,-138 -565,-435 -485,-659 41,-114 111,-152 188,-153 -1316,-2573 -799,-5694 1220,-7713 337,-338 711,-638 1113,-897 1103,-814 2465,-1295 3940,-1295 480,0 947,51 1397,147 1393,233 2639,899 3594,1854 2080,2080 2557,5312 1117,7910 96,-19 191,7 241,147 80,224 -290,521 -485,659 -59,295 -241,779 -796,1306 595,-279 1182,-633 1716,-1079l0 -1c251,-306 544,-892 584,-1549 -208,-127 -719,-477 -505,-740 194,-239 478,66 478,66 0,0 304,-443 510,-137 135,201 -164,591 -317,768 -20,484 -167,898 -314,1195 609,-607 1121,-1360 1453,-2294 -206,-301 -801,-1250 -274,-1508 459,-225 677,432 677,432 0,0 766,-457 864,148 71,441 -824,860 -1113,983 -268,752 -647,1388 -1101,1930 316,-137 817,-405 1206,-856 -89,-227 -285,-815 44,-895 299,-73 342,341 342,341 0,0 510,-169 489,200 -14,242 -489,371 -717,420 -589,709 -1442,1004 -1597,1053 -462,494 -985,899 -1533,1231 -9,5 -18,11 -27,16 254,78 688,-47 962,-142 96,-248 330,-749 613,-599 271,144 28,482 28,482 0,0 493,212 233,474 -185,186 -688,-86 -861,-189 -282,92 -866,249 -1145,73 -317,181 -640,337 -963,474 179,22 365,88 523,233 254,50 813,196 710,506 -96,293 -470,110 -470,110 0,0 -127,521 -428,309 -202,-142 -51,-629 27,-843 -300,-228 -715,-170 -927,-95 -228,81 -454,153 -675,217 -17,223 -284,203 -525,138 -18,4 -37,9 -55,13 236,137 471,350 209,577 -314,273 -454,-207 -508,-510l-4 1zm637 -555c64,0 586,-342 669,-400 -6,-6 -20,-19 -39,-38 -118,87 -238,170 -362,250 -88,64 -177,127 -268,188zm185 94c15,22 28,48 38,79 175,-51 347,-105 525,-166l-1 -2c1,-1 64,-28 167,-56 102,-37 205,-76 308,-117l0 0c723,-530 1061,-1095 1158,-1515 -20,-20 -45,-46 -72,-75 -566,759 -1293,1393 -2123,1852zm1945 -2071c22,32 45,62 68,91 -256,347 -545,668 -864,958 96,-105 174,-217 209,-325 212,-227 408,-469 587,-724zm-9422 1513c-16,17 -30,32 -44,45 65,157 142,277 220,370 98,62 198,121 300,177 169,-112 472,64 650,190 -71,-58 -158,-134 -232,-217 -314,-165 -612,-354 -894,-565zm94 566c-7,-7 -13,-14 -20,-22 -416,-263 -802,-572 -1149,-919 -267,-267 -512,-557 -731,-867 -8,8 -15,16 -22,23 77,336 334,911 1158,1515l0 0c103,41 206,80 308,117 103,28 166,55 167,56l-1 2c97,34 194,65 290,95zm1344 254l-1 0 -6 3 7 -3zm-3249 -2883c-1176,-2086 -1126,-4678 123,-6717 -736,1051 -1167,2330 -1167,3710 0,1122 285,2177 787,3097 66,40 112,81 112,81 0,0 56,-102 145,-171zm12183 -3007c0,710 -115,1392 -329,2030 901,-2397 290,-5081 -1485,-6856 -865,-865 -1973,-1486 -3214,-1752 -506,-97 -1136,-109 -1660,-62 1796,17 3420,746 4606,1919 71,65 141,132 210,200 1157,1157 1872,2755 1872,4521zm-12458 2030c-214,-638 -329,-1320 -329,-2030 0,-526 63,-1038 183,-1527 265,-1297 909,-2457 1810,-3359 328,-327 689,-620 1078,-873 -180,92 -355,193 -525,302 -259,192 -504,403 -732,631 -1775,1775 -2386,4459 -1485,6856zm1556 -6564c1496,-1487 3676,-2172 5819,-1725 -532,-142 -1091,-217 -1668,-217 -511,0 -1008,59 -1485,171 -929,324 -1761,854 -2442,1535 -76,77 -151,156 -224,236z"/>
   </g>
   <path class="fil0" d="M13559 6259l2440 5916c128,286 350,431 666,431l0 205 -3059 0 0 -207c571,0 855,-134 855,-400 0,-56 -12,-121 -42,-192l-444 -1080 -2203 0 -343 856c-49,133 -71,236 -71,310 0,338 251,506 754,506l0 207 -1925 0 0 -205c157,0 291,-42 404,-123 113,-82 214,-244 308,-486l2364 -5738 296 0zm254 4289l-976 -2367 -917 2367 1893 0z"/>
   <path class="fil0" d="M7541 9764l-234 0 0 2026c0,249 69,449 207,594 136,148 330,222 577,222l0 205 -3106 0 0 -205c249,0 441,-74 579,-217 136,-145 205,-345 205,-601l0 -4509c0,-256 -69,-456 -205,-599 -135,-143 -328,-214 -579,-214l0 -207 3002 0c439,0 858,51 1260,157 402,106 722,281 961,525 284,289 427,654 427,1092 0,252 -64,484 -193,698 -271,429 -714,715 -1331,855l1819 2675c99,145 180,239 244,281 65,42 146,64 244,64l0 205 -1893 0 -1984 -3047zm-234 -311l310 0c328,0 612,-49 851,-145 241,-96 412,-298 513,-609 56,-192 86,-414 86,-666 0,-399 -44,-687 -133,-860 -225,-392 -639,-589 -1245,-589 -254,39 -382,170 -382,397l0 2472z"/>
  </g>
 </g>
</svg>
