<?xml version="1.0" encoding="UTF-8"?>
<!DOCTYPE svg PUBLIC "-//W3C//DTD SVG 1.1//EN" "http://www.w3.org/Graphics/SVG/1.1/DTD/svg11.dtd">
<!-- Creator: CorelDRAW X7 -->
<svg xmlns="http://www.w3.org/2000/svg" xml:space="preserve" width="210mm" height="210mm" version="1.1" style="shape-rendering:geometricPrecision; text-rendering:geometricPrecision; image-rendering:optimizeQuality; fill-rule:evenodd; clip-rule:evenodd"
viewBox="0 0 21000 21000"
 xmlns:xlink="http://www.w3.org/1999/xlink">
 <defs>
  <style type="text/css">
   <![CDATA[
    .fil1 {fill:#D4AD0C}
    .fil0 {fill:#D4AD0C;fill-rule:nonzero}
   ]]>
  </style>
 </defs>
 <g id="Layer_x0020_1">
  <metadata id="CorelCorpID_0Corel-Layer"/>
  <g id="_2251626566624">
   <path class="fil0" d="M2203 9029c-80,66 -160,156 -240,268 -80,113 -147,233 -201,360 -54,127 -90,253 -109,377 -19,125 -11,233 25,325 35,92 103,157 204,197 101,40 248,39 441,-3 188,-47 383,-122 585,-226 202,-103 388,-222 557,-356 170,-134 308,-274 416,-420 108,-145 163,-282 163,-409 0,-136 -46,-251 -138,-345 -92,-94 -207,-178 -346,-251 -138,-72 -291,-138 -458,-197 -167,-59 -327,-122 -479,-190 -153,-69 -288,-147 -406,-237 -118,-89 -195,-200 -233,-331 -51,-179 -31,-382 60,-610 92,-228 227,-453 406,-674 178,-221 388,-422 627,-603 240,-181 481,-311 723,-391 242,-80 470,-96 684,-49 214,47 389,188 526,423 33,-71 76,-151 130,-240 54,-89 107,-176 159,-261 52,-85 102,-160 151,-226 50,-65 89,-108 117,-127 42,-28 110,-27 204,4 94,31 183,75 265,134 82,59 146,123 190,194 45,70 39,127 -17,169 -90,80 -191,194 -304,342 -113,148 -224,313 -335,494 -110,181 -215,369 -313,564 -99,195 -180,378 -244,550 -63,172 -103,322 -120,451 -16,130 1,220 53,272 -47,42 -108,58 -183,46 -75,-12 -148,-45 -219,-99 -70,-54 -130,-125 -180,-212 -49,-87 -67,-184 -52,-292 14,-132 48,-278 102,-437 54,-160 107,-321 158,-484 52,-162 91,-317 117,-465 26,-148 17,-279 -25,-391 -23,-61 -86,-79 -187,-53 -101,26 -222,82 -363,169 -141,87 -290,196 -448,328 -157,132 -304,271 -441,420 -136,148 -252,297 -349,447 -96,151 -151,285 -165,402 -14,118 29,215 130,293 101,78 233,153 395,226 162,73 340,148 532,225 193,78 371,172 533,282 162,111 295,247 398,409 104,163 148,364 134,603 -4,118 -48,245 -130,381 -82,137 -192,273 -328,409 -136,137 -294,268 -473,395 -178,127 -369,241 -571,342 -202,101 -409,185 -620,251 -212,65 -416,105 -614,119 -169,10 -313,3 -430,-21 -118,-23 -216,-58 -296,-105 -94,-62 -162,-137 -205,-226 -42,-89 -63,-189 -63,-300 0,-110 16,-227 49,-349 33,-122 78,-244 134,-367 94,-202 206,-395 335,-578 129,-183 260,-338 391,-465 24,-19 52,-27 85,-25 33,2 61,12 85,28 23,17 39,37 46,60 7,24 -2,42 -25,56zm6164 -874c14,-19 41,-27 81,-25 40,3 77,13 112,32 36,19 64,44 85,74 21,31 22,62 4,95 -90,155 -192,328 -307,519 -115,190 -238,377 -367,560 -129,184 -262,349 -398,497 -137,149 -271,253 -402,314 -71,33 -145,44 -222,32 -78,-12 -149,-38 -212,-78 -63,-39 -118,-89 -162,-148 -45,-58 -70,-116 -74,-172 -10,-76 0,-179 28,-311 28,-131 59,-251 92,-359 -57,65 -117,142 -180,229 -64,87 -133,180 -208,278 -75,99 -154,198 -236,297 -83,98 -169,190 -258,275 -42,42 -107,58 -194,49 -87,-9 -173,-34 -257,-74 -85,-40 -159,-92 -222,-155 -64,-64 -91,-131 -81,-201 14,-179 56,-369 126,-571 71,-203 157,-399 258,-589 101,-191 214,-368 338,-533 125,-164 248,-298 371,-402 89,-70 171,-110 246,-120 76,-9 149,-1 219,25 71,26 141,64 212,113 70,49 145,97 225,145 52,-57 103,-117 152,-180 49,-64 102,-126 159,-187 33,-43 85,-59 158,-50 73,10 142,36 208,78 66,42 119,93 159,152 40,58 43,114 11,165 -160,273 -288,515 -385,727 -96,211 -167,390 -211,536 -45,145 -66,256 -64,331 3,75 20,113 53,113 94,-5 237,-132 430,-381 193,-249 430,-616 713,-1100zm-1714 275c14,-19 21,-52 21,-99 0,-47 -8,-90 -25,-130 -16,-40 -41,-65 -74,-74 -33,-10 -75,14 -127,70 -108,104 -208,226 -299,367 -92,141 -172,280 -240,416 -68,136 -124,262 -166,377 -42,116 -63,201 -63,258 51,-42 121,-112 208,-208 87,-97 177,-204 271,-321 94,-118 186,-235 275,-353 90,-117 162,-218 219,-303zm4323 -35c14,-33 39,-47 74,-43 35,5 70,17 106,36 35,19 64,41 88,67 23,26 33,46 28,60 -66,136 -147,286 -243,451 -97,165 -200,323 -311,476 -110,153 -223,290 -338,413 -115,122 -222,209 -321,261 -66,32 -141,45 -226,38 -84,-7 -167,-24 -246,-53 -80,-28 -151,-65 -212,-112 -61,-47 -96,-94 -106,-141 -19,-80 -19,-189 0,-325 19,-136 46,-273 81,-409 36,-136 71,-260 106,-370 35,-111 60,-182 74,-215 -94,80 -200,195 -317,345 -118,151 -234,311 -349,480 -115,169 -221,336 -318,501 -96,164 -170,300 -222,409 -23,42 -70,64 -141,67 -70,2 -141,-9 -211,-32 -71,-24 -133,-57 -187,-99 -54,-42 -74,-84 -60,-127 28,-113 70,-262 127,-448 56,-185 122,-387 197,-606 75,-219 160,-443 254,-674 94,-230 198,-444 310,-641 33,-66 86,-99 159,-99 73,0 145,16 215,49 71,33 128,76 173,127 45,52 60,97 46,134 -47,99 -98,199 -152,300 -54,101 -106,195 -155,282 -49,87 -92,163 -127,229 -35,66 -55,111 -60,134 75,-108 156,-216 243,-324 87,-108 174,-209 261,-303 87,-94 175,-179 265,-254 89,-76 176,-139 261,-191 56,-33 125,-42 208,-28 82,14 158,42 229,85 70,42 126,93 166,151 40,59 48,117 24,173 -37,94 -87,211 -148,349 -61,139 -120,285 -176,437 -56,153 -106,300 -148,441 -42,141 -64,261 -64,360 90,-52 186,-125 290,-219 103,-94 205,-202 306,-324 101,-122 199,-254 293,-395 94,-141 179,-282 254,-423zm2475 -2539c61,-33 134,-36 219,-11 84,26 161,66 229,120 68,54 116,113 145,177 28,63 18,114 -29,151 -188,146 -375,363 -560,653 -186,289 -356,607 -512,955 -155,348 -288,705 -398,1072 -111,367 -183,703 -219,1009 -35,305 -26,558 29,758 54,199 165,306 335,321 -38,42 -95,69 -170,81 -75,11 -156,2 -243,-29 -87,-30 -172,-85 -254,-165 -82,-80 -149,-188 -201,-325 -52,-136 -82,-302 -92,-497 -9,-195 17,-427 78,-695 0,-18 -2,-29 -7,-31 -5,-3 -12,6 -21,24 -38,66 -80,137 -127,212 -47,75 -98,147 -152,215 -54,68 -106,128 -155,180 -49,52 -93,85 -130,99 -57,18 -124,25 -201,21 -78,-5 -153,-23 -226,-53 -73,-31 -135,-74 -187,-131 -52,-56 -80,-126 -85,-211 -4,-113 9,-247 39,-402 31,-155 75,-317 134,-487 59,-169 131,-338 215,-507 85,-170 178,-321 279,-455 101,-134 209,-245 324,-332 115,-87 234,-135 356,-144 94,-5 183,11 265,49 82,38 161,75 236,113 19,-52 52,-126 99,-222 47,-97 101,-204 162,-321 61,-118 128,-240 201,-367 73,-127 146,-247 219,-360 73,-112 144,-210 215,-292 70,-82 134,-140 190,-173zm-1347 2250c19,-61 20,-112 4,-152 -17,-40 -60,-48 -131,-25 -66,24 -135,78 -208,163 -73,84 -144,184 -215,299 -70,115 -135,237 -194,363 -59,127 -106,246 -141,357 -35,110 -56,205 -63,285 -7,80 8,127 46,141 18,10 54,-14 105,-70 52,-57 110,-132 173,-226 64,-94 131,-199 201,-314 71,-115 135,-228 194,-338 59,-111 109,-209 152,-296 42,-87 68,-150 77,-187zm3110 190c19,-19 44,-26 74,-21 31,5 60,16 88,35 29,19 50,44 64,74 14,31 12,63 -7,95 -61,184 -147,366 -258,547 -110,181 -236,351 -377,511 -141,160 -289,306 -444,437 -155,132 -308,240 -459,325 -70,38 -145,52 -225,42 -80,-9 -160,-32 -240,-67 -80,-35 -153,-76 -219,-123 -65,-47 -120,-92 -162,-134 -89,-94 -139,-220 -148,-377 -9,-158 8,-328 53,-512 45,-183 112,-374 201,-571 89,-197 189,-383 300,-557 110,-174 227,-327 349,-459 122,-131 237,-228 345,-289 66,-33 127,-50 184,-53 56,-2 115,8 176,29 61,21 123,51 187,91 63,40 135,84 215,131 113,70 165,160 155,268 0,52 -20,143 -60,275 -40,131 -96,269 -169,412 -73,144 -162,278 -268,402 -106,125 -225,208 -356,251 -94,23 -177,30 -247,21 -71,-10 -148,-33 -233,-71 -23,47 -49,117 -77,208 -29,92 -50,185 -64,279 -14,94 -19,177 -14,250 5,73 33,114 85,124 75,14 182,-26 321,-120 138,-94 283,-218 433,-370 151,-153 299,-326 445,-519 145,-193 263,-381 352,-564zm-705 -522c-47,33 -107,95 -180,187 -73,92 -143,189 -211,293 -69,103 -127,200 -177,289 -49,89 -74,146 -74,169 85,14 164,-12 236,-77 73,-66 139,-150 198,-251 59,-101 106,-208 141,-321 35,-112 58,-209 67,-289zm2659 522c18,-19 43,-26 74,-21 30,5 60,16 88,35 28,19 49,44 63,74 14,31 12,63 -7,95 -61,184 -147,366 -257,547 -111,181 -236,351 -377,511 -141,160 -290,306 -445,437 -155,132 -308,240 -458,325 -71,38 -146,52 -226,42 -80,-9 -160,-32 -240,-67 -79,-35 -152,-76 -218,-123 -66,-47 -120,-92 -162,-134 -90,-94 -139,-220 -148,-377 -10,-158 8,-328 52,-512 45,-183 112,-374 201,-571 90,-197 190,-383 300,-557 111,-174 227,-327 349,-459 122,-131 238,-228 346,-289 66,-33 127,-50 183,-53 57,-2 115,8 176,29 62,21 124,51 187,91 64,40 135,84 215,131 113,70 165,160 156,268 0,52 -20,143 -60,275 -40,131 -97,269 -170,412 -72,144 -162,278 -268,402 -105,125 -224,208 -356,251 -94,23 -176,30 -247,21 -70,-10 -148,-33 -232,-71 -24,47 -50,117 -78,208 -28,92 -49,185 -63,279 -14,94 -19,177 -14,250 4,73 32,114 84,124 75,14 182,-26 321,-120 139,-94 283,-218 434,-370 150,-153 298,-326 444,-519 146,-193 263,-381 353,-564zm-706 -522c-47,33 -107,95 -179,187 -73,92 -144,189 -212,293 -68,103 -127,200 -176,289 -50,89 -74,146 -74,169 84,14 163,-12 236,-77 73,-66 139,-150 197,-251 59,-101 106,-208 141,-321 36,-112 58,-209 67,-289zm2638 663c244,-136 447,-217 606,-243 160,-26 315,8 466,102 -80,24 -187,71 -321,141 -134,71 -269,151 -405,240 -137,89 -259,176 -367,261 -108,84 -174,150 -198,197 -28,57 -74,134 -137,233 -64,99 -140,202 -229,310 -90,108 -185,217 -286,325 -101,108 -203,200 -307,275 -94,66 -185,109 -275,130 -89,21 -174,4 -254,-53 -89,-66 -132,-141 -130,-225 2,-85 30,-174 85,-268 54,-94 129,-188 225,-282 97,-94 193,-186 289,-275 97,-90 188,-171 275,-244 87,-73 150,-133 187,-180 33,-42 65,-100 95,-172 31,-73 55,-147 71,-223 16,-75 25,-144 25,-208 0,-63 -14,-104 -43,-123 -141,33 -286,136 -437,310 -150,174 -296,385 -437,631 -141,247 -276,515 -406,804 -129,290 -245,566 -349,829 -103,263 -189,498 -257,705 -68,207 -114,353 -138,438 -14,51 -56,79 -127,84 -70,5 -144,-7 -222,-35 -77,-28 -143,-69 -197,-124 -54,-54 -70,-114 -46,-179 38,-104 99,-265 183,-483 85,-219 181,-465 289,-737 109,-273 224,-561 346,-864 122,-304 240,-595 353,-875 112,-279 216,-533 310,-761 94,-228 167,-404 219,-526 18,-56 62,-86 130,-88 68,-2 136,9 205,35 68,26 125,60 172,103 47,42 61,82 43,119 -24,47 -47,99 -71,156 -23,56 -54,136 -92,239 47,-37 93,-71 138,-102 45,-30 89,-54 134,-70 45,-17 93,-26 144,-29 52,-2 111,9 177,32 113,38 207,70 282,95 75,26 134,60 176,103 43,42 72,98 88,169 17,70 23,171 18,303z"/>
   <path class="fil0" d="M6028 14161c95,57 203,58 325,4 121,-54 251,-153 389,-296 138,-144 282,-330 432,-558 150,-228 301,-487 454,-779 104,-207 198,-411 282,-613 83,-203 146,-387 189,-554 43,-167 62,-309 57,-427 -5,-117 -45,-195 -121,-232 -48,-19 -119,-23 -215,-11 -95,12 -201,38 -317,78 -117,40 -237,89 -361,148 -124,58 -238,123 -343,194 33,0 70,14 111,42 40,28 76,62 107,102 31,40 52,83 64,127 12,45 8,86 -11,124 -38,84 -85,199 -142,345 -58,146 -119,306 -186,480 -67,174 -136,353 -207,539 -72,186 -140,362 -204,529 -64,167 -123,317 -175,451 -52,134 -95,237 -128,307zm350 -2807c-262,198 -487,400 -675,607 -189,207 -326,392 -411,557 -86,165 -112,294 -79,388 34,94 141,127 322,99 -15,42 -50,75 -108,98 -57,24 -123,37 -200,39 -76,3 -158,-5 -246,-21 -88,-16 -168,-47 -239,-92 -72,-44 -130,-103 -175,-176 -46,-73 -66,-161 -61,-264 10,-137 64,-290 164,-459 100,-169 232,-342 397,-518 164,-176 352,-348 564,-515 212,-167 433,-316 664,-448 231,-131 462,-236 693,-314 231,-77 447,-114 647,-109 157,5 312,48 464,131 152,82 285,184 397,306 111,123 196,255 253,399 57,143 74,278 50,405 -38,170 -101,374 -189,614 -88,240 -200,486 -336,740 -136,254 -289,500 -461,737 -171,238 -356,436 -553,596 -198,160 -407,266 -629,317 -221,52 -449,19 -682,-98 -48,122 -99,245 -154,370 -54,125 -113,247 -175,367 -62,120 -123,232 -185,338 -62,106 -122,199 -179,279 -81,113 -176,197 -286,254 -109,56 -219,90 -328,102 -110,12 -216,7 -318,-14 -103,-21 -187,-53 -254,-95 -66,-43 -112,-91 -135,-145 -24,-54 -15,-107 28,-159 100,66 208,60 325,-17 117,-78 238,-202 364,-374 127,-172 253,-381 379,-628 126,-247 250,-506 371,-779 122,-273 237,-548 347,-825 109,-277 207,-532 293,-765 86,-233 157,-433 214,-600 57,-167 98,-276 122,-328zm4178 2716c38,-5 66,8 83,38 16,31 25,66 25,106 0,40 -9,76 -25,109 -17,33 -37,50 -61,50 -110,14 -212,19 -307,14 -96,-5 -208,-28 -336,-71 -24,47 -55,112 -93,194 -38,83 -84,167 -139,254 -55,87 -119,172 -193,254 -74,82 -156,147 -247,194 -76,42 -172,55 -289,39 -117,-17 -233,-51 -350,-102 -117,-52 -220,-118 -311,-198 -90,-80 -147,-167 -171,-261 -38,-127 -45,-266 -21,-416 23,-150 61,-297 114,-441 52,-143 115,-275 189,-395 74,-120 144,-210 211,-271 24,-24 50,-45 78,-64 29,-18 55,-40 79,-63 -19,-99 -31,-199 -36,-300 -5,-101 19,-198 72,-292 43,-76 132,-124 268,-145 135,-21 278,-11 428,32 150,42 287,120 411,232 124,113 198,264 221,452 24,174 23,341 -3,500 -26,160 -59,325 -97,494 43,28 113,49 211,64 98,14 194,11 289,-7zm-1814 811c186,-109 323,-236 411,-381 88,-146 165,-301 232,-466 -167,-113 -295,-256 -386,-430 -24,24 -55,87 -93,190 -38,104 -75,223 -110,357 -36,134 -61,268 -75,402 -15,134 -8,243 21,328zm750 -1249c29,-66 48,-144 57,-236 10,-92 11,-183 4,-275 -7,-92 -19,-174 -36,-247 -17,-73 -35,-126 -54,-158 -76,94 -110,223 -103,387 7,165 51,341 132,529zm3250 438c38,-5 66,8 82,38 17,31 25,66 25,106 0,40 -8,76 -25,109 -16,33 -37,50 -60,50 -110,14 -212,19 -308,14 -95,-5 -207,-28 -335,-71 -24,47 -55,112 -93,194 -38,83 -85,167 -139,254 -55,87 -119,172 -193,254 -74,82 -156,147 -247,194 -76,42 -172,55 -289,39 -117,-17 -233,-51 -350,-102 -117,-52 -220,-118 -311,-198 -90,-80 -147,-167 -171,-261 -38,-127 -45,-266 -22,-416 24,-150 62,-297 115,-441 52,-143 115,-275 189,-395 74,-120 144,-210 211,-271 23,-24 50,-45 78,-64 29,-18 55,-40 79,-63 -19,-99 -31,-199 -36,-300 -5,-101 19,-198 72,-292 42,-76 132,-124 267,-145 136,-21 279,-11 429,32 150,42 287,120 411,232 124,113 197,264 221,452 24,174 23,341 -3,500 -27,160 -59,325 -97,494 43,28 113,49 211,64 98,14 194,11 289,-7zm-1814 811c186,-109 322,-236 411,-381 88,-146 165,-301 232,-466 -167,-113 -296,-256 -386,-430 -24,24 -55,87 -93,190 -38,104 -75,223 -111,357 -35,134 -60,268 -75,402 -14,134 -7,243 22,328zm750 -1249c28,-66 47,-144 57,-236 10,-92 11,-183 4,-275 -8,-92 -19,-174 -36,-247 -17,-73 -35,-126 -54,-158 -76,94 -110,223 -103,387 7,165 51,341 132,529zm2114 -1107c-24,38 -64,58 -121,60 -57,2 -117,-7 -179,-28 -62,-21 -114,-48 -157,-81 -43,-33 -59,-68 -50,-106 10,-56 25,-120 47,-190 21,-71 42,-139 64,-205 21,-66 41,-127 61,-183 19,-57 35,-99 50,-127 28,-43 79,-60 153,-53 74,7 147,26 218,56 71,31 131,70 179,117 47,47 59,91 35,134 -33,61 -79,154 -139,278 -60,125 -113,234 -161,328zm257 959c34,-14 65,-9 93,14 29,24 49,54 61,92 12,38 15,76 11,116 -5,40 -22,72 -50,96 -86,65 -201,165 -347,299 -145,134 -289,272 -432,413 -143,141 -271,271 -386,391 -114,120 -181,204 -200,251 -85,192 -179,396 -282,610 -102,213 -208,414 -318,603 -109,188 -221,352 -335,493 -115,141 -231,233 -350,275 -58,24 -143,20 -258,-10 -114,-31 -219,-81 -314,-152 -95,-71 -164,-159 -207,-264 -43,-106 -24,-227 57,-364 100,-174 226,-338 379,-493 152,-155 301,-298 446,-427 145,-129 273,-241 382,-335 110,-94 176,-164 200,-211 62,-123 134,-281 215,-477 81,-195 162,-392 242,-592 81,-200 156,-384 225,-553 70,-170 118,-292 147,-367 29,-66 81,-106 157,-120 76,-14 154,-11 232,10 79,22 143,57 193,106 50,50 66,105 47,166 -29,85 -66,180 -111,286 -45,105 -92,211 -139,317 -48,106 -93,207 -136,303 -43,97 -76,180 -100,251 47,-43 115,-103 203,-180 88,-78 179,-155 272,-233 93,-78 177,-147 253,-208 77,-61 127,-96 150,-106zm-2950 3202c129,-108 248,-236 357,-384 110,-149 222,-321 336,-519 -81,80 -162,164 -243,251 -81,87 -153,170 -218,250 -64,80 -117,155 -160,226 -43,70 -67,129 -72,176zm5708 -3695c14,-19 41,-27 82,-25 40,2 78,13 114,32 36,18 64,43 86,74 21,30 23,62 3,95 -90,155 -194,328 -310,518 -117,191 -241,377 -372,561 -131,183 -265,349 -403,497 -138,148 -274,253 -407,314 -72,33 -147,43 -226,32 -78,-12 -150,-38 -214,-78 -64,-40 -119,-89 -164,-148 -45,-59 -70,-116 -75,-173 -10,-75 0,-179 28,-310 29,-132 60,-252 93,-360 -57,66 -118,142 -182,229 -64,87 -134,180 -211,279 -76,99 -156,197 -239,296 -83,99 -170,191 -261,275 -42,42 -108,59 -196,50 -88,-10 -175,-35 -261,-75 -85,-40 -160,-91 -225,-155 -64,-63 -91,-130 -82,-201 14,-178 57,-369 129,-571 71,-202 158,-398 260,-589 103,-190 217,-368 343,-532 126,-165 251,-299 375,-402 91,-71 174,-111 250,-120 77,-9 150,-1 222,25 71,25 143,63 214,112 71,50 148,98 229,145 52,-56 103,-116 153,-180 50,-63 104,-126 161,-187 33,-42 87,-58 161,-49 73,9 144,35 210,78 67,42 121,92 161,151 41,59 44,114 11,166 -162,273 -292,515 -389,726 -98,212 -170,390 -215,536 -45,146 -66,256 -64,332 2,75 20,112 54,112 95,-4 240,-131 435,-380 195,-250 436,-616 722,-1100zm-1736 275c14,-19 21,-52 21,-99 0,-47 -8,-91 -25,-131 -16,-40 -41,-64 -75,-74 -33,-9 -76,14 -128,71 -110,103 -211,226 -304,367 -93,141 -174,279 -243,416 -69,136 -125,262 -168,377 -42,115 -64,201 -64,257 53,-42 123,-111 211,-208 88,-96 180,-203 275,-321 95,-117 188,-235 278,-352 91,-118 165,-219 222,-303z"/>
   <path class="fil1" d="M10500 500c5523,0 10000,4477 10000,10000 0,5523 -4477,10000 -10000,10000 -5523,0 -10000,-4477 -10000,-10000 0,-5523 4477,-10000 10000,-10000zm0 841c5059,0 9159,4100 9159,9159 0,5059 -4100,9159 -9159,9159 -5059,0 -9159,-4100 -9159,-9159 0,-5059 4100,-9159 9159,-9159z"/>
   <path class="fil0" d="M18775 6281c-39,6 -76,-22 -81,-61 -288,-2024 -1912,-3580 -3948,-3784 -1215,-122 -2385,260 -3275,998 -3,4 -7,7 -10,9 -582,485 -1043,1122 -1319,1870 5,5 11,10 16,15 26,26 49,49 70,73 17,22 36,42 55,63 51,56 104,114 137,182 60,123 110,261 152,424 17,67 17,138 16,207 -1,25 -1,49 -1,73 4,166 -88,288 -176,406 -17,22 -34,45 -51,68 -31,44 -99,61 -154,75l-11 3c-28,7 -58,9 -86,10 -34,1 -66,3 -94,14 -120,51 -236,44 -333,30 -156,-21 -258,-97 -312,-231 -7,-19 -23,-37 -36,-43 -92,-41 -120,-121 -133,-186 -44,-211 24,-405 92,-570 65,-161 174,-275 324,-339 57,-25 105,-67 136,-98 41,-42 80,-87 117,-132 29,-33 57,-66 87,-99 16,-17 36,-30 57,-43 5,-3 10,-6 16,-9 213,-557 527,-1053 915,-1472 -176,121 -385,249 -560,308 -383,130 -953,53 -977,49l-71 -10 9 -70c3,-18 62,-445 597,-771 199,-121 432,-142 649,-121 371,38 695,202 716,213l15 8c22,-6 40,-11 55,-15 919,-763 2127,-1158 3382,-1032 2103,210 3779,1817 4077,3906 5,40 -22,76 -62,82zm-8481 333l0 0 -19 -69c-38,-132 -76,-269 -120,-400 -7,-20 -28,-38 -51,-57 -7,-6 -15,-13 -23,-20l-3 2 -121 398 -20 -6c-20,-5 -38,-10 -56,-14 -37,-10 -72,-18 -105,-32 -16,-7 -32,-12 -46,-16 4,10 8,20 11,29 13,33 23,61 39,86 42,70 93,84 174,47 41,-18 84,-29 131,-41 91,-23 163,10 209,93zm-649 229l0 0c68,16 136,18 190,7 85,-18 168,-43 256,-70 32,-10 64,-20 97,-30 -1,-51 -9,-81 -26,-93 -20,-16 -61,-13 -127,8 -196,61 -323,16 -386,-139 -13,-33 -12,-71 -9,-108 1,-8 4,-14 9,-19 -4,1 -8,2 -12,4 -35,16 -61,55 -82,118 -9,31 -24,59 -41,93 -8,16 -16,33 -25,52 1,70 49,152 156,177zm104 -1188l0 0c-12,6 -25,13 -37,19 -44,22 -83,41 -112,67l0 0c-95,86 -199,190 -232,337 -6,24 -12,48 -18,72 -27,109 -53,212 -27,324 13,53 32,73 72,74 1,0 2,0 3,0 24,-1 29,-14 37,-48 2,-8 5,-17 7,-25 30,-92 86,-164 156,-197 56,-28 118,-29 183,-5 23,8 45,17 73,28l29 11 72 -257c-211,-72 -227,-244 -206,-400zm154 -66l0 0c-19,52 -37,134 -34,189 4,60 40,115 95,146l66 -37 11 9c24,18 51,34 76,49 76,46 154,93 179,200 20,86 46,178 80,282 7,22 21,44 36,68 2,3 4,5 5,8 54,-86 73,-224 53,-384 -31,-242 -238,-592 -378,-703 -22,9 -146,57 -189,173zm115 -2226l0 0c-353,215 -472,472 -511,594 167,16 561,41 831,-51 172,-59 386,-193 562,-316 -445,111 -1017,250 -1029,229 -15,-25 787,-279 1241,-416 -235,-95 -742,-254 -1094,-40z"/>
   <path class="fil0" d="M16716 17401c-38,-12 -79,9 -91,47 -52,166 -113,326 -182,481l186 -68c50,-120 94,-244 134,-370 12,-38 -9,-78 -47,-90zm-7001 2252c-243,-184 -467,-393 -668,-624 -2,-4 -5,-7 -9,-10 -495,-572 -847,-1275 -998,-2058 33,-24 67,-47 98,-74 78,-67 169,-125 230,-210 79,-111 150,-240 218,-393 38,-86 44,-183 60,-274 31,-164 -40,-299 -108,-429 -13,-26 -27,-51 -39,-76 -25,-52 -100,-82 -151,-104 -26,-11 -55,-17 -83,-23 -33,-7 -65,-14 -90,-30 -110,-69 -226,-81 -324,-83 -158,-4 -271,54 -345,178 -11,17 -29,32 -43,36 -98,25 -138,100 -161,162 -77,202 -42,404 -2,578 39,169 128,299 265,387 53,33 94,82 119,118 59,84 107,175 163,261 14,20 31,35 50,52 5,3 9,8 14,12 121,584 350,1124 666,1599 -155,-148 -340,-307 -504,-394 -356,-190 -931,-205 -956,-206l-71 -2 -2 71c-1,19 -11,450 464,857 177,152 403,211 621,224 372,24 719,-87 741,-94l16 -5c21,10 38,18 52,24 213,245 452,467 712,661 19,-45 41,-88 65,-131zm-1315 -3952c-69,148 -138,297 -214,441 -9,19 -33,33 -58,48 -9,5 -18,10 -26,16l-4 -2 -54 -412c-27,2 -53,5 -79,7 -38,3 -74,6 -108,14 -18,4 -34,7 -48,8 5,-9 10,-18 15,-26 18,-30 33,-57 52,-79 53,-62 106,-67 180,-18 37,24 77,42 122,61 86,38 163,17 222,-58zm-604 -330c62,-4 131,1 189,23 114,44 222,103 332,156 -9,50 -22,78 -41,88 -22,12 -62,3 -124,-29 -184,-92 -316,-67 -403,75 -18,30 -24,69 -26,105 -1,8 1,15 5,21 -49,-24 -65,-87 -72,-136 -5,-32 -15,-63 -26,-98 -5,-17 -11,-35 -17,-56 13,-69 73,-142 183,-149zm-89 1189c-11,-8 -22,-16 -33,-24 -41,-29 -76,-54 -100,-85l0 0c-80,-100 -166,-220 -175,-370 -8,-135 -34,-269 20,-398 21,-51 43,-67 82,-61 2,0 3,0 4,0 24,5 26,18 29,53 1,9 1,17 3,26 14,95 58,176 121,220 52,36 112,48 181,34 35,-7 71,-14 106,-22l30 265c-220,37 -264,205 -268,362zm141 90l0 0c-11,-55 -15,-138 -2,-192 13,-58 57,-107 116,-129l59 47 13 -7c26,-14 55,-25 83,-36 82,-33 167,-66 209,-168 33,-82 74,-169 124,-265 11,-22 28,-41 47,-62 2,-2 4,-5 6,-7 39,94 36,233 -10,387 -69,234 -330,546 -487,633 -19,-12 -134,-79 -158,-201zm-246 2215l0 0c-313,-269 -390,-542 -408,-669 167,11 559,51 812,185 160,86 349,253 503,403 -422,-182 -963,-411 -979,-392 -19,22 732,402 1158,611 -248,55 -773,130 -1086,-138z"/>
   <path class="fil0" d="M16107 14058c319,-136 624,-305 909,-504 4,-4 9,-7 13,-10 705,-495 1288,-1174 1671,-1997 -30,-36 -61,-71 -88,-109 -68,-96 -152,-185 -196,-296 -56,-144 -100,-306 -132,-495 -18,-105 2,-213 9,-319 12,-189 127,-318 238,-444 22,-24 43,-48 64,-72 42,-51 133,-63 195,-73 33,-6 66,-5 98,-4 39,2 76,3 108,-7 141,-46 272,-27 381,-3 176,39 284,135 332,292 7,22 23,44 37,52 101,55 125,148 134,224 30,243 -66,457 -158,638 -89,176 -223,295 -400,354 -67,22 -125,66 -163,98 -88,76 -167,164 -253,243 -20,18 -44,31 -69,43 -6,3 -12,7 -19,10 -294,612 -697,1145 -1177,1584 212,-121 461,-246 665,-297 446,-112 1086,30 1113,36l79 18 -17 79c-4,20 -112,499 -749,818 -237,119 -503,122 -748,77 -418,-77 -770,-295 -793,-309l-16 -10c-25,5 -46,9 -63,12 -304,212 -629,391 -970,534 -9,-55 -21,-109 -35,-163zm2543 -4002c36,182 70,365 114,546 6,23 28,45 52,69 8,8 17,16 24,24l5 -1 174 -440c28,10 56,20 84,30 42,14 80,27 116,45 18,9 35,17 51,22 -3,-11 -6,-22 -9,-33 -12,-38 -21,-71 -36,-101 -42,-84 -98,-104 -194,-71 -48,17 -97,26 -152,35 -105,17 -184,-26 -229,-125zm758 -199c-67,-22 -144,-34 -215,-26 -138,17 -273,52 -409,80 -5,58 2,93 20,109 22,19 68,20 146,3 228,-51 367,12 424,193 12,39 7,82 0,124 -1,8 -6,15 -11,21 60,-13 95,-78 117,-130 14,-34 33,-65 55,-102 11,-17 22,-35 34,-56 5,-80 -42,-177 -161,-216zm-230 1338c15,-5 30,-11 44,-17 53,-21 98,-39 134,-66l0 0c116,-89 244,-197 295,-361 46,-146 111,-287 88,-445 -10,-62 -30,-86 -74,-90 -2,0 -3,-1 -4,-1 -28,-1 -34,13 -47,51 -3,9 -6,19 -10,28 -42,101 -113,177 -195,209 -67,26 -137,22 -209,-12 -37,-17 -75,-36 -112,-54l-106 285c234,101 235,298 196,473zm-180 61l0 0c27,-57 54,-149 56,-211 1,-68 -34,-134 -94,-175l-78 36 -12 -11c-25,-23 -54,-44 -82,-64 -81,-58 -165,-119 -184,-243 -14,-99 -35,-206 -64,-327 -6,-27 -20,-53 -35,-81 -1,-3 -3,-7 -5,-10 -69,93 -104,248 -95,431 12,277 214,695 362,833 26,-8 171,-50 231,-178zm-339 2515l0 0c420,-211 579,-491 635,-626 -188,-34 -632,-99 -948,-20 -201,50 -456,183 -667,306 516,-85 1177,-188 1189,-163 15,29 -919,242 -1447,355 258,130 818,358 1238,148z"/>
   <path class="fil0" d="M16163 11782c-85,328 -270,491 -554,491 -198,0 -408,-115 -627,-347 -263,232 -522,347 -780,347 -169,0 -318,-43 -447,-129 -129,-86 -194,-220 -194,-403 0,-320 247,-613 739,-878 -96,-214 -143,-391 -143,-533 0,-186 62,-331 186,-435 124,-105 270,-156 436,-156 139,0 254,40 344,122 92,82 137,186 137,314 0,237 -196,452 -587,645 152,269 310,516 473,740 210,-250 315,-461 315,-633 0,-122 -56,-190 -167,-204l0 -65 752 0 0 65c-105,8 -184,35 -238,82 -53,45 -128,155 -224,329 -105,189 -222,366 -354,530 191,223 370,335 537,335 172,0 282,-89 330,-265l66 48zm-1110 -1615c0,-84 -26,-155 -77,-212 -52,-57 -118,-86 -199,-86 -88,0 -163,31 -224,93 -61,63 -92,139 -92,228 0,106 50,277 151,514 294,-140 441,-319 441,-537zm-164 1654c-230,-313 -406,-592 -528,-838 -287,165 -430,363 -430,593 0,138 43,253 129,344 86,91 195,137 327,137 141,0 308,-78 502,-236z"/>
  </g>
 </g>
</svg>
