<?xml version="1.0" encoding="UTF-8"?>
<!DOCTYPE svg PUBLIC "-//W3C//DTD SVG 1.1//EN" "http://www.w3.org/Graphics/SVG/1.1/DTD/svg11.dtd">
<!-- Creator: CorelDRAW X7 -->
<svg xmlns="http://www.w3.org/2000/svg" xml:space="preserve" width="210mm" height="210mm" version="1.1" style="shape-rendering:geometricPrecision; text-rendering:geometricPrecision; image-rendering:optimizeQuality; fill-rule:evenodd; clip-rule:evenodd"
viewBox="0 0 21000 21000"
 xmlns:xlink="http://www.w3.org/1999/xlink">
 <defs>
  <style type="text/css">
   <![CDATA[
    .fil0 {fill:#D4AD0C}
    .fil1 {fill:#D4AD0C;fill-rule:nonzero}
   ]]>
  </style>
 </defs>
 <g id="Layer_x0020_1">
  <metadata id="CorelCorpID_0Corel-Layer"/>
  <g id="_2251715215072">
   <path class="fil0" d="M10500 500c5523,0 10000,4477 10000,10000 0,5523 -4477,10000 -10000,10000 -5523,0 -10000,-4477 -10000,-10000 0,-5523 4477,-10000 10000,-10000zm0 841c5059,0 9159,4100 9159,9159 0,5059 -4100,9159 -9159,9159 -5059,0 -9159,-4100 -9159,-9159 0,-5059 4100,-9159 9159,-9159z"/>
   <path class="fil1" d="M2457 12928c1414,0 2726,-1575 3761,-4243l58 -146c175,132 540,234 962,205 234,437 204,1093 0,1676 -495,1443 -160,2405 627,2405 1094,0 1895,-1822 2843,-3732 0,-87 -87,-116 -146,-72 -670,1384 -1603,2842 -2041,2842 -481,0 -73,-1253 -218,-2274 -44,-277 -161,-656 -394,-962 758,-204 1677,-656 2099,-1385 890,-1574 -291,-3061 -2405,-3061 -1647,14 -3426,1093 -4432,2303 -1502,1808 -379,3572 598,2449 -452,-277 -350,-1385 277,-2318 627,-933 1705,-1778 2872,-1983 1924,-320 2784,1138 1968,2479 -365,597 -860,991 -1429,1108 -262,-146 -583,-204 -991,-131 845,-2041 1516,-2654 2201,-2814 -1429,-204 -1997,262 -3557,3091 -1006,1851 -1895,3484 -2857,3469 -481,0 -744,-306 -686,-554 102,-481 656,-525 1269,-160 -146,-802 -1604,-860 -1925,131 -218,656 175,1677 1546,1677z"/>
   <path class="fil1" d="M9214 16565c1428,0 2728,-1575 3742,-4242l71 -190c1122,-146 1449,671 1064,1779 -456,1297 -433,2405 500,2405 1108,0 2057,-1677 2990,-3586 -1,-88 -89,-117 -147,-73 -660,1385 -1524,2697 -2049,2697 -408,-44 -283,-846 -236,-2274 11,-481 -183,-977 -608,-1225 1282,-102 2308,-1312 2944,-2056 765,-903 1680,-1312 2543,-933 -547,-991 -2357,-1297 -3409,234 -850,1253 -1600,2376 -2531,2624 -262,-44 -583,0 -946,146 915,-2231 2116,-3383 2800,-3543 -954,-787 -4641,-685 -5936,1429 -1051,1676 662,2726 1484,1545 -597,73 -862,-248 -505,-1225 599,-1603 2899,-2157 3967,-1676 -1004,335 -1943,1458 -3106,3601 -1006,1851 -1868,3484 -2845,3469 -467,0 -731,-306 -675,-554 98,-481 652,-524 1267,-160 -167,-802 -1610,-860 -1923,131 -228,656 173,1677 1544,1677z"/>
   <path class="fil1" d="M15321 17625c-66,-30 -103,-56 -143,-62 -197,-30 -394,-61 -592,-79 -149,-14 -191,-120 -245,-245 29,-46 62,-99 111,-177 193,136 348,312 596,329 234,16 467,67 695,-23 215,-86 426,-182 629,-302 -193,-37 -353,56 -523,101 -57,15 -111,42 -169,55 -229,52 -379,-12 -503,-213 -67,-109 -54,-217 78,-266 203,-74 420,-139 634,-150 342,-17 688,35 1030,18 269,-13 492,-171 688,-354 62,-58 124,-116 186,-174 16,4 31,9 47,13 -10,51 -3,115 -32,151 -52,66 -118,126 -189,172 -444,291 -802,653 -1033,1142 -141,300 -309,592 -501,863 -107,151 -277,265 -436,367 -113,72 -224,-6 -268,-140 -69,-206 15,-370 141,-517 195,-229 401,-449 601,-673 20,-22 33,-49 49,-74 -8,-11 -16,-21 -23,-32 -197,104 -395,204 -589,313 -247,139 -497,276 -732,434 -117,79 -209,198 -301,308 -305,362 -594,737 -910,1089 -159,177 -356,323 -549,466 -107,80 -239,67 -337,-35 -182,-189 -220,-297 -104,-435 168,-201 369,-374 555,-560 39,-38 78,-78 133,-134 -383,25 -651,189 -859,470 -69,94 -169,166 -241,259 -56,71 -97,157 -131,242 -53,134 -138,213 -304,214 -27,-36 -58,-78 -95,-129 20,-61 40,-121 53,-163 122,-80 239,-137 330,-222 134,-126 250,-272 400,-439 -276,-28 -490,26 -673,164 -316,239 -628,485 -933,739 -202,167 -430,245 -685,237 -85,-3 -178,-43 -249,-92 -109,-73 -109,-168 -32,-277 137,-192 345,-285 543,-392 125,-67 250,-132 376,-198 -4,-14 -7,-29 -10,-43 -82,-9 -164,-20 -246,-28 -257,-24 -513,-57 -770,-67 -269,-11 -540,-13 -809,5 -272,18 -545,55 -814,106 -172,33 -336,110 -506,161 -231,70 -465,92 -697,7 -160,-58 -262,-222 -243,-376 13,-106 155,-227 312,-239 209,-16 419,-13 629,-20 35,-1 71,-11 114,-44 -160,-80 -319,-160 -489,-245 -33,22 -71,48 -111,74 -421,-39 -762,140 -1053,407 -188,-73 -217,-138 -170,-351 116,-95 207,8 275,37 289,-108 551,-205 817,-303 -48,-6 -105,-12 -166,-19 -122,-74 -246,-155 -376,-228 -158,-88 -319,-48 -463,29 -241,130 -486,194 -758,123 -199,-52 -351,-157 -433,-349 -70,-163 -23,-267 152,-263 309,7 619,42 927,72 87,8 172,40 264,44 -246,-307 -506,-582 -917,-646 -105,-16 -206,-61 -312,-76 -86,-13 -180,-20 -262,3 -104,28 -199,93 -298,-3 -96,-94 -109,-206 -70,-328 6,-20 15,-40 27,-72 323,118 643,236 963,353 11,-20 21,-39 32,-59 -182,-177 -363,-354 -545,-530 -230,-223 -456,-450 -692,-666 -286,-264 -425,-599 -503,-968 -25,-115 -39,-229 98,-290 113,-51 280,-14 345,93 119,195 208,412 344,594 188,250 205,564 355,825 123,214 658,806 882,943 -49,-78 -72,-129 -108,-169 -183,-209 -248,-465 -271,-729 -9,-101 38,-218 91,-309 60,-103 225,-96 309,7 76,95 153,199 194,313 144,399 263,807 411,1204 141,378 433,634 759,851 214,142 431,282 655,407 129,71 274,111 412,165 9,-14 17,-28 26,-42 -44,-42 -94,-79 -130,-126 -68,-88 -147,-175 -183,-276 -22,-59 9,-170 56,-210 48,-40 166,-52 218,-20 171,107 336,228 484,365 234,216 453,447 781,519 33,8 68,9 103,13 -211,-243 -414,-482 -623,-715 -33,-37 -93,-49 -138,-76 -55,-31 -116,-57 -159,-101 -67,-71 -54,-211 15,-261 100,-71 168,-3 214,70 50,79 80,172 133,294 332,227 601,612 1086,782 126,135 895,255 1177,125 -109,-20 -183,-35 -258,-47 -406,-67 -784,-203 -1084,-494 -104,-100 -192,-234 -242,-369 -64,-168 73,-327 250,-285 156,37 307,121 445,209 263,166 498,384 776,515 297,140 631,201 946,305 162,53 313,45 470,-15 47,-18 110,9 163,8 551,-94 1059,-302 1550,-557 -3,-16 -7,-33 -10,-50 -128,18 -255,35 -383,52 -288,38 -576,87 -859,-27 -229,-93 -397,-251 -504,-471 53,-184 185,-272 360,-237 474,96 947,198 1422,289 178,34 361,44 539,64 29,-49 47,-80 72,-124 33,40 62,74 93,112 178,28 285,-85 425,-211zm-1016 822l0 0c-10,-18 -20,-37 -30,-55 -100,44 -201,83 -298,132 -410,203 -719,540 -1071,821 -53,43 -118,100 -130,160 -16,80 -7,179 29,252 42,86 140,101 226,54 88,-48 186,-94 250,-167 347,-395 684,-797 1024,-1197zm-4299 1481l0 0c229,142 438,116 617,-3 194,-130 359,-302 539,-454 90,-77 183,-151 289,-238 -47,-20 -62,-33 -75,-31 -478,74 -884,312 -1280,570 -43,27 -58,98 -90,156zm2568 -2280l0 0c101,250 326,452 577,455 396,5 792,-44 1188,-69 0,-25 1,-50 2,-74 -586,-49 -1141,-280 -1767,-312zm-4005 1309l0 0c-2,-16 -3,-32 -5,-48 -131,-5 -263,-11 -395,-15 -295,-9 -590,-18 -885,-24 -91,-2 -183,-3 -273,12 -132,21 -179,131 -99,236 40,52 105,112 163,119 153,16 319,37 462,-3 315,-88 619,-213 949,-238 28,-3 55,-26 83,-39zm2872 -117l0 0c-179,-81 -367,-146 -533,-248 -273,-169 -530,-364 -797,-543 -117,-79 -237,-165 -402,-120 -9,202 127,305 248,415 419,381 959,416 1484,496zm4095 -211l0 0c21,6 41,12 61,18 161,-66 294,-169 382,-322 179,-313 353,-627 527,-942 31,-57 54,-118 80,-178 -46,1 -71,12 -88,31 -265,303 -531,606 -792,913 -62,73 -118,157 -151,245 -27,71 -14,156 -19,235zm-11109 -2865l0 0c9,-32 20,-49 16,-61 -126,-375 -261,-746 -482,-1078 -31,-47 -105,-65 -184,-111 -19,567 280,917 650,1250zm1077 1l0 0c-189,273 131,1080 476,1203 -21,-399 -300,-1102 -476,-1203zm599 2083l0 0c-391,-73 -738,-180 -1107,-129 27,157 137,281 274,322 300,92 565,29 833,-193zm9231 -966l0 0c14,49 15,132 45,144 84,33 187,68 270,48 254,-63 503,-150 752,-230 30,-10 54,-35 111,-73 -414,-65 -782,-59 -1178,111zm-7352 1177l0 0c-38,225 430,611 685,577 -207,-220 -367,-479 -685,-577z"/>
   <path class="fil1" d="M4908 3768c69,23 108,45 148,46 200,8 399,16 598,11 150,-3 204,97 271,215 -23,50 -50,105 -90,189 -207,-113 -381,-271 -629,-259 -235,10 -472,-13 -688,102 -204,110 -403,229 -591,372 196,14 344,-96 508,-160 55,-22 106,-54 161,-74 222,-78 379,-31 525,155 79,100 79,209 -47,272 -194,97 -402,187 -613,222 -338,55 -688,43 -1026,99 -265,44 -468,226 -642,431 -55,64 -110,129 -165,193 -16,-2 -32,-4 -48,-7 3,-52 -10,-114 14,-154 44,-71 103,-138 168,-192 408,-340 722,-740 896,-1252 106,-315 240,-624 399,-915 89,-162 245,-295 392,-415 104,-84 223,-19 282,109 92,197 28,370 -81,530 -168,249 -347,491 -521,737 -17,24 -26,53 -39,79 8,10 17,20 26,29 183,-125 369,-247 549,-378 230,-166 462,-330 678,-514 107,-92 185,-221 264,-341 261,-394 506,-800 779,-1186 138,-194 318,-361 493,-525 98,-91 230,-94 339,-4 202,168 252,270 153,421 -144,218 -324,414 -488,619 -35,43 -68,87 -117,148 378,-68 626,-262 800,-565 58,-101 150,-183 210,-284 47,-77 78,-167 102,-256 38,-138 113,-227 279,-247 30,33 66,72 108,118 -13,62 -25,124 -34,167 -111,94 -221,164 -302,259 -119,140 -217,298 -348,482 278,-5 484,-83 650,-241 287,-273 569,-553 843,-839 182,-190 399,-294 653,-314 85,-7 182,22 259,62 116,61 127,155 63,272 -115,206 -310,323 -495,451 -116,81 -234,160 -351,240 5,14 10,28 15,42 82,0 165,1 247,-1 258,-5 516,-2 773,-21 269,-19 538,-48 803,-97 269,-49 535,-117 796,-198 168,-53 322,-148 485,-218 221,-96 451,-144 691,-86 166,39 286,190 285,345 -1,107 -128,244 -283,274 -206,39 -415,61 -622,91 -35,5 -69,19 -109,56 168,62 336,123 514,188 30,-25 65,-55 102,-86 423,-9 741,-226 999,-525 196,52 232,113 210,331 -105,107 -207,15 -277,-6 -275,140 -525,266 -778,394 48,0 106,0 167,0 129,60 263,126 399,183 168,70 323,12 458,-82 224,-156 460,-247 739,-207 203,29 366,115 470,297 88,154 53,263 -121,279 -309,28 -620,28 -930,34 -87,1 -175,-20 -267,-14 279,276 569,521 985,537 106,4 212,37 318,40 87,3 181,-1 260,-33 100,-39 187,-115 297,-31 106,82 131,192 107,318 -4,21 -10,41 -19,74 -334,-80 -665,-160 -997,-240 -8,21 -17,41 -25,62 200,155 401,310 601,464 254,195 505,395 764,584 314,228 490,546 611,904 37,111 64,222 -65,299 -107,63 -276,46 -353,-53 -140,-181 -254,-386 -410,-551 -215,-227 -268,-537 -447,-780 -146,-198 -745,-725 -983,-836 58,72 86,120 126,156 206,187 300,434 352,693 21,99 -12,221 -55,318 -47,108 -213,121 -307,28 -87,-86 -175,-181 -229,-288 -189,-380 -353,-772 -546,-1150 -182,-359 -502,-580 -850,-759 -229,-117 -461,-231 -698,-329 -135,-57 -285,-79 -428,-117 -7,15 -14,29 -21,44 49,36 102,67 144,110 77,80 166,157 213,254 28,56 11,170 -32,215 -43,45 -159,71 -214,45 -182,-87 -360,-189 -523,-308 -257,-187 -501,-392 -834,-427 -34,-3 -69,0 -104,0 237,217 466,431 700,639 37,32 98,38 146,59 58,25 122,44 169,83 75,62 78,203 15,260 -91,82 -166,23 -220,-44 -59,-73 -99,-162 -166,-277 -356,-188 -667,-539 -1169,-654 -140,-119 -918,-151 -1183,10 111,8 186,14 262,18 411,20 802,113 1133,367 115,88 217,210 283,339 83,160 -35,333 -216,312 -160,-19 -319,-86 -466,-157 -280,-135 -539,-325 -830,-423 -311,-106 -650,-128 -975,-195 -167,-35 -315,-9 -465,69 -44,22 -110,3 -163,9 -536,157 -1017,421 -1476,731 6,16 11,32 16,48 125,-32 249,-64 374,-95 282,-70 563,-152 857,-71 238,66 423,204 554,410 -31,189 -153,292 -330,277 -482,-41 -964,-89 -1446,-125 -181,-13 -363,-2 -543,-2 -23,52 -37,85 -57,131 -38,-36 -70,-66 -105,-100 -180,-8 -274,116 -398,257zm915 -932l0 0c12,17 24,34 37,51 93,-54 189,-105 280,-164 385,-249 653,-619 971,-939 48,-48 105,-112 110,-173 7,-82 -13,-179 -57,-248 -51,-80 -150,-84 -231,-28 -82,58 -174,116 -229,196 -299,431 -588,869 -881,1305zm4102 -1962l0 0c-243,-114 -448,-65 -612,74 -178,151 -323,341 -484,512 -81,87 -164,171 -260,270 49,14 65,25 78,22 466,-128 843,-411 1207,-712 39,-32 46,-105 71,-166zm-2291 2558l0 0c-129,-237 -376,-411 -625,-386 -394,41 -782,134 -1172,205 2,24 4,49 6,73 588,-18 1165,148 1791,108zm3830 -1756l0 0c3,15 7,31 10,46 131,-9 263,-18 394,-29 294,-25 588,-50 882,-77 90,-9 182,-19 270,-43 129,-37 163,-152 72,-247 -46,-47 -117,-99 -176,-99 -154,1 -321,-1 -459,56 -303,122 -590,281 -915,344 -28,6 -52,32 -78,49zm-2840 443l0 0c186,60 381,103 558,186 290,136 567,301 853,449 125,65 255,136 413,73 -13,-202 -161,-289 -294,-384 -460,-332 -999,-304 -1530,-324zm-4045 677l0 0c-21,-4 -42,-7 -63,-11 -151,84 -272,201 -342,364 -142,330 -279,663 -416,995 -25,60 -40,124 -60,186 47,-6 70,-20 84,-41 229,-331 459,-662 683,-997 54,-79 100,-169 123,-261 18,-73 -4,-156 -9,-235zm11364 1579l0 0c-6,32 -15,51 -9,62 168,358 344,712 601,1016 37,43 112,53 196,89 -46,-564 -383,-878 -788,-1167zm-1071 122l0 0c157,-293 -252,-1058 -610,-1141 67,394 424,1061 610,1141zm-832 -2001l0 0c397,28 754,94 1114,1 -44,-153 -168,-263 -308,-288 -309,-58 -565,36 -806,287zm-9060 2012l0 0c-20,-47 -31,-129 -62,-138 -87,-23 -194,-46 -273,-16 -246,91 -483,206 -722,314 -28,13 -49,40 -102,85 420,17 784,-31 1159,-245zm7170 -2007l0 0c11,-228 -497,-558 -747,-496 231,196 419,434 747,496z"/>
  </g>
 </g>
</svg>
