<?xml version="1.0" encoding="UTF-8"?>
<!DOCTYPE svg PUBLIC "-//W3C//DTD SVG 1.1//EN" "http://www.w3.org/Graphics/SVG/1.1/DTD/svg11.dtd">
<!-- Creator: CorelDRAW X7 -->
<svg xmlns="http://www.w3.org/2000/svg" xml:space="preserve" width="210mm" height="210mm" version="1.1" style="shape-rendering:geometricPrecision; text-rendering:geometricPrecision; image-rendering:optimizeQuality; fill-rule:evenodd; clip-rule:evenodd"
viewBox="0 0 21000 21000"
 xmlns:xlink="http://www.w3.org/1999/xlink">
 <defs>
  <style type="text/css">
   <![CDATA[
    .str0 {stroke:#9D9E9E;stroke-width:7.62}
    .fil1 {fill:none}
    .fil0 {fill:#EBECEC}
    .fil3 {fill:#D4AD0C}
    .fil2 {fill:#D4AD0C;fill-rule:nonzero}
   ]]>
  </style>
 </defs>
 <g id="Layer_x0020_1">
  <metadata id="CorelCorpID_0Corel-Layer"/>
  <g id="_2251782950368">
   <path class="fil0" d="M19108 11019c-162,2932 -934,4337 -3009,6360 732,141 867,-146 1059,13 449,373 -979,2255 -2220,999 -3078,2077 -6182,459 -6909,724 -59,21 -110,54 -158,92 43,481 -505,693 -763,243 -139,-244 -74,-572 226,-625 -1206,-451 -2320,-1224 -3184,-2172 -555,275 -1072,533 -1640,111 -301,-224 -699,-951 -180,-951 339,0 665,-231 982,-284 -825,-1170 -887,-1905 -1281,-3177 -558,-162 -1107,-117 -1431,-836 -305,-676 164,-1203 387,-719 85,185 556,288 746,365 -294,-2048 655,-4067 1994,-5576 -741,-1066 7,-2231 324,-1643 146,272 439,445 622,693 987,-838 2109,-1532 3315,-2004 -517,-263 20,-1202 493,-746l631 -123c-96,-622 965,-597 970,-33l234 16c127,-423 815,-260 876,130 605,148 1168,481 1788,561 1830,235 3030,1354 4038,2780 123,-326 523,-1489 958,-1418 389,62 561,1204 391,1569 -156,331 -478,572 -713,844 220,393 447,783 645,1187 96,-206 225,-400 363,-566 13,-28 59,-672 535,-552 342,87 449,661 245,916 595,207 -125,1293 -521,731 -465,186 0,1133 108,1595 437,-445 547,-475 901,-1010 260,-393 600,-303 568,182 -76,1154 -14,2015 -1390,2324z"/>
   <path class="fil1 str0" d="M19108 11019c-162,2932 -934,4337 -3009,6360 732,141 867,-146 1059,13 449,373 -979,2255 -2220,999 -3078,2077 -6182,459 -6909,724 -59,21 -110,54 -158,92 43,481 -505,693 -763,243 -139,-244 -74,-572 226,-625 -1206,-451 -2320,-1224 -3184,-2172 -555,275 -1072,533 -1640,111 -301,-224 -699,-951 -180,-951 339,0 665,-231 982,-284 -825,-1170 -887,-1905 -1281,-3177 -558,-162 -1107,-117 -1431,-836 -305,-676 164,-1203 387,-719 85,185 556,288 746,365 -294,-2048 655,-4067 1994,-5576 -741,-1066 7,-2231 324,-1643 146,272 439,445 622,693 987,-838 2109,-1532 3315,-2004 -517,-263 20,-1202 493,-746l631 -123c-96,-622 965,-597 970,-33l234 16c127,-423 815,-260 876,130 605,148 1168,481 1788,561 1830,235 3030,1354 4038,2780 123,-326 523,-1489 958,-1418 389,62 561,1204 391,1569 -156,331 -478,572 -713,844 220,393 447,783 645,1187 96,-206 225,-400 363,-566 13,-28 59,-672 535,-552 342,87 449,661 245,916 595,207 -125,1293 -521,731 -465,186 0,1133 108,1595 437,-445 547,-475 901,-1010 260,-393 600,-303 568,182 -76,1154 -14,2015 -1390,2324"/>
   <path class="fil2" d="M20313 8508c-50,-307 -338,254 -366,299 3,-5 6,-9 9,-14l-13 20c1,-1 2,-3 3,-4 -290,449 -779,701 -1033,1116 -130,-1108 -872,-2013 96,-2236 188,605 856,-447 177,-352l-189 158 -422 188 368 -633c699,433 388,-1144 -72,-430l-45 271c-232,269 -450,633 -505,989 -246,-591 -583,-1151 -893,-1710 658,-811 1145,-805 611,-2107 -245,-597 -974,1498 -975,1529 -1018,-1515 -2213,-2752 -4114,-2996 -596,-77 -1326,-489 -2007,-606 292,-156 -511,-636 -473,-72l-631 -44c315,-480 -831,-642 -498,7l-935 182c-361,-504 -749,509 -125,408 124,-20 153,-129 190,-227 635,-208 1333,-226 1992,-134 0,0 -1,0 -1,0l7 1c-1,-1 -3,-1 -5,-1l577 93c-2302,-66 -4733,1206 -6421,2692 -161,-364 -538,-521 -736,-887 -131,-243 -682,634 70,1568 -1447,1583 -2454,3726 -1985,5893 -299,-217 -1028,-344 -1154,-617 -187,-405 -472,1155 1136,1269l217 63c546,1725 349,1955 1492,3506 3,4 5,8 8,13 -479,-133 -861,271 -1345,271 -286,0 379,1373 1621,555l242 -120c945,1073 2221,1933 3591,2357l-186 163c1,-1 1,-1 2,-2l-61 59c-725,-127 -43,997 157,278l-14 -150c11,-11 21,-22 33,-33 -6,6 -12,11 -18,17 388,-360 690,-209 1906,4 1870,327 3765,169 5362,-971 1271,1489 2534,-882 1958,-611 -389,183 -819,-8 -1212,-38 2264,-2176 3063,-3381 3224,-6633 1405,-273 1297,-895 1382,-2187 4,-50 11,-103 3,-154zm-1135 -948c148,-251 57,380 -1,3 1,-1 1,-2 1,-3zm-149 -828c143,-255 273,285 -9,144l9 -144zm-10902 -4561c1,-5 3,-9 6,-13 -2,4 -4,9 -6,13 0,0 0,0 0,0zm-1 3c-1,0 -1,1 -1,1 0,-1 0,-1 1,-1 0,0 0,0 0,0zm7 67l5 6c-2,-2 -3,-4 -5,-6zm6 7c0,0 0,0 -1,0 1,1 2,2 3,3 -1,-1 -2,-2 -2,-3zm131 -4c0,-1 0,-1 0,-2 -21,132 -270,-74 -75,-127l82 104c-3,8 -6,16 -7,25zm1208 -561c41,-198 409,160 49,142l-49 -142zm1217 179l71 -28 35 79 -130 34 24 -85zm-33 28l-2 13c0,-4 1,-9 2,-13zm-9249 9625c78,52 156,105 231,161l-422 -273c64,36 128,73 191,112zm-195 -114c2,2 4,4 5,6 -1,-2 -3,-4 -5,-6l0 0zm454 520c-282,-13 -499,-203 -637,-436 195,209 425,315 679,437 -14,-1 -28,-1 -42,-1zm5732 7365l-5 -3c2,1 4,3 6,4 -1,0 -1,0 -1,-1zm3 2l1 1c0,0 -1,-1 -1,-1zm43 7l4 -1c-1,0 -3,1 -4,1zm3 3l4 -4c-1,1 -3,3 -4,4zm5 -4l0 0c0,-1 0,-1 0,-1 0,0 0,0 0,1zm40 -62c-76,168 -185,-88 -5,-58l5 58zm9055 -1128c5,-2 9,-4 14,-6 -4,3 -8,7 -12,11 -1,-2 -1,-3 -2,-5 0,0 0,0 0,0zm937 -11205c660,1034 951,2350 1116,3554 -145,-247 -352,-474 -607,-608 -47,-1032 -221,-2037 -554,-3016 15,23 30,47 45,70zm731 3406c-64,-62 -133,-117 -207,-165 -1,-21 -2,-42 -3,-63 179,119 328,296 434,482l-224 -254zm-407 -334c1,22 2,44 3,66l-501 -113c170,-29 335,-11 498,47zm-365 164l376 121c1,4 1,8 1,12l-549 -156 172 23zm41 244l340 107c-1,26 -2,52 -2,78l-561 -235c73,21 149,34 223,50zm528 207c11,8 22,14 33,21 -11,-1 -22,-3 -33,-5 0,-5 0,-11 0,-16zm-505 -4746l1 -2c-1,0 -1,1 -1,2zm507 -810c13,-39 24,-78 34,-118 7,389 -253,673 -530,910 170,-261 397,-491 496,-792zm-128 -289c-54,342 -249,573 -441,848l441 -848zm-603 637c113,-343 377,-652 540,-976 -119,405 -407,762 -571,1150 6,-59 15,-117 31,-174zm-3424 -2378c645,235 1263,562 1752,1052 -539,-438 -1157,-746 -1775,-1058 8,2 15,4 23,6zm-3387 -595l632 -9c-5,0 -10,0 -15,0l925 124c-598,-19 -1190,-131 -1792,-86 0,-1 0,-2 -1,-3 84,-12 168,-20 251,-26zm-2424 760l601 -227 -692 272c30,-15 60,-30 91,-45zm-707 571c1451,-775 3147,-1221 4792,-943 -2856,-161 -5415,1216 -7452,3128 632,-937 1678,-1653 2660,-2185zm4447 -504l-119 26c-61,-97 123,-141 119,-26zm-185 -241c-97,39 -139,182 -131,275 -437,-137 -906,-183 -1362,-170 505,-85 1020,-111 1532,-118 -13,4 -26,8 -39,13zm-388 535l0 0c0,-3 -1,-7 -1,-11 0,4 1,7 1,11zm-196 -67l48 -53c56,78 115,9 147,122 -76,76 -181,22 -195,-69zm-5972 1547c560,-618 1290,-1101 2018,-1501 -858,543 -1619,1200 -2329,1921 -3,-140 221,-320 311,-420zm-210 -51l-144 168c-3,-11 -6,-22 -9,-33l153 -135zm-661 -232c97,105 194,239 222,381 -15,15 -30,29 -45,44l-250 -492c25,22 50,44 73,67zm-340 416c-85,-157 -103,-332 -91,-508 65,268 228,512 315,775l-224 -267zm-1801 5016c87,-1651 936,-3200 2028,-4420l71 153c-500,829 -1765,3580 -1873,4581 -48,440 -30,873 -11,1314 -254,-396 -224,-1181 -215,-1628zm644 -113c-167,929 -232,1880 -95,2818 -353,-1011 -215,-2638 193,-3631l-98 813zm577 4365c-434,-823 -543,-1786 -553,-2702 125,917 279,1864 577,2742 -8,-13 -16,-27 -24,-40zm112 -1606c275,-342 563,-554 658,-1011 0,486 -311,732 -658,1011zm441 -1150c-90,441 -468,644 -649,1024 35,-444 451,-669 651,-1033 -1,3 -1,6 -2,9zm-517 1217c-1,1 -2,2 -3,3 0,-1 1,-2 1,-3 1,0 2,0 2,0zm66 712c-318,-1013 1108,-366 755,-2528 -112,-682 -424,534 -863,977l-207 329c-194,-387 -201,-1136 -189,-1568 0,4 -1,8 -1,11l1 -26c0,4 0,8 0,12 76,-1398 424,-2610 1164,-3785 769,-88 493,766 1944,-173 441,-286 -1182,-519 -1482,-429 1355,-1474 3263,-2801 5278,-3087 0,0 -1,0 -1,0 366,-38 734,-38 1098,17 -270,470 704,566 531,110l955 350c-488,553 951,542 414,-29 -161,-172 -649,-282 -872,-361 179,-117 79,-378 -108,-424 2037,14 3236,889 4580,2346 703,764 994,1731 1229,2724 0,-2 -1,-4 -1,-5 105,571 187,1144 214,1725 -138,-41 -1428,-100 -1146,264 334,431 597,721 1158,813 -222,2643 -717,4743 -2776,6559 95,-322 -164,-1500 -512,-829 -248,477 -519,842 -140,1346 -1233,862 -5012,872 -5291,249l-83 -426c745,-186 -385,-1094 -407,-368 -5,155 71,290 214,354l28 280c-214,-191 -385,-425 -502,-687 1,2 1,4 2,5 -19,-42 -35,-86 -53,-128 1,1 1,2 2,3 -2,-3 -3,-5 -4,-8 600,-439 -809,-781 -444,-140l263 203c-1,-2 -2,-4 -3,-6l8 17c-1,-2 -1,-3 -2,-4l10 22c-2,-4 -4,-8 -6,-13 185,433 444,754 805,1052l-680 -171c8,3 16,5 24,8 -1211,-382 -2306,-874 -3207,-1777 211,-590 911,-295 83,-1993 -223,-457 -438,716 -550,1029l-70 332c-496,-656 -911,-1386 -1160,-2172zm1262 -7020c339,-68 636,75 955,163 -360,44 -686,-150 -1044,-139 29,-9 59,-17 89,-24zm541 498c-208,62 -395,14 -584,-79l584 79zm-548 -282l427 86 -523 -85c32,-2 64,-2 96,-1zm7884 -2869c52,-32 84,12 139,9 112,178 -309,149 -139,-9zm23 -12l4 -1c-1,0 -3,0 -4,1zm5 -2c0,0 1,0 2,-1l-2 1zm4228 5936c0,0 0,0 0,0 3,0 5,0 8,0 -2,0 -5,0 -8,0zm0 0c-2,-1 -4,-1 -6,-1l6 1zm-129 147l-6 -4c2,2 4,3 6,4zm-2210 7168c39,-98 94,-187 151,-275 -72,273 -75,559 -98,839 -108,-175 -121,-371 -53,-564zm317 -139l-317 139 317 -139zm-5896 306c491,-171 -97,616 -43,50l43 -50zm-6 2c1,-1 3,-3 5,-4l-5 4zm-635 -315l-56 68c-339,-91 60,-348 56,-68zm-3295 -1834l101 -292c-27,374 -264,708 -262,1078 -98,-265 66,-546 161,-786zm247 834c-5,5 -10,10 -16,15l166 -315 -150 300zm-2039 78c161,-79 357,-116 534,-91 -261,48 -490,193 -756,224 77,-38 148,-89 222,-133zm597 189c-250,224 -538,259 -853,142 311,-31 640,-272 944,-231 -31,29 -60,60 -91,89zm240 37c-3,2 -6,3 -9,5l88 -73 25 19c-35,14 -70,31 -104,49zm3629 2086l-1193 -647c7,5 14,9 21,14 -97,-61 -193,-121 -289,-182 7,4 14,9 21,13 -509,-339 -969,-708 -1389,-1153 0,0 0,0 0,0 -580,-654 -1015,-1259 -1297,-2091 1060,2303 2863,3607 5318,4146 -615,40 -571,124 -1192,-100zm2138 497l-1141 -185c536,-78 908,65 1406,207l-265 -22zm1488 28c-454,18 -951,-102 -1381,-258 854,95 1721,200 2580,111 -383,104 -805,135 -1199,147zm3237 -684c-924,505 -2011,888 -3075,880 1124,-59 2174,-414 3166,-933 -30,18 -60,36 -91,53zm1669 41c-131,54 -264,60 -399,23l437 -43c-13,7 -25,13 -38,20zm134 -251c-355,126 -644,72 -990,-52 335,37 665,86 1003,48 -5,1 -9,3 -13,4zm-182 -274l359 39 -194 43c8,-2 17,-3 25,-5l-661 -7c3,1 5,1 7,1 -75,-10 -149,-18 -224,-26 211,-189 425,-100 688,-45zm2274 -4322c-324,987 -770,1868 -1456,2649 569,-864 1091,-1733 1468,-2697 -4,16 -8,32 -12,48zm143 -1480c-198,1202 -669,2263 -1313,3285 1,-2 3,-4 4,-6 -438,670 -923,1305 -1523,1837 1779,-1819 2131,-3734 2358,-6188 518,76 293,268 546,539l-72 533zm920 -2075l479 -424c-139,307 -427,464 -682,659 61,-84 130,-161 203,-235zm411 3c-130,252 -294,348 -557,432l557 -432zm210 47c-172,517 -497,592 -965,689 408,-286 765,-243 987,-777 -7,30 -14,59 -22,88z"/>
   <path class="fil2" d="M10463 2110c0,0 1,0 1,0l0 0c0,0 -1,0 -1,0z"/>
   <path class="fil2" d="M8118 17268c-1,0 -1,-1 -1,-1 1,1 1,3 2,5 0,-1 -1,-2 -1,-4z"/>
   <path class="fil2" d="M8116 17264c-1,-2 -3,-5 -4,-8l0 0c3,6 5,11 7,16 -1,-2 -2,-5 -3,-8z"/>
   <path class="fil3" d="M12588 16105c421,-396 759,-550 1268,-374 561,194 867,785 683,1319 -334,968 -1686,1584 -3037,2201 -684,-1319 -1367,-2638 -1032,-3606 184,-535 790,-811 1351,-617 509,176 680,505 767,1077zm-153 556c255,-240 460,-334 769,-227 340,117 526,476 414,800 -203,587 -1022,961 -1842,1334 -414,-800 -828,-1599 -626,-2186 112,-324 479,-492 820,-374 308,106 412,306 465,653z"/>
   <path class="fil2" d="M9074 8977c81,30 155,47 222,52 556,117 -169,1691 871,1589 45,-6 47,-70 -2,-61 -487,69 47,-1301 -645,-1555 548,-189 603,-1251 19,-1254 -481,-3 -531,739 -611,1303 8,-337 16,-702 11,-940 72,-67 122,-164 133,-296 33,-388 -346,-440 -443,119 -8,63 -17,146 -22,243 -263,30 -592,-39 -794,-33 -1024,22 -858,1104 119,849 274,-72 511,-243 492,-459 0,-3 0,-8 0,-11 0,-64 -41,-105 -105,-105 -64,0 -105,41 -105,105 0,64 41,105 105,105 14,0 25,-3 36,-5 -50,138 -244,260 -451,309 -720,172 -850,-686 -91,-700 207,-5 525,47 788,14 -30,479 -47,1209 -41,1497 16,1530 -1472,1223 -1450,0 5,-335 193,-628 545,-625 368,3 753,263 791,824 -14,-5 -30,-8 -47,-8 -63,0 -105,42 -105,105 0,64 42,105 105,105 64,0 105,-41 105,-105 0,-661 -434,-971 -849,-976 -476,-6 -736,315 -750,680 -50,1370 1954,1591 2003,3 0,-11 0,-19 0,-30 86,-678 144,-1821 570,-1813 249,6 186,1143 -376,1018 -17,-2 -33,6 -41,20 -9,14 -3,30 13,36l0 0zm-135 -949c-3,-17 -3,-31 -3,-45 0,-298 91,-326 80,-174 -8,94 -36,166 -77,219l0 0zm2075 2009c61,190 180,301 299,304 257,11 338,-454 376,-650 3,-14 6,-31 11,-50 9,-44 -49,-58 -61,-14l-11 53c-19,91 -99,536 -224,523 -144,-14 -47,-742 -27,-974 22,-252 -379,-280 -396,-9 -55,-110 -147,-166 -249,-169 -650,-24 -670,1254 -86,1254 205,0 302,-213 343,-382 6,39 14,78 25,114l0 0zm-44 -349c-11,113 -58,465 -199,465 -277,5 -294,-983 19,-999 86,-3 166,91 185,260 -2,89 -5,183 -5,274zm1043 290c28,-304 158,-683 293,-655 172,33 -155,993 360,1018 257,11 338,-454 376,-650 3,-14 6,-31 11,-50 9,-44 -49,-58 -60,-14l-11 53c-20,91 -100,536 -225,523 -249,-25 222,-1005 -345,-1052 -244,-19 -346,316 -391,526 3,-100 3,-271 6,-410 3,-119 -72,-193 -194,-191 -116,3 -196,86 -196,202 0,249 0,659 0,806 0,110 72,182 182,182 114,0 189,-72 191,-182 0,-34 3,-70 3,-106zm1165 -1131c102,0 185,-86 185,-188 0,-97 -83,-180 -185,-180 -105,0 -188,83 -188,180 0,102 83,188 188,188zm-188 354c0,260 5,728 -31,1157 -224,99 -442,204 -583,495 -186,382 13,667 271,667 423,0 597,-637 669,-1276 175,-116 330,-290 435,-611 5,-14 -3,-25 -20,-25 -16,0 -30,11 -36,25 -88,271 -221,426 -370,534 33,-346 38,-689 38,-922 0,-119 -80,-199 -199,-196l-19 0c-92,0 -155,61 -155,152zm-39 1228c-47,493 -155,922 -396,922 -152,0 -262,-191 -121,-484 119,-247 310,-346 517,-438zm1721 -802c-41,172 -144,584 -359,570 -164,-8 -233,-199 -241,-409 146,-28 249,-133 301,-250 20,-44 34,-91 36,-135 28,-343 -442,-363 -644,-3 -186,332 -70,913 470,916 315,0 429,-423 495,-678 11,-41 -49,-55 -58,-11zm-534 -260c72,-172 224,-116 210,30 -2,36 -13,78 -30,117 -44,96 -127,185 -246,213 3,-133 27,-266 66,-360zm1517 260c-42,172 -144,584 -360,570 -163,-8 -233,-199 -241,-409 147,-28 249,-133 302,-250 19,-44 33,-91 36,-135 27,-343 -443,-363 -645,-3 -185,332 -69,913 470,916 316,0 429,-423 496,-678 11,-41 -50,-55 -58,-11zm-534 -260c71,-172 224,-116 210,30 -3,36 -14,78 -31,117 -44,96 -127,185 -246,213 3,-133 28,-266 67,-360zm321 -498c-14,8 -12,25 0,35 11,11 24,14 38,3 53,-38 128,-46 211,-38 -34,279 -42,580 -39,839 5,404 180,638 420,633 155,-3 247,-161 302,-334 36,-116 58,-238 75,-315 2,-14 5,-30 11,-50 8,-44 -50,-58 -61,-14l-11 53c-11,47 -36,193 -78,317 -38,114 -88,202 -146,205 -58,2 -155,-41 -141,-478 8,-236 27,-469 44,-704 3,-22 5,-55 8,-91 94,11 177,11 241,-22 14,-9 17,-23 5,-36 -8,-14 -24,-17 -41,-9 -50,22 -119,20 -199,11 2,-33 5,-77 11,-119 14,-116 -53,-193 -166,-196 -111,-3 -199,66 -216,169 -6,27 -8,58 -11,88 -100,-8 -194,6 -257,53z"/>
   <path class="fil2" d="M9754 11595c-75,86 -163,129 -264,129 -92,0 -163,-29 -215,-87 -52,-58 -78,-122 -78,-192 0,-118 73,-213 219,-285 -40,-48 -67,-88 -82,-119 -14,-31 -21,-61 -21,-91 0,-60 22,-110 67,-151 44,-41 98,-61 161,-61 61,0 111,19 153,57 41,39 62,88 62,147 0,91 -59,169 -176,233l168 216c17,-37 32,-81 43,-132l115 26c-19,82 -46,151 -79,205 41,57 88,106 142,147l-76 94c-45,-31 -92,-76 -139,-136zm-232 -496c48,-29 79,-55 95,-77 15,-22 23,-48 23,-77 0,-34 -10,-61 -30,-81 -21,-20 -46,-30 -74,-30 -29,0 -54,9 -76,29 -21,20 -31,45 -31,76 0,30 14,63 43,99l50 61zm160 404l-207 -266c-58,36 -99,70 -122,102 -23,32 -34,64 -34,98 0,44 16,85 47,124 32,40 73,59 124,59 33,0 67,-10 104,-31 36,-21 65,-50 88,-86z"/>
   <path class="fil2" d="M6000 11526c-61,0 -101,40 -101,101 0,61 40,101 101,101 14,0 24,-2 35,-5 -48,133 -234,249 -433,297 -690,165 -815,-658 -88,-672 200,-5 505,46 757,14 -29,459 -45,1160 -40,1436 16,1469 -1412,1174 -1391,0 5,-321 186,-602 523,-600 353,3 722,252 760,792 -14,-6 -30,-8 -46,-8 -61,0 -100,39 -100,100 0,62 39,101 100,101 61,0 101,-39 101,-101 0,-634 -417,-932 -815,-937 -457,-5 -706,303 -720,653 -47,1315 1875,1527 1923,3 109,-651 369,-1782 722,-1769 274,11 -592,2714 500,2606 42,-6 45,-67 -3,-59 -725,98 345,-2690 -438,-2695 -417,-3 -672,1019 -770,1585 10,-390 24,-927 18,-1237 69,-64 117,-157 128,-285 32,-371 -332,-422 -425,115 -8,61 -16,140 -21,233 -253,30 -569,-37 -763,-32 -982,22 -823,1060 115,816 263,-69 491,-234 472,-441 0,-3 0,-8 0,-11 0,-61 -40,-101 -101,-101zm595 -374c-2,-16 -2,-29 -2,-43 0,-286 87,-313 77,-167 -6,90 -35,159 -75,210zm1963 1928c58,183 172,289 286,292 247,11 324,-436 362,-624 2,-13 5,-29 10,-48 8,-42 -48,-56 -58,-13l-11 50c-18,88 -95,515 -215,502 -138,-13 -45,-712 -26,-935 21,-241 -364,-268 -380,-8 -53,-106 -141,-159 -239,-162 -624,-23 -643,1203 -83,1203 197,0 290,-204 330,-366 5,37 13,74 24,109l0 0zm-43 -335c-10,109 -56,446 -191,446 -266,6 -281,-942 19,-958 82,-3 159,87 177,249 -2,85 -5,176 -5,263zm1001 279c27,-292 152,-656 282,-629 164,32 -149,953 345,977 247,11 324,-436 361,-624 3,-13 5,-29 11,-48 8,-42 -48,-56 -59,-13l-10 50c-19,88 -96,515 -215,502 -239,-24 212,-964 -332,-1009 -234,-19 -332,303 -375,505 3,-96 3,-261 6,-393 2,-115 -69,-186 -186,-184 -112,3 -189,83 -189,194 0,239 0,632 0,773 0,106 69,175 175,175 109,0 181,-69 184,-175 0,-32 2,-66 2,-101zm1426 -890c-624,-23 -642,1203 -82,1203 135,0 266,-106 327,-358 2,-8 5,-19 5,-27 50,271 196,425 388,420 148,-3 236,-154 289,-321 35,-112 56,-229 72,-303 2,-13 5,-29 10,-48 8,-42 -47,-56 -58,-13l-11 50c-10,45 -34,186 -74,306 -37,109 -85,194 -141,196 -55,3 -148,-40 -135,-459 5,-130 13,-271 24,-414l26 -46 83 -140c111,-181 201,-396 249,-579 83,-332 -18,-518 -188,-510 -396,16 -510,624 -539,1213 -53,-111 -144,-167 -245,-170zm38 1057c-266,6 -282,-945 18,-958 85,-6 162,93 181,263 -3,71 -3,140 -3,207 -5,63 -16,162 -42,263 -40,159 -96,225 -154,225l0 0zm589 -1022l5 -64c16,-172 59,-818 229,-823 63,-3 103,125 55,305 -47,178 -135,385 -244,561 -2,8 -24,42 -48,85 0,-6 0,-11 0,-16l3 -32c0,-5 0,-11 0,-16zm555 -231c-101,0 -181,-82 -181,-181 0,-93 80,-172 181,-172 98,0 178,79 178,172 0,99 -80,181 -178,181zm-194 1142c59,183 173,287 287,292 247,8 324,-436 361,-624 3,-13 5,-29 11,-48 8,-42 -48,-56 -59,-13l-10 50c-19,88 -96,515 -215,502 -138,-13 -46,-712 -27,-935 21,-244 -372,-268 -380,0 0,231 -37,550 32,776zm959 -56c26,-292 151,-656 281,-629 165,32 -148,953 346,977 246,11 324,-436 361,-624 2,-13 5,-29 10,-48 8,-42 -47,-56 -58,-13l-11 50c-18,88 -95,515 -215,502 -239,-24 213,-964 -332,-1009 -233,-19 -332,303 -374,505 2,-96 2,-261 5,-393 3,-115 -69,-186 -186,-184 -111,3 -188,83 -188,194 0,239 0,632 0,773 0,106 69,175 175,175 109,0 181,-69 183,-175 0,-32 3,-66 3,-101zm1174 -1086c-101,0 -181,-82 -181,-181 0,-93 80,-172 181,-172 98,0 177,79 177,172 0,99 -79,181 -177,181zm-194 1142c58,183 172,287 287,292 246,8 323,-436 361,-624 2,-13 5,-29 10,-48 8,-42 -48,-56 -58,-13l-11 50c-18,88 -95,515 -215,502 -138,-13 -45,-712 -26,-935 21,-244 -372,-268 -380,0 0,231 -37,550 32,776z"/>
   <path class="fil3" d="M10500 6722c-194,-146 -319,-379 -319,-640 0,-262 125,-494 319,-641 194,147 319,379 319,641 0,261 -125,494 -319,640zm484 -1443c444,0 804,359 804,803 0,443 -360,803 -804,803 -99,0 -195,-18 -283,-52 204,-186 332,-453 332,-751 0,-298 -128,-566 -332,-752 88,-33 184,-51 283,-51zm-685 1554c-204,-186 -332,-453 -332,-751 0,-298 128,-566 332,-752 -88,-33 -184,-51 -283,-51 -444,0 -804,359 -804,803 0,443 360,803 804,803 99,0 195,-18 283,-52zm685 -1768c562,0 1018,455 1018,1017 0,562 -456,1017 -1018,1017 -175,0 -340,-44 -484,-123 -144,79 -309,123 -484,123 -562,0 -1018,-455 -1018,-1017 0,-500 361,-916 837,-1001 -79,-29 -75,-20 -125,-109 -52,-93 -105,-186 -157,-279 -11,-20 -6,-31 17,-41 138,-57 275,-102 413,-158 30,-12 57,-11 83,0 127,50 254,101 381,151 48,22 57,40 35,81 -49,88 -99,175 -148,263 -28,51 -61,66 -107,98 97,20 189,54 273,100 144,-78 309,-122 484,-122z"/>
  </g>
 </g>
</svg>
