<?xml version="1.0" encoding="UTF-8"?>
<!DOCTYPE svg PUBLIC "-//W3C//DTD SVG 1.1//EN" "http://www.w3.org/Graphics/SVG/1.1/DTD/svg11.dtd">
<!-- Creator: CorelDRAW X7 -->
<svg xmlns="http://www.w3.org/2000/svg" xml:space="preserve" width="210mm" height="210mm" version="1.1" style="shape-rendering:geometricPrecision; text-rendering:geometricPrecision; image-rendering:optimizeQuality; fill-rule:evenodd; clip-rule:evenodd"
viewBox="0 0 21000 21000"
 xmlns:xlink="http://www.w3.org/1999/xlink">
 <defs>
  <style type="text/css">
   <![CDATA[
    .str0 {stroke:#9D9E9E;stroke-width:7.62}
    .fil1 {fill:none}
    .fil0 {fill:#EBECEC}
    .fil3 {fill:#D4AD0C}
    .fil2 {fill:#D4AD0C;fill-rule:nonzero}
   ]]>
  </style>
 </defs>
 <g id="Layer_x0020_1">
  <metadata id="CorelCorpID_0Corel-Layer"/>
  <g id="_2251626619200">
   <path class="fil0" d="M19108 11019c-162,2932 -934,4337 -3009,6360 732,141 867,-146 1059,13 449,373 -979,2255 -2220,999 -3078,2077 -6182,459 -6909,724 -59,21 -110,54 -158,92 43,481 -505,693 -763,243 -139,-244 -74,-572 226,-625 -1206,-451 -2321,-1224 -3184,-2172 -555,275 -1072,533 -1640,111 -301,-224 -699,-951 -180,-951 339,0 665,-231 982,-284 -825,-1170 -887,-1905 -1281,-3177 -558,-162 -1107,-117 -1431,-836 -305,-676 164,-1203 387,-719 85,185 556,288 746,365 -294,-2048 655,-4067 1994,-5576 -741,-1067 7,-2231 324,-1643 146,272 439,445 621,693 988,-838 2110,-1532 3316,-2004 -517,-263 20,-1202 493,-746l631 -123c-96,-622 965,-597 970,-33l234 16c127,-423 815,-260 876,130 605,148 1168,481 1788,561 1830,235 3030,1354 4038,2780 123,-326 523,-1489 958,-1418 389,62 561,1204 391,1569 -156,331 -478,572 -713,844 220,393 447,783 645,1187 96,-206 225,-400 363,-566 13,-28 59,-672 535,-552 342,87 449,661 245,916 595,207 -125,1293 -521,731 -465,186 0,1133 108,1595 437,-445 547,-475 901,-1010 260,-393 600,-303 568,182 -76,1154 -14,2015 -1390,2324z"/>
   <path class="fil1 str0" d="M19108 11019c-162,2932 -934,4337 -3009,6360 732,141 867,-146 1059,13 449,373 -979,2255 -2220,999 -3078,2077 -6182,459 -6909,724 -59,21 -110,54 -158,92 43,481 -505,693 -763,243 -139,-244 -74,-572 226,-625 -1206,-451 -2321,-1224 -3184,-2172 -555,275 -1072,533 -1640,111 -301,-224 -699,-951 -180,-951 339,0 665,-231 982,-284 -825,-1170 -887,-1905 -1281,-3177 -558,-162 -1107,-117 -1431,-836 -305,-676 164,-1203 387,-719 85,185 556,288 746,365 -294,-2048 655,-4067 1994,-5576 -741,-1067 7,-2231 324,-1643 146,272 439,445 621,693 988,-838 2110,-1532 3316,-2004 -517,-263 20,-1202 493,-746l631 -123c-96,-622 965,-597 970,-33l234 16c127,-423 815,-260 876,130 605,148 1168,481 1788,561 1830,235 3030,1354 4038,2780 123,-326 523,-1489 958,-1418 389,62 561,1204 391,1569 -156,331 -478,572 -713,844 220,393 447,783 645,1187 96,-206 225,-400 363,-566 13,-28 59,-672 535,-552 342,87 449,661 245,916 595,207 -125,1293 -521,731 -465,186 0,1133 108,1595 437,-445 547,-475 901,-1010 260,-393 600,-303 568,182 -76,1154 -14,2015 -1390,2324"/>
   <path class="fil2" d="M20313 8508c-50,-307 -338,254 -366,299 3,-5 6,-9 9,-14l-13 20c1,-1 2,-3 3,-4 -290,449 -779,701 -1033,1116 -130,-1108 -872,-2013 96,-2236 188,605 856,-447 177,-352l-189 158 -422 188 368 -633c700,433 388,-1144 -72,-430l-45 271c-232,269 -450,633 -504,989 -247,-591 -584,-1151 -894,-1710 658,-811 1145,-805 611,-2107 -245,-597 -974,1498 -975,1529 -1018,-1515 -2213,-2752 -4114,-2996 -596,-77 -1326,-489 -2007,-606 292,-156 -511,-636 -473,-72l-631 -44c315,-480 -831,-642 -498,7l-935 182c-361,-504 -749,509 -125,408 124,-20 153,-129 190,-227 635,-208 1333,-226 1992,-134 0,0 -1,0 -1,0l7 1c-1,-1 -3,-1 -5,-1l577 93c-2302,-66 -4733,1206 -6421,2692 -161,-364 -538,-521 -736,-887 -131,-243 -682,634 70,1568 -1447,1583 -2454,3726 -1985,5893 -299,-217 -1028,-344 -1154,-617 -187,-405 -472,1155 1136,1269l217 63c546,1725 349,1955 1492,3506 3,4 5,8 8,13 -479,-133 -861,271 -1345,271 -286,0 379,1373 1621,555l242 -120c945,1073 2221,1933 3591,2357l-186 163c1,-1 1,-1 2,-2l-61 59c-725,-127 -43,997 157,278l-14 -150c11,-11 21,-22 33,-33 -6,6 -12,11 -18,17 388,-360 690,-209 1906,4 1870,327 3765,169 5362,-971 1271,1489 2534,-882 1958,-611 -389,183 -819,-8 -1212,-38 2264,-2176 3063,-3381 3224,-6633 1405,-273 1297,-895 1382,-2187 4,-50 11,-103 3,-154zm-1135 -948c148,-251 57,380 -1,3 1,-1 1,-2 1,-3zm-149 -828c143,-255 273,285 -9,144l9 -144zm-10902 -4561c1,-5 3,-9 6,-13 -2,4 -4,9 -6,13 0,0 0,0 0,0zm-1 3c-1,0 -1,1 -1,1 0,-1 0,-1 1,-1 0,0 0,0 0,0zm7 67l5 6c-2,-2 -3,-4 -5,-6zm6 7c0,0 0,0 -1,0 1,1 2,2 3,3 -1,-1 -2,-2 -2,-3zm131 -4c0,-1 0,-1 0,-2 -21,132 -270,-74 -75,-127l82 104c-3,8 -6,16 -7,25zm1208 -561c41,-198 409,160 49,142l-49 -142zm1217 179l71 -28 35 79 -130 34 24 -85zm-33 28l-2 13c0,-4 1,-9 2,-13zm-9249 9625c78,52 156,105 231,161l-422 -273c64,36 128,73 191,112zm-195 -114c2,2 4,4 5,6 -1,-2 -3,-4 -5,-6l0 0zm454 520c-282,-13 -499,-203 -637,-436 195,209 425,315 679,437 -14,-1 -28,-1 -42,-1zm5732 7365l-5 -3c2,1 4,3 6,4 -1,0 -1,0 -1,-1zm3 2l1 1c0,0 -1,-1 -1,-1zm43 7l4 -1c-1,0 -3,1 -4,1zm3 3l4 -4c-1,1 -3,3 -4,4zm5 -4l0 0c0,-1 0,-1 0,-1 0,0 0,0 0,1zm40 -62c-76,168 -185,-88 -5,-57l5 57zm9055 -1128c5,-2 9,-4 14,-6 -4,3 -8,7 -12,11 -1,-2 -1,-3 -2,-5 0,0 0,0 0,0zm937 -11205c660,1034 951,2350 1116,3554 -145,-247 -352,-474 -607,-608 -47,-1032 -221,-2037 -554,-3016 15,23 30,47 45,70zm731 3406c-64,-62 -133,-117 -207,-165 -1,-21 -2,-42 -3,-63 179,119 328,296 434,482l-224 -254zm-407 -334c1,22 2,44 3,66l-501 -113c170,-29 335,-11 498,47zm-365 164l376 121c1,4 1,8 1,12l-549 -156 172 23zm41 244l340 107c-1,26 -2,52 -2,78l-561 -235c73,21 149,34 223,50zm528 207c11,8 22,14 33,21 -11,-1 -22,-3 -33,-5 0,-5 0,-11 0,-16zm-505 -4746l1 -2c-1,0 -1,1 -1,2zm507 -810c13,-39 24,-78 34,-118 7,389 -253,673 -530,910 170,-261 397,-491 496,-792zm-128 -289c-54,342 -249,573 -440,848l440 -848zm-603 637c113,-343 377,-652 540,-976 -119,405 -407,762 -571,1150 6,-59 15,-117 31,-174zm-3424 -2378c645,235 1263,562 1752,1052 -539,-438 -1157,-746 -1775,-1058 8,2 15,4 23,6zm-3387 -595l632 -9c-5,0 -10,0 -15,0l925 124c-598,-19 -1190,-131 -1792,-86 0,-1 0,-2 -1,-3 84,-12 168,-20 251,-26zm-2424 760l601 -227 -692 272c30,-15 60,-30 91,-45zm-707 571c1451,-775 3147,-1221 4792,-943 -2856,-161 -5415,1216 -7452,3128 632,-937 1678,-1653 2660,-2185zm4447 -504l-119 26c-61,-97 123,-141 119,-26zm-185 -241c-97,39 -139,182 -131,275 -437,-137 -906,-183 -1362,-170 505,-85 1020,-111 1532,-118 -13,4 -26,8 -39,13zm-388 535l0 0c0,-3 -1,-7 -1,-11 0,4 1,7 1,11zm-196 -67l48 -53c56,78 115,9 147,122 -76,76 -181,22 -195,-69zm-5972 1547c560,-618 1290,-1101 2018,-1501 -858,543 -1619,1200 -2329,1921 -3,-140 221,-320 311,-420zm-210 -51l-144 168c-3,-11 -6,-22 -9,-33l153 -135zm-661 -232c97,105 194,239 222,381 -15,15 -30,29 -45,44l-250 -492c25,22 50,44 73,67zm-340 416c-85,-157 -103,-332 -91,-508 65,268 228,512 315,775l-224 -267zm-1801 5016c87,-1651 936,-3200 2028,-4420l71 153c-500,829 -1765,3580 -1873,4581 -48,440 -30,873 -11,1314 -254,-396 -224,-1181 -215,-1628zm644 -113c-167,929 -232,1880 -95,2818 -353,-1011 -215,-2638 193,-3631l-98 813zm577 4365c-434,-823 -543,-1786 -553,-2702 125,917 279,1864 577,2742 -8,-13 -16,-27 -24,-40zm112 -1606c275,-342 563,-554 658,-1011 0,486 -311,732 -658,1011zm441 -1150c-90,441 -468,644 -649,1024 35,-444 451,-669 651,-1033 -1,3 -1,6 -2,9zm-517 1217c-1,1 -2,2 -3,3 0,-1 1,-2 1,-3 1,0 2,0 2,0zm66 712c-318,-1013 1108,-366 755,-2528 -112,-682 -424,534 -863,977l-207 329c-194,-387 -201,-1136 -189,-1568 0,4 -1,8 -1,11l1 -26c0,4 0,8 0,12 76,-1398 424,-2610 1164,-3785 769,-88 493,766 1944,-173 441,-286 -1182,-519 -1482,-429 1355,-1474 3263,-2801 5278,-3087 0,0 -1,0 -1,0 366,-38 734,-38 1098,17 -270,470 704,566 531,110l955 350c-488,553 951,542 414,-29 -161,-172 -649,-282 -872,-361 179,-117 79,-378 -108,-424 2037,14 3236,889 4580,2346 703,764 994,1731 1229,2724 0,-2 -1,-4 -1,-5 105,571 187,1144 214,1725 -138,-41 -1428,-100 -1146,264 334,431 597,721 1158,813 -222,2643 -717,4743 -2776,6559 95,-322 -164,-1500 -512,-829 -248,477 -519,842 -140,1346 -1233,862 -5012,872 -5291,249l-83 -426c745,-186 -385,-1094 -407,-368 -5,155 71,290 214,354l28 280c-214,-191 -385,-425 -502,-687 1,2 1,4 2,5 -19,-42 -35,-86 -53,-128 1,1 1,2 2,3 -2,-3 -3,-5 -4,-8 600,-439 -809,-781 -444,-140l263 203c-1,-2 -2,-4 -3,-6l8 17c-1,-2 -1,-3 -2,-4l10 22c-2,-4 -4,-8 -6,-13 185,433 444,754 805,1052l-680 -171c8,3 16,5 24,8 -1211,-382 -2306,-874 -3207,-1777 211,-590 911,-295 83,-1993 -223,-457 -438,716 -550,1029l-70 332c-496,-656 -911,-1386 -1160,-2172zm1262 -7020c339,-68 636,75 955,163 -360,44 -686,-150 -1044,-139 29,-9 59,-17 89,-24zm541 498c-208,62 -395,14 -584,-79l584 79zm-548 -282l427 86 -523 -85c32,-2 64,-2 96,-1zm7884 -2869c52,-32 84,12 139,9 112,178 -309,149 -139,-9zm23 -12l4 -1c-1,0 -3,0 -4,1zm5 -2c0,0 1,0 2,-1l-2 1zm4228 5936c0,0 0,0 0,0 3,0 5,0 8,0 -2,0 -5,0 -8,0zm0 0c-2,-1 -4,-1 -6,-1l6 1zm-129 147l-6 -4c2,2 4,3 6,4zm-2210 7168c39,-98 94,-187 151,-275 -72,273 -75,559 -98,839 -108,-175 -121,-371 -53,-564zm317 -139l-317 139 317 -139zm-5896 306c491,-171 -97,616 -43,50l43 -50zm-6 2c1,-1 3,-3 5,-4l-5 4zm-635 -315l-56 68c-339,-91 60,-348 56,-68zm-3295 -1834l101 -292c-27,374 -264,708 -262,1078 -98,-265 66,-546 161,-786zm247 834c-5,5 -10,10 -16,15l166 -315 -150 300zm-2039 78c161,-79 357,-116 534,-91 -261,48 -490,193 -756,224 77,-38 148,-89 222,-133zm597 189c-250,224 -538,259 -853,142 311,-31 640,-272 944,-231 -31,29 -60,60 -91,89zm240 37c-3,2 -6,3 -9,5l88 -73 25 19c-35,14 -70,31 -104,49zm3629 2086l-1193 -647c7,5 14,9 21,14 -97,-61 -193,-121 -289,-182 7,4 14,9 21,13 -509,-339 -969,-708 -1389,-1153 0,0 0,0 0,0 -580,-654 -1015,-1259 -1297,-2091 1060,2303 2863,3607 5318,4146 -615,40 -571,124 -1192,-100zm2138 497l-1141 -185c536,-78 908,65 1406,207l-265 -22zm1488 28c-454,18 -951,-102 -1381,-258 854,95 1721,200 2580,111 -383,104 -805,135 -1199,147zm3237 -684c-924,505 -2011,888 -3075,880 1124,-59 2174,-414 3166,-933 -30,18 -60,36 -91,53zm1669 41c-131,54 -264,60 -399,23l437 -43c-13,7 -25,13 -38,20zm134 -251c-355,126 -644,72 -990,-52 335,37 665,86 1003,48 -5,1 -9,3 -13,4zm-182 -274l359 39 -194 43c8,-2 17,-3 25,-5l-661 -7c3,1 5,1 7,1 -75,-10 -149,-18 -224,-26 211,-189 425,-100 688,-45zm2274 -4322c-324,987 -770,1868 -1456,2649 569,-864 1091,-1733 1468,-2697 -4,16 -8,32 -12,48zm143 -1480c-198,1202 -669,2263 -1313,3285 1,-2 3,-4 4,-6 -438,670 -923,1305 -1523,1837 1779,-1819 2131,-3734 2358,-6188 518,76 293,268 546,539l-72 533zm920 -2075l479 -424c-139,307 -427,464 -682,659 61,-84 130,-161 203,-235zm411 3c-130,252 -294,348 -557,432l557 -432zm210 47c-172,517 -497,592 -965,689 408,-286 765,-243 987,-777 -7,30 -14,59 -22,88z"/>
   <path class="fil2" d="M8118 17268c-1,0 -1,-1 -1,-1 1,1 1,3 2,5 0,-1 -1,-2 -1,-4z"/>
   <path class="fil2" d="M8116 17264c-1,-2 -3,-5 -4,-8l0 0c3,6 5,11 7,16 -1,-2 -2,-5 -3,-8z"/>
   <path class="fil2" d="M17350 14246c-388,418 -734,724 -1040,920 -303,195 -612,293 -924,293 -324,0 -586,-105 -784,-315 -197,-211 -295,-487 -295,-829 0,-203 47,-485 142,-843 95,-359 143,-633 143,-824 0,-304 -102,-463 -304,-473 -124,-10 -185,-67 -185,-173 0,-194 71,-291 214,-291l334 20c312,0 560,-152 743,-453 185,-303 277,-667 277,-1094 0,-995 -570,-1494 -1710,-1494 -726,0 -1371,195 -1934,584 -564,389 -845,824 -845,1304 0,272 136,478 407,614 129,66 193,147 193,243 0,85 -125,183 -378,292 -251,110 -424,165 -516,165 -146,0 -278,-94 -395,-282 -117,-191 -176,-406 -176,-650 0,-729 373,-1354 1118,-1874 746,-520 1657,-780 2731,-780 901,0 1603,192 2105,578 502,385 753,852 753,1401 0,346 -139,681 -415,1006 -277,327 -821,580 -1631,761 296,167 509,347 643,543 134,195 202,439 202,734 0,165 -17,348 -51,550 -33,204 -50,334 -50,389 0,281 111,423 337,423 302,0 731,-337 1291,-1010l0 565zm-2555 -4707c-271,219 -454,453 -546,702 -93,249 -185,709 -278,1377 -92,670 -197,1202 -314,1600 -117,395 -322,769 -614,1121 -292,352 -645,626 -1057,823 -412,197 -840,297 -1281,297 -477,0 -835,-115 -1070,-344 -238,-227 -357,-492 -357,-791 0,-96 38,-180 112,-256 75,-76 228,-180 460,-312 231,-131 390,-197 475,-197 110,0 165,63 165,187 0,31 -17,142 -51,337 -34,194 -51,308 -51,345 0,184 52,337 159,456 105,120 240,181 402,181 345,0 650,-218 915,-652 264,-434 451,-1074 558,-1921 108,-847 249,-1462 426,-1845 174,-383 431,-692 767,-928 337,-234 639,-352 907,-352 76,0 168,57 273,172z"/>
   <path class="fil2" d="M8819 8810c335,0 580,-133 732,-397 154,-266 231,-555 231,-869 0,-432 -143,-778 -430,-1038 -286,-258 -672,-387 -1158,-387 -650,0 -1237,189 -1756,565 -520,377 -780,793 -780,1248 0,272 147,471 444,596 75,32 114,61 114,90l0 144c0,69 -125,155 -374,258 -248,104 -411,155 -490,155 -122,0 -247,-99 -372,-298 -125,-198 -187,-403 -187,-617 0,-371 152,-760 458,-1166 305,-407 736,-734 1290,-980 556,-247 1193,-370 1914,-370 769,0 1392,161 1870,483 477,324 716,737 716,1242 0,753 -532,1267 -1597,1543 834,259 1251,770 1251,1535 0,556 -208,1035 -626,1433 -419,399 -918,598 -1500,598 -258,0 -471,-51 -644,-155 -171,-103 -258,-228 -258,-375 0,-96 55,-228 165,-394 109,-165 212,-249 306,-249 128,0 205,151 231,451 19,238 93,357 221,357 210,0 394,-233 556,-699 162,-466 242,-934 242,-1406 0,-572 -205,-889 -616,-952l47 -346zm155 -1826c-179,163 -314,349 -405,559 -91,208 -173,615 -245,1222 -72,606 -162,1115 -269,1527 -108,410 -293,793 -558,1149 -264,355 -599,632 -1004,834 -406,202 -841,303 -1308,303 -416,0 -735,-88 -954,-263 -221,-174 -332,-424 -332,-746 0,-116 10,-213 29,-292 147,-134 322,-251 527,-354 203,-101 340,-152 408,-152 114,0 170,86 170,258 0,29 -13,126 -38,293 -26,168 -39,269 -39,303 0,386 165,578 497,578 335,0 626,-218 873,-655 247,-436 425,-1086 532,-1953 107,-867 258,-1464 450,-1796 194,-330 438,-585 731,-761 295,-178 524,-266 687,-266 80,0 163,71 248,212z"/>
   <path class="fil3" d="M12300 7918c-213,-264 -303,-621 -214,-976 89,-354 338,-626 650,-759 212,265 302,622 213,976 -89,354 -337,627 -649,759zm1147 -1790c601,151 966,760 815,1361 -151,601 -761,965 -1361,814 -135,-34 -259,-91 -367,-166 340,-182 604,-502 705,-905 102,-403 19,-810 -193,-1131 130,-15 266,-7 401,27zm-1457 1872c-213,-321 -295,-727 -194,-1130 101,-404 366,-723 705,-906 -108,-75 -231,-132 -366,-166 -601,-151 -1211,214 -1361,815 -151,600 213,1210 814,1361 135,34 271,41 402,26zm1530 -2162c395,99 710,355 894,685 171,305 230,673 138,1039 -191,761 -963,1223 -1724,1032 -238,-60 -446,-176 -615,-331 -221,57 -460,61 -698,1 -761,-191 -1223,-963 -1032,-1724 171,-678 801,-1118 1474,-1072 -97,-65 -94,-51 -132,-189 -39,-144 -78,-288 -117,-431 -9,-32 2,-44 37,-51 205,-29 407,-44 613,-74 44,-5 81,5 112,29 155,111 310,223 465,335 57,46 64,74 19,120 -96,103 -193,205 -289,308 -55,58 -106,68 -178,95 124,61 236,138 335,229 222,-57 460,-61 698,-1z"/>
  </g>
 </g>
</svg>
