<?xml version="1.0" encoding="UTF-8"?>
<!DOCTYPE svg PUBLIC "-//W3C//DTD SVG 1.1//EN" "http://www.w3.org/Graphics/SVG/1.1/DTD/svg11.dtd">
<!-- Creator: CorelDRAW X7 -->
<svg xmlns="http://www.w3.org/2000/svg" xml:space="preserve" width="210mm" height="210mm" version="1.1" style="shape-rendering:geometricPrecision; text-rendering:geometricPrecision; image-rendering:optimizeQuality; fill-rule:evenodd; clip-rule:evenodd"
viewBox="0 0 21000 21000"
 xmlns:xlink="http://www.w3.org/1999/xlink">
 <defs>
  <style type="text/css">
   <![CDATA[
    .fil1 {fill:#D4AD0C}
    .fil0 {fill:#D4AD0C;fill-rule:nonzero}
   ]]>
  </style>
 </defs>
 <g id="Layer_x0020_1">
  <metadata id="CorelCorpID_0Corel-Layer"/>
  <g id="_2251626614528">
   <path class="fil0" d="M20496 8494c-50,-313 -344,258 -372,304 3,-5 6,-9 9,-14l-13 21c1,-2 2,-4 3,-5 -296,458 -793,714 -1051,1136 -133,-1128 -889,-2049 97,-2276 192,616 872,-455 180,-358l-192 160 -430 192 374 -645c713,442 396,-1164 -73,-437l-45 276c-237,273 -458,644 -514,1006 -251,-601 -594,-1171 -909,-1740 670,-825 1165,-819 621,-2145 -249,-608 -991,1525 -992,1557 -1036,-1542 -2252,-2802 -4188,-3050 -606,-78 -1349,-498 -2042,-617 297,-158 -520,-647 -482,-73l-642 -45c321,-488 -846,-653 -507,7l-952 186c-367,-514 -762,517 -126,415 126,-21 155,-132 192,-231 647,-212 1357,-231 2028,-137 0,0 0,0 -1,0l7 1c-1,0 -3,-1 -4,-1l587 95c-2343,-67 -4818,1228 -6536,2740 -164,-370 -548,-530 -749,-903 -134,-248 -695,646 71,1596 -1473,1611 -2499,3793 -2021,5999 -304,-221 -1046,-351 -1174,-629 -190,-412 -481,1177 1156,1292l221 65c555,1755 355,1989 1519,3568 2,5 5,9 7,13 -487,-135 -876,276 -1368,276 -292,0 386,1398 1649,565l247 -122c962,1092 2261,1968 3655,2399l-189 166c1,-1 1,-1 1,-2l-61 60c-739,-129 -44,1014 159,283l-13 -152c10,-12 21,-23 33,-34 -6,6 -13,11 -19,17 395,-367 703,-213 1941,4 1903,333 3832,172 5457,-988 1294,1515 2580,-898 1994,-622 -397,186 -834,-9 -1234,-38 2304,-2215 3118,-3442 3281,-6753 1431,-278 1321,-911 1407,-2225 4,-52 12,-106 3,-157zm-1155 -965c150,-256 58,387 -1,3 1,-1 1,-2 1,-3zm-152 -844c146,-259 278,291 -9,148l9 -148zm-11097 -4642c2,-4 4,-9 6,-13 -2,5 -4,9 -6,14 0,0 0,-1 0,-1zm-1 3c0,1 0,1 -1,1 1,0 1,-1 1,-1 0,0 0,0 0,0zm8 69l5 6c-2,-2 -4,-4 -5,-6zm5 7c0,0 0,0 0,0 1,1 2,2 3,3 -1,-1 -2,-2 -3,-3zm134 -5c0,0 0,0 0,-1 -21,134 -275,-76 -76,-130l83 106c-3,8 -6,16 -7,25zm1230 -570c42,-202 416,163 49,144l-49 -144zm1238 182l73 -28 36 79 -133 35 24 -86zm-33 29l-2 12c0,-4 0,-8 2,-12zm-9415 9796c80,53 159,107 235,165l-429 -278c65,37 130,74 194,113zm-198 -115c2,2 4,3 5,5 -2,-2 -3,-3 -5,-5l0 0zm462 528c-287,-13 -508,-206 -648,-443 198,212 432,321 691,444 -14,0 -29,0 -43,-1zm5834 7498l-4 -3c2,1 3,2 5,3 0,0 0,0 -1,0zm4 2l0 0c0,0 0,0 0,0zm43 7l5 -1c-2,0 -3,0 -5,1zm3 3l5 -4c-2,1 -3,2 -5,4zm5 -5l0 0c0,0 1,0 1,-1 0,1 -1,1 -1,1zm42 -62c-78,170 -189,-90 -5,-59l5 59zm9216 -1149c5,-2 10,-4 14,-6 -4,4 -8,8 -12,12 0,-2 -1,-4 -2,-6 0,0 0,0 0,0zm954 -11405c671,1052 968,2392 1136,3617 -147,-251 -358,-482 -618,-619 -48,-1049 -225,-2073 -564,-3070 15,24 30,48 46,72zm744 3467c-65,-63 -135,-120 -211,-168 -1,-22 -1,-43 -3,-64 182,121 334,301 442,490l-228 -258zm-415 -341c1,23 2,46 4,68l-510 -115c173,-30 341,-11 506,47zm-371 168l383 123c0,4 1,8 1,12l-559 -158 175 23zm42 248l346 109c-1,27 -2,53 -2,80l-571 -240c74,22 151,35 227,51zm537 211c11,8 23,14 34,22 -11,-2 -23,-4 -34,-6 0,-5 0,-11 0,-16zm-514 -4831l1 -2c0,0 -1,1 -1,2zm516 -825c13,-39 25,-79 35,-120 7,396 -258,685 -539,926 173,-265 403,-499 504,-806zm-130 -294c-55,349 -254,583 -448,863l448 -863zm-614 648c116,-348 384,-663 550,-992 -121,412 -414,775 -581,1170 6,-60 15,-119 31,-178zm-3485 -2420c657,239 1285,573 1784,1071 -549,-446 -1178,-759 -1807,-1077 8,2 15,4 23,6zm-3447 -606l643 -8c-6,0 -11,0 -16,-1l942 127c-609,-20 -1212,-134 -1824,-88 0,-1 0,-2 -1,-3 85,-12 170,-20 256,-27zm-2468 774l612 -230 -704 276c30,-15 61,-31 92,-46zm-720 581c1478,-789 3204,-1243 4878,-960 -2907,-163 -5511,1239 -7585,3185 643,-955 1708,-1683 2707,-2225zm4527 -513l-122 26c-61,-98 126,-143 122,-26zm-188 -245c-99,39 -142,186 -134,280 -444,-139 -921,-186 -1386,-173 514,-86 1039,-113 1559,-120 -13,3 -26,8 -39,13zm-395 545l0 0c-1,-4 -1,-8 -2,-11 1,3 2,7 2,11zm-200 -69l49 -54c57,80 117,9 149,124 -77,78 -183,23 -198,-70zm-6078 1575c570,-629 1312,-1121 2053,-1528 -872,553 -1648,1222 -2370,1956 -3,-143 224,-326 317,-428zm-215 -52l-146 171c-3,-11 -6,-23 -9,-34l155 -137zm-672 -236c98,107 198,243 225,388 -15,15 -30,30 -45,45l-254 -501c25,22 50,44 74,68zm-346 423c-87,-159 -106,-338 -93,-517 67,273 232,522 321,790l-228 -273zm-1833 5106c88,-1681 952,-3257 2064,-4499l72 156c-509,843 -1796,3644 -1907,4662 -49,449 -30,889 -11,1338 -258,-402 -228,-1202 -218,-1657zm655 -115c-170,945 -236,1914 -96,2868 -360,-1028 -220,-2685 195,-3695l-99 827zm588 4443c-443,-837 -553,-1818 -563,-2750 127,933 283,1897 587,2791 -8,-14 -16,-27 -24,-41zm113 -1635c280,-348 573,-563 670,-1029 0,495 -316,745 -670,1029zm449 -1170c-91,449 -476,655 -660,1042 35,-451 459,-681 662,-1051 0,3 -1,6 -2,9zm-526 1238c-1,1 -2,2 -3,4 0,-1 1,-2 1,-3 1,0 2,-1 2,-1zm67 726c-324,-1032 1128,-373 768,-2574 -113,-694 -431,544 -878,994l-211 335c-196,-393 -204,-1156 -192,-1595 0,4 0,7 -1,11l1 -27c0,5 0,9 0,13 77,-1424 432,-2657 1185,-3853 783,-90 502,779 1979,-177 449,-290 -1203,-528 -1508,-436 1379,-1501 3321,-2851 5372,-3142 0,0 -1,0 -1,0 373,-39 747,-39 1118,17 -276,479 716,576 540,112l971 357c-496,562 969,551 423,-30 -165,-175 -662,-287 -889,-367 183,-119 81,-385 -109,-432 2073,14 3294,904 4661,2388 717,777 1013,1761 1252,2772 -1,-1 -1,-3 -1,-5 107,581 190,1165 218,1756 -141,-42 -1454,-102 -1167,269 340,438 608,734 1179,827 -227,2691 -730,4828 -2826,6677 97,-328 -167,-1527 -521,-844 -253,485 -528,857 -143,1370 -1255,878 -5101,887 -5385,253l-85 -433c758,-190 -391,-1114 -414,-375 -5,158 72,295 218,360l29 286c-218,-195 -393,-433 -512,-699 1,1 2,3 3,5 -19,-43 -36,-88 -54,-131 0,1 1,2 1,3 -1,-2 -2,-5 -4,-8 612,-447 -824,-795 -451,-143l267 208c-1,-3 -1,-5 -2,-7l7 17c0,-1 -1,-3 -2,-4l11 23c-2,-5 -4,-9 -6,-13 187,440 451,767 818,1070l-691 -174c8,3 16,5 24,8 -1233,-389 -2347,-889 -3264,-1808 214,-601 927,-301 84,-2029 -227,-466 -446,728 -560,1048l-71 337c-505,-668 -927,-1410 -1181,-2210zm1285 -7146c345,-69 647,77 972,166 -366,45 -698,-153 -1063,-142 30,-9 60,-17 91,-24zm551 507c-212,63 -402,14 -595,-81l595 81zm-559 -287l436 87 -533 -86c32,-2 65,-2 97,-1zm8025 -2921c54,-32 86,13 142,10 114,181 -314,151 -142,-10zm24 -12l4 -1c-1,0 -2,1 -4,1zm5 -2c1,0 1,0 2,-1l-2 1zm4304 6042c0,0 -1,0 -1,0 3,0 6,0 9,1 -3,0 -6,-1 -8,-1zm0 0c-2,0 -4,0 -6,0l6 0zm-132 150l-5 -4c2,2 3,3 5,4zm-2249 7297c40,-100 95,-191 153,-281 -72,279 -76,569 -99,854 -110,-178 -123,-378 -54,-573zm322 -142l-322 142 322 -142zm-6001 311c500,-174 -98,627 -43,51l43 -51zm-6 2c2,-1 3,-3 5,-4l-5 4zm-647 -321l-57 70c-344,-93 62,-355 57,-70zm-3353 -1866l103 -297c-28,380 -269,720 -267,1097 -100,-270 67,-556 164,-800zm252 849c-6,5 -11,10 -17,15l169 -320 -152 305zm-2077 79c164,-81 364,-118 545,-92 -267,48 -500,196 -771,228 79,-39 151,-91 226,-136zm608 193c-254,228 -548,263 -867,144 315,-32 651,-277 960,-235 -31,30 -62,60 -93,91zm245 37c-3,2 -7,4 -10,5l90 -74 26 19c-36,15 -72,31 -106,50zm3694 2123l-1215 -658c7,5 14,9 21,14 -98,-62 -196,-124 -294,-185 7,4 14,9 21,13 -517,-345 -985,-721 -1413,-1174 0,0 0,0 0,0 -590,-665 -1034,-1281 -1320,-2128 1079,2344 2914,3671 5413,4220 -626,41 -581,126 -1213,-102zm2175 506l-1161 -188c546,-79 925,66 1432,210l-271 -22zm1515 29c-461,18 -967,-104 -1405,-263 869,96 1751,204 2626,114 -389,105 -819,137 -1221,149zm3295 -696c-941,513 -2046,904 -3129,895 1144,-60 2212,-421 3222,-949 -30,18 -61,36 -93,54zm1699 41c-133,55 -269,61 -406,24l445 -44c-13,7 -26,13 -39,20zm136 -255c-361,128 -654,73 -1007,-54 341,38 677,89 1020,50 -4,1 -8,3 -13,4zm-185 -279l366 39 -197 44c8,-1 16,-3 25,-4l-673 -7c2,0 5,0 7,0 -76,-10 -152,-18 -228,-26 215,-192 433,-102 700,-46zm2315 -4400c-330,1005 -784,1902 -1482,2697 579,-879 1111,-1764 1495,-2746 -5,17 -9,33 -13,49zm146 -1506c-202,1224 -681,2304 -1337,3344 2,-2 3,-4 4,-6 -445,682 -939,1328 -1550,1870 1811,-1852 2169,-3801 2400,-6299 528,77 298,273 556,548l-73 543zm936 -2112l487 -431c-141,312 -434,471 -694,670 62,-85 133,-164 207,-239zm419 4c-133,255 -300,353 -568,439l568 -439zm213 47c-175,526 -505,602 -982,701 415,-291 778,-247 1005,-790 -7,30 -15,59 -23,89z"/>
   <path class="fil0" d="M10470 1981c1,0 1,0 2,0l-1 0c0,0 0,0 -1,0z"/>
   <path class="fil0" d="M8083 17411c0,-1 -1,-1 -1,-2 1,2 2,4 3,6 -1,-2 -2,-3 -2,-4z"/>
   <path class="fil0" d="M8081 17406c-1,-2 -2,-5 -4,-7l0 0c3,5 5,10 8,16 -2,-3 -3,-6 -4,-9z"/>
   <path class="fil1" d="M12902 16650c373,-350 671,-487 1121,-331 496,171 766,693 603,1165 -295,855 -1489,1400 -2683,1945 -604,-1166 -1207,-2331 -912,-3186 163,-472 698,-716 1194,-545 449,155 600,446 677,952zm-135 491c226,-213 407,-295 679,-201 301,104 465,420 366,707 -179,518 -903,848 -1627,1179 -366,-707 -732,-1414 -553,-1932 99,-286 424,-434 725,-331 272,95 363,271 410,578z"/>
   <path class="fil0" d="M8420 9016c467,-339 863,-806 1075,-1400 283,-777 155,-1343 -170,-1696 -155,-170 -367,-283 -608,-354 -226,-56 -480,-56 -735,-14 -650,113 -1315,594 -1527,1386 -226,891 85,1640 580,2333 -99,28 -212,42 -326,56 -367,57 -735,29 -1074,-56 -339,-99 -636,-255 -863,-481 -565,-580 -622,-1357 -198,-2022 71,-99 156,-226 213,-367 84,-213 14,-467 -198,-552 -71,-14 -128,-28 -184,-14 -127,28 -255,127 -311,311 -410,1357 -156,2319 410,2899 283,282 636,466 1032,579 382,113 792,127 1216,71 184,-28 368,-57 537,-113 241,297 509,580 778,848 650,693 1272,1343 1357,2022l0 57c71,579 -56,1102 -339,1498 -226,340 -566,580 -1004,707 -325,85 -693,99 -1032,14 -368,-99 -679,-325 -905,-608 -226,-282 -368,-636 -410,-1003 -28,-241 -14,-481 42,-707 170,-608 538,-962 948,-1089 169,-43 339,-57 495,-28 141,28 268,84 381,155 170,142 226,325 226,523 0,198 -56,439 -127,637 -70,198 -28,367 57,466 56,57 113,99 184,113 56,14 127,14 198,-28 113,-42 226,-170 254,-382 99,-735 -127,-1258 -509,-1569 -170,-142 -382,-241 -594,-269 -226,-42 -452,-28 -678,28 -509,156 -990,594 -1188,1344 -71,282 -85,565 -57,848 43,438 212,848 495,1188 269,353 636,608 1089,735 396,99 806,71 1188,14 608,-113 1286,-368 1795,-848 453,-424 764,-1004 792,-1782 28,-1046 -806,-1894 -1654,-2757 -212,-226 -439,-452 -651,-693zm-268 -3110c169,-29 325,-15 466,28 170,42 325,127 439,240 240,255 325,679 84,1315 -183,523 -537,948 -961,1259 -452,-566 -764,-1146 -707,-1796 28,-212 113,-509 283,-749 99,-156 226,-269 396,-297z"/>
   <path class="fil0" d="M15408 9138c66,875 168,1953 295,2980 170,1395 364,2714 582,3386 92,241 352,342 607,342 81,13 174,0 241,-13 93,-25 159,-50 224,-101 235,-152 177,-254 101,-444 -642,-1724 -939,-6822 -998,-7849 -9,-190 -40,-291 -311,-342 -95,-13 -229,-13 -337,-13 -282,0 -513,-63 -502,178 12,570 -306,2155 -621,3829 -198,976 -394,1991 -530,2853 -226,-862 -400,-2029 -518,-3157 -160,-1458 -247,-2815 -284,-3335 -9,-190 -27,-304 -312,-355 -94,-13 -215,-13 -336,-13 -256,0 -487,-63 -504,152 -9,102 -28,279 -31,507 -130,1877 -499,7710 -1979,7672 -94,0 -189,-25 -259,-76 -109,-51 -195,-152 -241,-279 -28,-38 -44,-89 -60,-140l14 0c-21,-164 0,-304 61,-431 73,-164 188,-304 304,-405 143,-115 176,-267 144,-381 -3,-63 -46,-127 -101,-165 -56,-50 -138,-76 -218,-63 -120,13 -251,101 -376,304 -150,241 -218,533 -218,824 9,203 45,406 120,584 89,177 217,342 396,431 124,76 274,114 435,127 1386,38 1938,-3525 2173,-6061 67,596 137,1255 220,1902 165,1280 368,2510 586,3182 79,254 352,355 608,355 80,0 161,0 240,-25 80,-13 159,-51 225,-89 117,-76 206,-203 146,-329 144,-990 394,-2283 634,-3526 143,-710 273,-1394 380,-2016z"/>
  </g>
 </g>
</svg>
