<?xml version="1.0" encoding="UTF-8"?>
<!DOCTYPE svg PUBLIC "-//W3C//DTD SVG 1.1//EN" "http://www.w3.org/Graphics/SVG/1.1/DTD/svg11.dtd">
<!-- Creator: CorelDRAW X7 -->
<svg xmlns="http://www.w3.org/2000/svg" xml:space="preserve" width="210mm" height="210mm" version="1.1" style="shape-rendering:geometricPrecision; text-rendering:geometricPrecision; image-rendering:optimizeQuality; fill-rule:evenodd; clip-rule:evenodd"
viewBox="0 0 21000 21000"
 xmlns:xlink="http://www.w3.org/1999/xlink">
 <defs>
  <style type="text/css">
   <![CDATA[
    .fil0 {fill:#D4AD0C}
    .fil1 {fill:#D4AD0C;fill-rule:nonzero}
   ]]>
  </style>
 </defs>
 <g id="Layer_x0020_1">
  <metadata id="CorelCorpID_0Corel-Layer"/>
  <g id="_2251715208064">
   <path class="fil0" d="M10500 2573c4378,0 7927,3549 7927,7927 0,4378 -3549,7927 -7927,7927 -4378,0 -7927,-3549 -7927,-7927 0,-4378 3549,-7927 7927,-7927zm0 363c4178,0 7564,3386 7564,7564 0,4178 -3386,7564 -7564,7564 -4178,0 -7564,-3386 -7564,-7564 0,-4178 3386,-7564 7564,-7564z"/>
   <g>
    <path class="fil1" d="M8799 1489c-9,-1 -17,-4 -24,-7l24 7zm-3198 3371l0 -3 0 3zm0 2l0 -2 0 2zm16 95c-11,-43 -14,-77 -16,-95l16 95zm361 220c25,14 66,13 105,-1 25,-8 48,-22 67,-41 1,-1 2,-2 3,-3 15,-16 25,-35 30,-57 3,-19 3,-40 -3,-64l-202 166zm132 -351c0,-3 1,-5 2,-7l-2 7zm174 17c50,80 69,154 66,219l-66 -219zm-35 426c-33,28 -71,49 -112,63 -77,27 -161,26 -227,-4l339 -59zm-2574 -2325c-78,0 -135,-15 -159,-20l0 -1c-18,-2 -70,-11 -134,-36 1,2 3,4 5,6 24,20 47,40 69,60 35,32 65,64 92,96 34,-43 77,-77 127,-105zm2698 -429c1,-13 5,-25 11,-36 22,-77 29,-143 29,-194 -281,201 -426,419 -501,603 -2,8 -5,17 -9,24 -40,105 -57,198 -63,269 328,-253 473,-487 533,-666zm197 -143c59,-29 118,-57 178,-84 268,-222 550,-420 842,-593 275,-162 559,-302 851,-420 0,-1 0,-2 1,-3 2,-8 5,-17 9,-25 2,-6 6,-11 9,-17 2,-2 3,-4 4,-6 52,-73 109,-130 166,-187l11 -11c2,-2 4,-3 5,-5l0 0c28,-23 57,-48 95,-78 34,-28 68,-53 101,-76 1,-1 3,-2 5,-3 34,-23 67,-44 100,-63 32,-18 68,-38 105,-58 2,-1 4,-2 6,-3 37,-18 72,-35 107,-50 38,-16 75,-31 111,-45 0,-1 1,-1 2,-1 276,-111 568,-101 852,-91 33,1 66,2 97,3l0 0 0 0c158,6 314,18 466,37 154,19 307,46 459,81 1,0 2,0 3,0 152,35 303,76 451,125 144,48 284,103 418,165 34,15 59,44 71,76 12,33 11,70 -4,105 -12,26 -32,46 -55,60 -24,14 -52,21 -79,19 -147,-11 -290,-18 -429,-20 -141,-2 -282,1 -422,9l0 0c-138,8 -277,21 -416,38 -137,17 -273,38 -406,65 -2,0 -5,1 -7,1 -99,19 -199,47 -299,75 -166,46 -330,92 -509,100l1 1c-68,5 -139,9 -214,11 -73,2 -146,2 -221,-1 -67,1 -130,-5 -194,-10l-36 -3c-2,0 -4,-1 -6,-1 -18,-2 -21,-2 -25,-3 -72,-7 -145,-15 -225,-36l0 0 0 0 0 0 0 0 -2 0c-16,-4 -32,-12 -46,-21 -282,114 -559,251 -827,409 -105,62 -208,127 -310,196 336,-125 681,-230 1034,-314 675,-161 1378,-246 2102,-246 2493,0 4749,1010 6383,2643 1633,1634 2644,3891 2644,6383 0,218 -8,435 -23,649 24,82 136,474 217,1028 7,3 13,8 19,12 13,10 24,21 32,34 1,1 2,3 3,4 68,112 121,227 163,345 41,116 72,235 95,354 0,1 1,2 1,3 22,116 36,233 43,351 8,123 7,247 -1,371 -8,123 -22,247 -44,371 -22,118 -49,234 -85,347 0,2 -1,4 -2,6 -37,117 -81,231 -134,339 -54,113 -120,221 -199,323 -23,30 -57,48 -92,53 -36,4 -73,-5 -103,-28 -16,-12 -28,-28 -37,-45 -9,-16 -15,-34 -16,-52 0,-1 -1,-2 -1,-3l0 -1c0,-1 0,-2 0,-3 -14,-222 -14,-431 -13,-637l0 -47 0 0 0 0c0,-111 2,-220 4,-329 2,-111 5,-218 7,-326 3,-110 6,-220 12,-328 5,-110 13,-221 24,-333l0 0 0 0c11,-112 24,-225 43,-340 19,-116 44,-235 80,-357 1,-2 2,-5 3,-7 7,-21 19,-40 35,-54 -32,-217 -69,-407 -102,-563 -142,1129 -493,2193 -1012,3153 -8,16 -16,32 -24,48 304,796 928,1264 930,1265 36,28 43,79 16,116 -11,14 -25,23 -41,28l1 1c-2,0 -456,154 -853,-205 -13,-12 -26,-24 -38,-36 1,136 -17,286 -72,424 -17,43 -65,63 -108,46 -2,-1 -4,-2 -6,-3l0 1c-1,-1 -239,-115 -308,-463 -16,50 -32,101 -48,151 -33,109 -64,217 -94,327 876,317 573,1002 557,1037 -1,2 -2,4 -3,6 -22,40 -73,55 -113,33 -335,-185 -479,-460 -542,-677 -67,290 -123,582 -169,875 13,44 62,101 127,161 20,19 42,38 65,57 2,1 5,3 7,5 90,73 194,142 282,193 111,64 175,154 208,250 40,120 29,249 -4,343 -45,130 -151,171 -224,183 -55,160 -254,180 -342,181 -14,13 -29,26 -47,38 -98,69 -180,79 -246,57 -70,27 -223,69 -371,3 -71,-31 -115,-107 -142,-195 -89,-11 -263,-52 -355,-208 -15,-25 -27,-53 -36,-83 -31,-99 -31,-224 5,-341 37,-119 111,-231 230,-301 32,-19 68,-35 107,-47 52,-16 103,-30 153,-43 213,-60 386,-108 417,-266 0,-1 1,-2 1,-3 87,-550 208,-1100 371,-1633 42,-134 86,-267 132,-399 -97,137 -198,272 -303,403 -95,226 -227,446 -387,645 47,170 164,782 -425,1171 -38,25 -90,15 -115,-23 -8,-13 -13,-27 -13,-41 -4,-35 -26,-325 87,-656 -158,118 -330,215 -510,283 -123,101 -249,199 -378,293 -9,9 11,10 -1,44 -54,157 -174,506 -424,924 3,9 6,17 8,26 2,11 4,22 4,33l0 0 -1 2c-2,119 -24,231 -58,336 -35,104 -82,200 -135,290 -1,2 -3,4 -4,6 -54,87 -116,170 -183,246 -70,79 -146,151 -227,216 -2,1 -3,2 -5,3 -80,64 -162,120 -243,173 -84,55 -168,107 -253,158 -2,1 -4,2 -6,3 -86,50 -173,97 -263,138 -92,42 -189,78 -292,106 -37,10 -74,4 -104,-13 -31,-17 -55,-47 -65,-84l0 0 0 0c-6,-21 -6,-43 -2,-64 4,-20 13,-39 25,-55l1 -1 0 0 0 0c1,-2 3,-3 4,-5 59,-72 123,-146 189,-220 61,-68 126,-138 190,-207l0 -1 0 0c108,-114 206,-235 303,-354 17,-20 33,-40 49,-60 1,-2 2,-3 3,-4 59,-71 119,-138 179,-202 64,-66 129,-129 197,-191 2,-1 3,-2 5,-4 67,-60 138,-119 216,-176 80,-59 168,-114 269,-165l0 0 1 0c1,-1 1,-1 2,-2 18,-8 36,-13 55,-14 175,-293 284,-552 350,-729 -122,83 -246,164 -372,242 -96,232 -288,504 -667,742 -39,24 -90,12 -114,-26 -4,-7 -7,-14 -10,-21 -4,-15 -31,-109 -14,-253 -59,29 -118,57 -178,84 -268,223 -550,421 -842,593 -275,162 -559,302 -851,420 0,1 0,2 -1,3 0,2 -1,4 -1,6 -2,6 -5,13 -8,19 -4,8 -8,16 -13,23 -1,1 -2,3 -3,4 -51,71 -107,127 -163,183l-11 11c-2,2 -4,4 -5,5l0 0c-28,24 -57,48 -95,78 -34,28 -68,54 -101,76 -1,1 -3,2 -5,3 -34,23 -67,44 -100,63 -32,18 -68,38 -105,59 -2,1 -4,2 -6,2 -37,18 -72,35 -107,50 -38,16 -75,32 -111,46 0,0 -1,0 -2,1 -276,110 -568,100 -852,91 -33,-1 -66,-3 -97,-3l0 0 0 0c-158,-6 -314,-19 -466,-38 -154,-19 -307,-45 -459,-80 -1,-1 -2,-1 -3,-1 -152,-34 -303,-76 -452,-125 -143,-48 -283,-102 -417,-164 -34,-16 -59,-44 -71,-77 -12,-33 -11,-70 4,-104 12,-26 32,-47 55,-61 24,-14 52,-20 79,-18 147,10 290,17 429,19 141,2 282,0 422,-8l0 0c138,-9 277,-22 416,-39 137,-17 273,-38 406,-65 3,0 5,0 7,-1 99,-18 199,-46 299,-74 166,-47 330,-93 509,-101l0 0c67,-6 138,-10 213,-12 73,-2 146,-2 221,1 67,0 131,5 195,10l35 3c2,1 4,1 6,1 17,2 21,2 25,3 72,8 145,15 225,36l1 0 0 0 0 0 0 0 0 0 1 0c16,5 32,12 45,21 283,-114 560,-250 828,-408 105,-63 208,-128 310,-196 -336,124 -681,229 -1034,314 -675,160 -1378,246 -2102,246 -2493,0 -4749,-1011 -6383,-2644 -1633,-1634 -2643,-3890 -2643,-6383 0,-218 7,-434 22,-649 -24,-81 -136,-473 -217,-1028 -7,-3 -13,-7 -19,-12 -14,-10 -26,-23 -35,-38 0,-1 -1,-2 -2,-3 -67,-111 -120,-225 -161,-341 -41,-117 -72,-236 -95,-355 0,-1 -1,-2 -1,-3 -22,-116 -36,-233 -43,-350 -8,-124 -7,-248 1,-372 8,-123 22,-247 44,-371 22,-118 49,-234 85,-347 0,-2 1,-4 2,-6 37,-117 81,-231 134,-339 54,-112 120,-221 199,-323 23,-30 57,-48 92,-53 36,-4 73,5 103,28 16,13 28,28 37,45 9,17 15,35 16,53 0,1 1,2 1,3l0 0c0,1 0,2 0,3 14,222 14,430 13,637l0 47 0 1 0 0c0,110 -2,220 -4,328 -2,111 -5,219 -7,326 -3,111 -6,220 -12,328 -5,110 -13,221 -24,333l0 0 0 0c-11,112 -24,225 -43,340 -19,117 -44,235 -80,357l0 0c-1,2 -2,5 -3,8 -8,21 -20,39 -35,53 32,217 69,407 102,564 142,-1130 493,-2195 1013,-3155 8,-15 16,-31 23,-47 -304,-796 -928,-1263 -930,-1265 -36,-27 -43,-79 -16,-115 11,-14 25,-24 41,-29l-1 0c2,-1 456,-155 853,205 13,11 26,23 38,36 -1,-137 17,-286 72,-425 17,-42 65,-63 108,-46 2,1 4,2 6,3l0 0c1,0 239,114 308,462 16,-50 32,-101 48,-151 33,-108 64,-217 94,-327 -876,-317 -573,-1002 -557,-1036 1,-3 2,-5 3,-7 22,-40 73,-55 113,-33 335,185 479,460 542,677 67,-290 123,-582 169,-875 -13,-44 -62,-101 -127,-161 -20,-19 -42,-38 -65,-56 -2,-2 -5,-4 -7,-6 -90,-73 -194,-141 -282,-192 -111,-64 -175,-155 -208,-251 -40,-120 -29,-249 4,-343 45,-130 151,-170 224,-183 55,-160 254,-180 342,-181 14,-13 29,-26 47,-38 98,-69 180,-79 246,-57 70,-26 223,-68 371,-3 71,32 115,107 142,195 89,11 263,53 355,208 15,25 27,53 36,83 31,99 31,224 -5,341 -37,119 -111,231 -230,301 -32,19 -68,35 -107,47 -52,16 -103,30 -153,44 -212,59 -385,107 -417,263 0,2 0,3 -1,5 -87,551 -207,1101 -371,1633 -42,134 -86,267 -132,399 97,-137 198,-272 303,-403 95,-226 227,-446 387,-645 -47,-170 -164,-781 425,-1171 38,-25 90,-15 115,23 8,13 13,27 13,42 4,35 26,324 -87,655 159,-118 330,-215 510,-283 122,-100 246,-196 373,-288 0,-1 1,-2 2,-2 16,-12 -8,-10 4,-47 54,-157 175,-506 424,-924 -3,-8 -6,-17 -8,-26 -3,-11 -4,-22 -4,-34l0 0 0 0c3,-120 25,-232 59,-336 35,-105 82,-201 135,-291 1,-2 3,-4 4,-6 54,-87 116,-169 183,-246 70,-79 146,-151 227,-216 2,-1 3,-2 5,-3 80,-63 162,-120 243,-173 84,-55 168,-107 253,-157 2,-2 4,-3 6,-4 86,-50 173,-97 263,-138 92,-42 189,-78 292,-106l0 0 0 0c36,-10 73,-4 104,13l0 0 0 0c31,18 55,47 65,84l0 0 0 0c6,21 6,43 2,64 -5,21 -14,40 -27,57 -1,1 -2,3 -3,4 -59,72 -123,146 -189,220 -61,68 -126,138 -190,207l0 1 0 0c-108,114 -206,235 -304,355 -16,20 -32,40 -48,60 -1,1 -2,2 -3,3 -59,71 -119,138 -179,202 -64,66 -129,130 -197,191 -1,1 -3,2 -5,4 -67,60 -138,119 -216,176 -80,59 -168,114 -269,165 -1,1 -2,1 -3,2l0 0 0 0 0 0c-18,9 -36,13 -55,14 -175,294 -284,552 -350,730 122,-84 246,-165 372,-243 96,-232 288,-504 667,-741 39,-25 90,-13 114,26 4,6 7,13 10,21 4,15 31,108 14,252zm7908 16048c64,-181 196,-400 460,-632 -21,3 -41,6 -62,9 -1,0 -2,0 -4,0 -3,1 -6,1 -10,2 -92,12 -184,24 -276,37 -92,12 -183,24 -293,39 -1,0 -1,0 -2,0 -265,36 -531,79 -789,141 -232,56 -460,127 -676,222 7,30 11,61 11,92 0,103 -42,197 -109,264 -68,67 -161,109 -264,109 -103,0 -196,-42 -263,-109 -68,-67 -110,-161 -110,-264 0,-103 42,-196 110,-263 67,-68 160,-109 263,-109 103,0 196,41 264,109 7,7 15,16 22,24 63,-28 127,-54 191,-78 -23,5 -46,8 -71,8 -84,0 -161,-34 -216,-89 -55,-56 -89,-132 -89,-216 0,-84 34,-161 89,-216 55,-55 132,-89 216,-89 84,0 161,34 216,89 49,49 82,116 88,189 446,66 1011,32 1033,31 20,-3 41,-6 61,-8 1,-1 2,-1 3,-1 44,-6 94,-13 146,-20 -379,-193 -469,-578 -470,-580l0 0c-2,-10 -3,-20 -1,-31 6,-45 47,-77 93,-71 623,85 821,453 879,615 94,-14 189,-28 283,-44 -7,-4 -15,-8 -22,-13 -281,-175 -214,-505 -174,-634 -107,-8 -166,-76 -197,-130 -145,-5 -217,-157 -243,-231 -14,-7 -27,-16 -41,-26 -84,-62 -117,-127 -118,-188 -42,-53 -117,-167 -104,-305 6,-68 54,-125 117,-172 -15,-79 -25,-230 76,-347 16,-19 36,-37 59,-54 73,-52 177,-88 284,-90 108,-3 222,27 314,106 24,22 48,47 69,76 26,36 52,74 77,111 102,150 185,272 309,261 423,-222 841,-480 1237,-767 -196,6 -509,43 -893,179 1,10 1,20 1,30 0,82 -33,156 -87,210 -53,53 -128,87 -209,87 -82,0 -156,-34 -210,-87 -54,-54 -87,-128 -87,-210 0,-82 33,-156 87,-209 54,-54 128,-87 210,-87 81,0 156,33 209,87 9,8 16,17 24,26 600,-214 1045,-198 1170,-187 118,-91 234,-184 346,-280 4,-4 7,-7 11,-9 35,-30 70,-61 105,-91 -405,104 -740,-57 -741,-58l0 0c-10,-5 -19,-11 -26,-19 -31,-34 -29,-86 5,-117 402,-368 1034,-161 1112,-133 110,-109 216,-220 318,-334 35,-48 76,-96 124,-143 22,-26 44,-53 66,-79 -375,175 -664,-122 -665,-123l0 0c-1,-1 -2,-3 -4,-4 -29,-35 -26,-87 9,-117 448,-388 951,-173 965,-167 1,1 2,1 3,1 165,-241 308,-489 423,-742 164,-674 251,-1377 251,-2101 0,-2447 -992,-4662 -2596,-6265 -1603,-1604 -3818,-2596 -6265,-2596 -693,0 -1368,80 -2015,231 20,-1 40,-2 60,-3 389,-13 779,14 1167,73 7,-6 13,-11 21,-16 18,-12 38,-19 58,-21 2,-1 3,-1 4,-1 165,-19 328,-16 492,-13l22 1 1 0 0 0c46,1 88,3 129,6 47,2 88,5 127,8 1,0 2,0 3,0l0 0 1 0 237 28c160,19 318,40 477,64 157,23 317,50 480,81l0 0 0 0c160,31 323,66 487,108 163,42 326,92 487,152l0 0 0 0c161,61 321,131 473,215 153,84 300,182 434,297l0 0c2,1 3,3 5,4l0 0 0 0c1,1 1,2 2,2 25,24 38,56 41,88 3,35 -8,71 -33,100l0 0c-1,2 -3,3 -4,5l0 0 0 0c-1,0 -1,1 -2,2 -14,15 -32,26 -50,33l0 0c-20,7 -41,9 -62,7 -3,0 -5,0 -8,-1l-1 0c-2,0 -3,0 -4,-1 -103,-16 -169,-26 -234,-37 -241,-38 -473,-75 -713,-109l0 0 0 0c-89,-13 -156,-22 -223,-31 -241,-34 -484,-68 -726,-110 0,0 -1,0 -2,0 -161,-27 -323,-58 -483,-96 -163,-38 -326,-84 -488,-140 -1,-1 -2,-1 -3,-1 -63,-22 -120,-44 -177,-66l-58 -23c-1,-1 -3,-1 -4,-2 -38,-14 -75,-29 -108,-42 -41,-16 -79,-32 -113,-46 -2,-1 -3,-2 -4,-2l-29 -13c-138,-62 -278,-124 -419,-208 -1,0 -2,-1 -3,-2l-5 -2c-2,-1 -4,-3 -6,-4 -19,-13 -35,-31 -45,-50 -379,-59 -758,-85 -1136,-72 -407,14 -813,74 -1216,190 -278,106 -549,226 -812,358 -64,181 -196,401 -460,632 21,-3 41,-6 62,-8 1,-1 2,-1 4,-1 3,-1 6,-1 10,-1 92,-13 184,-25 276,-37 92,-13 183,-25 293,-40 1,0 1,0 2,0 265,-36 531,-79 789,-141 232,-55 460,-126 676,-222 -7,-30 -11,-60 -11,-92 0,-103 42,-196 109,-264 68,-67 161,-109 264,-109 103,0 196,42 263,109 68,68 110,161 110,264 0,103 -42,196 -110,263 -67,68 -160,110 -263,110 -103,0 -196,-42 -264,-110 -7,-7 -15,-15 -22,-24 -63,28 -127,54 -191,78 23,-5 47,-8 71,-8 84,0 161,34 216,90 55,55 89,131 89,215 0,85 -34,161 -89,216 -55,55 -132,90 -216,90 -84,0 -161,-35 -216,-90 -49,-49 -82,-115 -88,-189 -447,-65 -1012,-32 -1033,-31 -20,3 -41,6 -61,9 -1,0 -2,0 -3,0 -44,6 -94,13 -146,20 379,193 469,579 470,580l0 0c2,10 3,20 1,31 -6,45 -47,77 -93,71 -623,-85 -821,-452 -879,-615 -94,14 -189,28 -283,44 7,4 15,8 22,13 281,176 214,505 174,634 107,8 166,76 197,130 145,5 217,157 243,231 14,8 27,16 41,26 84,62 117,127 118,188 42,53 117,167 104,305 -6,68 -54,125 -117,172 15,79 25,230 -76,347 -16,19 -36,37 -59,54 -73,53 -177,88 -284,91 -108,2 -222,-28 -314,-107 -24,-21 -48,-46 -69,-75 -26,-37 -52,-75 -77,-112 -102,-150 -185,-272 -309,-261 -423,222 -841,480 -1237,768 196,-7 509,-44 893,-180 -1,-10 -1,-20 -1,-30 0,-82 33,-156 87,-210 53,-53 128,-86 209,-86 82,0 156,33 210,86l0 1 0 -1c54,54 87,128 87,210 0,82 -33,156 -87,210 -54,53 -128,86 -210,86 -81,0 -156,-33 -209,-86 -2,-2 -4,-4 -5,-6 -6,-6 -13,-14 -18,-21 -601,214 -1046,198 -1171,187 -118,91 -234,185 -346,280 -4,4 -7,7 -11,10 -35,30 -70,60 -105,90 405,-104 740,58 741,58l0 0c10,5 19,11 26,19 31,34 29,86 -5,117 -402,368 -1034,161 -1112,133 -110,109 -216,221 -318,334 -35,48 -76,96 -124,143 -22,27 -44,53 -66,80 375,-175 664,121 665,122l0 0c1,2 2,3 4,5 29,34 26,86 -9,116 -448,388 -951,173 -965,167 -1,0 -2,-1 -3,-1 -165,241 -308,489 -423,742 -164,674 -251,1377 -251,2101 0,2447 992,4662 2596,6266 1603,1603 3818,2595 6265,2595 693,0 1368,-80 2015,-230 -20,1 -40,1 -60,2 -389,14 -779,-13 -1167,-73 -7,6 -13,11 -21,16 -18,12 -38,19 -58,22 -2,0 -3,0 -4,0 -165,19 -328,16 -492,13l-22 0 -1 0 0 0c-46,-2 -88,-4 -129,-6 -46,-3 -87,-6 -125,-8 -2,-1 -4,-1 -6,-1l-193 -23c-15,-1 -30,-3 -45,-5 0,0 -1,0 -2,0 -158,-19 -316,-40 -474,-63 -157,-24 -315,-51 -477,-81 -1,0 -2,-1 -3,-1 -160,-30 -323,-65 -487,-108 -161,-42 -323,-91 -483,-150 -1,0 -3,-1 -4,-1 -161,-62 -321,-132 -473,-216 -152,-83 -297,-180 -430,-294 -2,-1 -4,-2 -5,-4l0 0 0 0c-28,-25 -44,-58 -47,-93l0 0 0 0c-2,-32 7,-66 28,-94 2,-2 4,-5 6,-7l0 0 0 0c16,-18 35,-31 56,-38 23,-8 47,-11 69,-7l0 0 1 0 1 0c1,0 3,1 5,1 101,16 168,27 233,37 239,38 470,75 709,109 1,0 2,0 3,0 89,13 155,22 222,31 241,34 484,68 727,110l0 0c161,27 324,58 485,96 163,39 326,84 488,141l0 0c64,21 122,44 179,66l59 23 0 0c39,16 78,30 112,44 41,16 79,32 113,46l0 0 1 1 31 14c139,62 279,124 420,208 1,0 2,1 3,2l0 0c5,2 9,5 14,8 18,13 32,30 42,49 379,58 758,84 1136,71 407,-14 813,-74 1217,-190 277,-106 548,-226 811,-358zm149 66c-1,12 -5,24 -11,35 -22,77 -29,143 -29,194 281,-201 427,-419 501,-604 2,-8 5,-15 9,-23 40,-105 57,-198 63,-269 -328,254 -473,488 -533,667zm-8935 -15430c-142,92 -281,187 -417,287 -1,1 -3,2 -4,3 -1,1 -2,2 -4,2 -6,5 -12,10 -19,15 13,-4 29,-7 46,-10 125,-31 251,-56 378,-79 -1,-52 3,-128 20,-218zm-810 591c-480,395 -919,839 -1307,1325 -2,3 -4,5 -6,7 -299,375 -569,775 -805,1196 -4,8 -8,16 -12,23l0 1c-4,11 -9,20 -16,28 -255,462 -470,950 -640,1457 133,-205 283,-405 446,-600 -2,-128 13,-602 282,-930 29,-36 81,-41 117,-12 14,12 23,27 27,44 9,28 54,196 20,412 42,-42 85,-84 128,-125 114,-108 231,-214 351,-317 46,-108 284,-631 722,-1013 -15,-38 -23,-79 -23,-121 0,-90 36,-171 95,-230 59,-59 140,-95 229,-95 90,0 171,36 230,95 59,59 95,140 95,230 0,86 -33,164 -88,222 198,-121 398,-234 600,-339 4,-3 9,-5 14,-6 30,-21 62,-75 92,-142 10,-22 19,-45 28,-69 1,-1 1,-3 2,-4 34,-93 61,-195 78,-281 22,-110 79,-189 150,-243 38,-29 79,-50 120,-65 -187,-405 -509,-528 -589,-553 -115,30 -228,65 -340,105zm-1790 -1138c0,-5 1,-10 2,-15 5,-44 16,-84 28,-117 -58,-34 -102,-80 -119,-160 -24,10 -49,29 -61,64 -23,65 -31,154 -3,236 21,61 62,119 134,160 14,9 29,18 44,27 -7,-29 -12,-57 -16,-81 -9,-38 -11,-76 -9,-112l0 -2zm165 -3c1,2 1,4 1,6 0,0 -1,29 4,74 6,17 15,33 28,47 65,68 142,100 193,115 17,-48 29,-122 -17,-186 -53,-61 -126,-92 -193,-118 -7,18 -13,40 -16,62zm934 -373c13,124 6,231 5,232 0,3 0,6 -1,9 20,46 29,96 29,146 1,97 -34,192 -96,250 -5,9 -10,17 -16,26 15,-5 31,-9 46,-14 26,-8 50,-19 72,-32 79,-47 130,-124 156,-207 26,-85 27,-174 5,-243 -5,-18 -12,-34 -20,-48 -43,-72 -119,-105 -180,-119zm-591 332c79,110 70,229 46,312 3,0 6,0 9,1 28,-28 50,-58 67,-91 28,-54 40,-113 36,-169 -4,-54 -23,-104 -55,-142 -8,-9 -17,-17 -26,-25 -4,-3 -8,-6 -12,-9 -8,-6 -17,-12 -27,-17 -88,-46 -146,-34 -178,-17 17,35 32,58 33,60 35,23 69,52 101,89 2,2 4,5 6,8zm-83 459l0 0c1,0 2,0 0,0zm367 -193c40,-18 83,-43 126,-77 1,-1 3,-2 4,-3 29,-25 45,-75 45,-130 0,-33 -7,-66 -22,-96 -13,-26 -33,-49 -60,-65 -26,-15 -60,-24 -103,-23 28,51 44,109 49,169 5,74 -8,152 -39,225zm-148 -540c123,-32 222,-23 298,12 -4,-115 -21,-258 -85,-287 -59,-26 -121,-24 -170,-15 5,11 9,22 12,33 25,86 7,182 -36,217 -12,9 -25,18 -38,29 6,3 13,7 19,11zm-231 -63l1 -1c0,0 94,-66 146,-106 4,-3 -12,-15 -20,-40 -4,-14 -9,-26 -17,-37 -3,-5 -7,-10 -12,-13 -2,-1 -5,-3 -7,-5 -19,-8 -51,-1 -102,35 -71,49 -88,120 -82,188 26,-11 57,-19 93,-21zm-239 135c-19,-67 -30,-145 -14,-222 -50,14 -94,44 -91,106 2,61 46,91 105,116zm2530 2841c43,26 95,50 148,59 12,2 22,6 32,12 0,1 1,2 2,2 25,18 39,49 34,82 -5,26 -21,47 -43,59 -15,8 -33,11 -51,9 -1,-1 -1,-1 -2,-1 -3,0 -5,-1 -8,-1l2 3 4 4c12,18 27,34 43,47 57,49 130,68 202,66 73,-1 143,-25 191,-59 12,-9 22,-18 30,-28 40,-46 48,-104 46,-152 -92,41 -172,61 -172,62 -2,0 -3,0 -5,1 -42,8 -85,-18 -96,-60 -12,-44 15,-90 59,-101 0,0 66,-18 138,-46 85,-32 179,-79 184,-130 4,-45 -9,-87 -26,-121 -4,3 -9,6 -13,9 -66,47 -155,59 -199,31l0 -1 0 1c-4,-3 -8,-6 -12,-8l-6 -5c-8,37 -22,70 -40,101 -16,26 -36,51 -58,72 -33,31 -71,56 -113,73 -17,8 -35,14 -53,18 -56,15 -116,19 -176,10 -14,-2 -28,-5 -42,-8zm33 -713c6,-1 12,-3 18,-3 32,-7 63,-9 90,-9 12,-51 36,-95 88,-130 -13,-10 -29,-17 -50,-18 -56,0 -127,17 -183,60 -42,32 -76,79 -89,145 -1,5 -2,10 -3,16 13,-8 26,-15 38,-21 27,-18 56,-29 84,-37 5,-2 7,-3 7,-3zm57 156c-2,1 -5,2 -7,2 0,1 -23,7 -56,24 -10,8 -19,17 -26,30 -33,62 -39,125 -39,169 40,-2 91,-14 124,-60 30,-53 37,-113 40,-169 -12,1 -24,2 -36,4zm-291 252c-4,9 -7,17 -11,25 -14,31 -29,61 -45,88 28,12 54,27 78,45 6,4 11,9 16,13 2,-11 5,-21 11,-31 1,-2 2,-3 3,-5 2,-3 5,-6 7,-8 -6,-3 -13,-6 -18,-10 -3,-2 -6,-5 -9,-7l0 0 -1 -1 -1 -1 0 0 0 0c-8,-8 -15,-19 -19,-30l0 0 0 0 0 -1 -1 0 0 -1 0 -1c-1,-3 -2,-6 -3,-10l0 0 0 0 0 0 0 0 0 0 0 0 0 -1 0 -1 0 -2 0 0 -1 -3c-2,-11 -5,-31 -6,-58zm429 -2c-1,3 -3,5 -5,8 -59,86 -144,118 -216,128 20,7 39,12 59,15 50,8 99,2 141,-16 39,-17 72,-43 93,-78 5,-9 10,-18 14,-28 0,-2 1,-5 2,-7 2,-8 5,-18 6,-27 11,-69 -5,-108 -23,-130 -14,15 -24,27 -28,32 -9,33 -22,68 -43,103zm207 -229c12,16 23,35 33,57 14,10 82,60 123,87l0 0c6,4 -2,-17 13,-27 8,-6 16,-13 22,-21 2,-3 4,-6 5,-9 1,-2 1,-5 2,-7 0,-13 -13,-33 -51,-60 -49,-37 -101,-36 -147,-20zm-137 -116c40,-25 87,-47 138,-57 -22,-23 -49,-37 -84,-24 -35,13 -48,43 -54,81zm-1880 -1151c-281,258 -285,585 -257,774 202,-279 249,-591 257,-774zm4468 -485c38,-37 61,-89 61,-146 0,-57 -23,-109 -61,-147 -37,-37 -89,-60 -146,-60 -57,0 -109,23 -147,60 -37,38 -60,90 -60,147 0,57 23,109 60,146 38,38 90,61 147,61 57,0 109,-23 146,-61zm-825 332c15,-29 34,-56 57,-79 23,-24 50,-43 80,-58 -121,43 -243,79 -368,111 79,7 156,15 231,26zm372 235c25,-25 40,-60 40,-99 0,-38 -15,-73 -40,-98 -26,-25 -61,-41 -99,-41 -39,0 -73,16 -99,41 -25,25 -40,60 -40,98 0,39 15,74 40,99 26,25 60,41 99,41 39,0 73,-16 99,-41zm-1968 -5c60,128 212,335 582,423 -72,-145 -237,-369 -582,-423zm-746 125c113,73 242,185 352,352 3,-99 -23,-212 -134,-282 -71,-44 -147,-64 -218,-70zm-2722 1919c1,5 2,9 3,14 14,66 23,132 26,196 13,-31 25,-62 38,-92 128,-475 -6,-706 -103,-804 -58,240 -12,497 17,617 7,23 13,45 18,68l1 1zm-156 55c-1,-2 -2,-4 -2,-6 0,0 -10,-32 -23,-85 -37,-111 -98,-218 -195,-306 -189,-171 -391,-201 -527,-196 187,172 523,523 758,1016 16,-121 21,-273 -11,-423zm1948 -144c-30,9 -62,14 -95,14 -76,0 -147,-27 -202,-71 -222,196 -388,430 -500,618 24,-19 49,-38 73,-57 3,-3 7,-5 10,-8 231,-176 470,-342 714,-496zm18 -199c29,-29 46,-68 46,-112 0,-44 -17,-84 -46,-113 -29,-28 -69,-46 -113,-46 -43,0 -83,18 -112,46 -29,29 -47,69 -47,113 0,32 10,63 27,88l0 0c2,3 4,5 6,8 4,6 9,11 14,16 29,29 69,47 112,47 44,0 84,-18 113,-47zm834 572c23,-23 38,-56 38,-92 0,-36 -15,-69 -38,-92l0 -1c-24,-23 -56,-38 -93,-38 -36,0 -68,15 -92,39 -24,23 -38,56 -38,92 0,15 2,29 7,42 2,4 3,7 4,11 1,1 2,3 2,5 6,11 13,22 22,31 1,1 2,2 3,3 24,24 56,39 92,39 36,0 69,-15 93,-39zm-2078 876c171,35 431,57 647,-58 -147,-37 -390,-62 -647,58zm-523 -138c-68,144 -101,297 -116,419 91,-152 115,-303 116,-419zm341 -2121c-19,-168 -98,-478 -412,-691 -38,158 -51,488 412,691zm-680 3217c134,29 366,42 595,-112 -113,-68 -337,-142 -595,112zm3261 -5402c1,0 2,1 4,2 1,1 3,2 5,3 76,-41 143,-84 206,-130 72,-53 139,-109 203,-166 2,-2 3,-3 4,-4 66,-60 128,-120 188,-182 60,-63 117,-128 172,-194 1,0 1,-1 2,-2 16,-20 32,-39 48,-59 100,-123 201,-247 311,-364l0 0c61,-66 123,-133 188,-205 41,-47 83,-95 127,-146 -62,21 -122,45 -180,71 -86,39 -168,83 -247,130 -2,1 -3,1 -5,2 -83,50 -166,101 -247,154 -81,53 -159,107 -232,165 -1,1 -2,2 -4,3 -74,59 -143,125 -206,196 -61,69 -117,144 -167,223 0,1 -1,2 -1,3 -49,82 -91,168 -121,258 -25,76 -42,157 -48,242zm-4282 3984c-53,75 -98,154 -138,236 -51,104 -92,210 -126,317 0,2 -1,3 -1,5 -34,108 -60,217 -80,327 -21,116 -34,234 -42,353 -7,117 -8,234 -1,351 6,110 20,220 41,329 0,0 0,1 0,2 23,113 51,223 89,331 32,90 71,178 119,264 26,-96 45,-189 60,-281 18,-111 31,-221 42,-331l0 0c11,-108 18,-216 23,-324 6,-111 9,-218 12,-324 2,-110 5,-219 7,-325 2,-108 3,-217 4,-326l0 -47c0,-180 1,-362 -9,-557zm9077 -4053c-45,-3 -87,-6 -124,-8 -44,-3 -85,-5 -124,-6l0 0 -20 -1c-130,-2 -259,-4 -387,5 110,61 222,111 334,160l28 13c0,0 1,0 2,1 40,17 76,31 109,45 39,15 73,28 106,41 2,1 3,1 5,2 38,14 48,18 58,22 58,23 117,46 170,64 1,0 3,1 5,2 154,53 312,97 470,135 159,37 317,67 473,94 1,0 2,0 3,0 245,42 483,76 720,109 83,11 165,23 224,31l0 0c234,33 471,71 715,110 48,8 95,15 138,22 -103,-80 -213,-150 -327,-213 -145,-80 -297,-147 -451,-206l0 0c-155,-57 -312,-105 -471,-146 -157,-41 -316,-75 -476,-106l0 0c-157,-29 -315,-56 -473,-80 -158,-23 -315,-44 -471,-62l-236 -28zm-1928 -784c1,2 2,4 3,6 1,3 2,5 3,8 55,12 108,17 161,23l25 3 1 0c22,2 29,2 37,3 63,5 126,10 180,10 1,0 3,0 5,0 72,3 143,3 212,1 65,-2 134,-6 204,-12l0 1c1,0 2,-1 3,-1 159,-6 316,-50 475,-95 102,-28 204,-57 313,-78 2,0 3,0 5,-1 138,-27 278,-49 418,-67 139,-17 281,-30 426,-39l0 0 0 0c143,-8 287,-10 433,-8 92,1 184,4 274,9 -82,-34 -165,-64 -248,-92 -142,-47 -288,-87 -436,-121 -1,0 -3,0 -4,0 -144,-33 -292,-59 -442,-78 -151,-19 -302,-31 -452,-36l0 0c-33,-1 -65,-2 -96,-3 -267,-9 -542,-19 -786,79 -1,1 -2,1 -3,2 -37,14 -72,28 -105,43 -35,15 -69,31 -100,46 -32,18 -65,35 -101,56 -32,19 -62,38 -91,57 -1,1 -2,2 -4,3 -33,22 -63,45 -91,68 -24,19 -56,46 -89,74l-9 8c-42,42 -83,84 -121,131zm3628 18561c42,-42 84,-84 122,-131 -1,-2 -2,-4 -3,-6 -1,-2 -2,-5 -3,-8 -55,-11 -108,-17 -161,-23l-25 -2 -1 -1c-23,-1 -29,-2 -36,-2 -63,-6 -126,-11 -181,-11 -1,0 -3,0 -5,0 -72,-3 -143,-3 -212,-1 -65,2 -134,6 -204,12l0 0c-1,0 -2,0 -3,0 -159,6 -316,50 -475,95 -102,29 -204,57 -313,78 -2,0 -3,1 -5,1 -138,27 -278,49 -418,67 -139,17 -281,30 -426,39l0 0 0 0c-143,8 -287,10 -433,8 -92,-1 -184,-4 -274,-9 82,34 165,64 248,92 142,47 288,87 436,121 1,0 3,0 4,0 144,34 292,59 442,78 151,19 302,31 452,36l0 0c33,1 65,2 96,4 267,8 542,18 786,-80 1,-1 2,-1 3,-1 37,-15 72,-29 105,-44 35,-15 69,-30 100,-46 32,-17 65,-35 101,-56 32,-19 62,-38 91,-57 1,-1 2,-2 4,-3 33,-22 63,-45 91,-68 24,-19 56,-46 89,-73l8 -9zm-1997 -937c273,31 488,41 643,30 64,-5 117,-12 157,-23 -96,-50 -193,-93 -289,-135l-29 -13 0 0c-40,-18 -76,-32 -109,-45 -40,-16 -76,-30 -110,-43l-1 -1 0 1c-38,-15 -48,-19 -59,-23 -59,-24 -119,-47 -172,-65l-2 0 0 0c-154,-54 -312,-98 -470,-135 -160,-38 -319,-68 -476,-95l0 0 0 0c-245,-42 -484,-75 -722,-109 -82,-11 -163,-23 -222,-31 -1,0 -2,0 -3,-1 -232,-32 -468,-70 -712,-109 -47,-7 -95,-15 -138,-22 103,80 213,150 327,213 145,80 297,148 451,206 1,0 2,1 4,1 153,57 310,105 467,145 157,41 316,75 476,106 1,0 2,0 3,0 156,30 313,56 470,80 157,23 313,44 469,62 1,0 2,0 3,1l44 5zm9268 -4031c53,-75 98,-154 138,-236 51,-104 92,-210 126,-317 0,-1 1,-3 1,-5 34,-108 60,-217 80,-327 21,-115 34,-233 42,-352 7,-118 8,-235 1,-351 -6,-111 -20,-220 -41,-329 0,-1 0,-2 0,-3 -23,-112 -51,-223 -89,-331 -32,-90 -71,-178 -119,-263 -26,95 -45,189 -60,281 -18,111 -31,221 -42,330l0 0c-11,108 -18,216 -23,324 -6,111 -9,218 -12,324 -2,110 -5,219 -7,325 -2,109 -3,217 -4,326l0 47c0,180 -1,362 9,557zm-5740 5431c62,-20 122,-44 180,-71 86,-39 168,-83 248,-129 1,-1 2,-2 4,-3 83,-50 166,-101 247,-154 81,-53 159,-107 232,-164 1,-2 2,-3 4,-4 74,-59 143,-125 206,-195 61,-70 117,-145 167,-224 0,-1 1,-2 1,-3 49,-82 91,-168 121,-258 25,-76 42,-156 48,-241 -1,-1 -2,-2 -4,-3 -1,-1 -3,-2 -5,-3 -76,41 -143,85 -206,130 -72,53 -139,109 -203,167 -2,1 -3,2 -4,4 -66,59 -128,119 -188,181 -60,64 -117,128 -172,194 -1,1 -1,1 -2,2 -16,20 -32,40 -49,60 -99,122 -200,247 -310,364l0 -1c-62,66 -123,133 -188,206 -41,46 -83,94 -127,145zm1875 -4208c-30,21 -62,75 -92,143 -10,21 -19,44 -28,68 -1,2 -1,3 -2,5 -34,92 -61,195 -78,280 -22,110 -79,189 -150,243 -38,29 -79,50 -120,65 187,405 509,528 589,554 115,-31 228,-66 340,-106 480,-395 919,-839 1307,-1325 2,-2 4,-5 6,-7 299,-375 569,-775 805,-1196 4,-8 8,-15 12,-23l0 -1c4,-11 10,-20 16,-28 255,-462 470,-949 640,-1457 -133,205 -283,406 -446,600 2,128 -13,602 -282,931 -29,35 -81,40 -117,11 -14,-11 -23,-27 -27,-43 -9,-29 -54,-197 -20,-413 -42,42 -85,84 -128,125 -114,109 -231,214 -351,317 -46,108 -284,631 -722,1014 15,37 23,78 23,120 0,90 -36,171 -95,230 -59,59 -140,95 -229,95 -90,0 -171,-36 -230,-95 -59,-59 -95,-140 -95,-230 0,-86 33,-164 88,-222 -198,121 -398,234 -600,339 -4,3 -9,5 -14,6zm1553 -995c-24,19 -49,38 -74,57 -3,3 -6,5 -9,8 -231,176 -470,342 -714,497 30,-9 62,-14 95,-14 76,0 147,26 202,71 222,-196 388,-431 500,-619zm966 263c-13,30 -25,61 -38,91 -128,475 6,706 103,804 58,-240 11,-498 -17,-618 -7,-22 -13,-44 -19,-67l0 -1c-1,-4 -2,-9 -3,-14 -14,-66 -23,-132 -26,-195zm-2472 2279c-125,30 -251,55 -378,78 1,53 -3,128 -20,218 151,-97 299,-200 444,-306 -13,3 -29,6 -46,10zm-2700 341c121,-43 243,-79 368,-111 -79,-6 -156,-15 -231,-26 -15,30 -34,57 -57,80 -23,23 -50,42 -80,57zm5498 -4529c-135,-29 -367,-42 -596,112 113,68 337,142 596,-112zm-681 3217c19,168 98,478 412,692 38,-159 51,-489 -412,-692zm341 -2121c68,-144 101,-296 116,-419 -91,152 -115,303 -116,419zm-523 -138c-171,-35 -431,-57 -647,59 147,36 390,61 647,-59zm-999 1473l0 -1c-2,-2 -4,-5 -6,-8 -4,-6 -9,-11 -14,-16 -29,-29 -68,-47 -112,-47 -44,0 -84,18 -113,47 -29,29 -46,68 -46,112 0,44 17,84 46,113 29,29 69,46 113,46 43,0 83,-17 112,-46 29,-29 47,-69 47,-113 0,-32 -10,-62 -27,-87zm-863 -547c-2,-4 -3,-7 -4,-10 -1,-2 -2,-4 -2,-5 -6,-13 -15,-25 -25,-35 -24,-24 -56,-38 -92,-38 -36,0 -69,14 -93,38 -23,24 -38,56 -38,92 0,36 15,69 38,93 24,23 57,38 93,38 36,0 68,-15 92,-38 24,-24 38,-57 38,-93 0,-15 -2,-29 -7,-42zm2584 179c1,2 2,4 2,6 0,0 10,32 23,86 37,110 98,217 195,305 189,171 391,201 527,196 -187,-171 -523,-522 -758,-1016 -16,121 -21,273 11,423zm-2878 1974c-113,-73 -242,-185 -352,-352 -3,100 23,212 134,282 71,44 147,64 218,70zm-746 125c-60,-128 -212,-334 -582,-423 72,145 237,369 582,423zm-1968 -5c-25,25 -40,60 -40,99 0,38 15,73 40,98 26,26 61,41 99,41 39,0 73,-15 99,-41 25,-25 40,-60 40,-98 0,-39 -15,-74 -40,-99 -26,-25 -60,-41 -99,-41 -38,0 -73,16 -99,41zm-453 567c-38,37 -61,89 -61,146 0,58 23,109 61,147 37,37 89,60 146,60 57,0 109,-23 147,-60 37,-38 60,-89 60,-147 0,-57 -23,-109 -60,-146 -38,-37 -90,-61 -147,-61 -57,0 -109,24 -146,61zm4468 -485c281,-258 285,-585 257,-773 -202,278 -249,590 -257,773zm-2018 -1094c22,23 49,38 84,24 35,-13 48,-43 54,-81 -40,26 -87,47 -138,57zm165 -299c9,-33 22,-68 42,-102 2,-3 4,-6 6,-9 59,-86 144,-118 216,-127 -20,-8 -40,-13 -59,-16 -50,-8 -99,-1 -141,16 -39,17 -72,44 -93,78 -5,9 -10,18 -13,28 -1,3 -2,5 -3,7 -2,9 -5,18 -6,27 -11,69 5,108 23,130 14,-15 24,-27 28,-32zm185 -18c-30,53 -37,113 -40,169 12,-1 24,-2 36,-4 3,-1 5,-2 7,-2 0,0 23,-7 56,-23 10,-8 19,-18 26,-31 33,-62 39,-125 39,-169 -40,2 -91,14 -124,60zm-55 333c-12,51 -36,95 -88,130 13,10 29,18 50,18 56,0 127,-17 183,-60 42,-32 76,-79 89,-145 1,-5 2,-10 3,-15 -13,7 -26,14 -38,21 -27,17 -55,29 -84,36 -5,2 -7,3 -7,3 -6,2 -12,3 -18,3 -32,7 -63,9 -90,9zm37 -738c-20,-19 -44,-37 -71,-55 -2,-2 -5,-3 -7,-5 -25,-14 -66,-13 -105,1 -25,9 -48,23 -67,41 -16,16 -28,36 -33,60 -3,19 -3,40 3,64 33,-31 71,-55 113,-73 52,-22 108,-33 167,-33zm-384 275c-50,-81 -69,-155 -66,-220 -85,32 -179,79 -184,130 -4,46 9,88 26,122 4,-4 9,-7 13,-10 66,-47 155,-59 199,-30 1,1 3,2 4,3 3,1 6,3 8,5zm35 -427c33,-28 72,-49 112,-63 77,-26 161,-26 227,4l-4 -4c-12,-18 -27,-33 -43,-47 -57,-49 -130,-68 -202,-66 -73,2 -143,25 -191,60 -12,8 -22,17 -30,27 -40,46 -48,104 -46,152 92,-41 172,-61 172,-61 2,-1 4,-1 5,-2zm632 312c11,45 14,81 16,97l0 3c2,11 5,31 6,58 4,-9 7,-17 11,-25 14,-31 29,-61 45,-88 -28,-11 -54,-27 -78,-45zm-647 333c-14,-11 -79,-59 -118,-85 -2,-1 -3,-2 -5,-3 -7,-4 2,17 -13,27 -8,6 -16,13 -22,21 -2,3 -4,6 -5,9 -1,2 -1,5 -2,7 0,14 13,33 51,61 49,36 101,36 147,19 -12,-16 -23,-35 -33,-56zm3013 2583c49,-14 93,-44 90,-106 -2,-59 -43,-88 -99,-113 -2,-1 -4,-2 -6,-3 19,68 30,146 15,222zm-242 -327c-35,-23 -69,-52 -101,-88 -2,-3 -3,-5 -5,-8 -80,-110 -71,-230 -47,-313 -3,0 -6,0 -9,0 -28,27 -50,57 -67,90 -28,54 -40,114 -36,170 4,53 23,103 55,141 8,9 17,18 26,26 4,2 8,5 12,8 8,6 17,12 27,17 88,46 146,34 178,17 -16,-35 -32,-58 -33,-60zm27 -194c53,61 125,92 193,119 7,-19 13,-41 16,-63 -1,-2 -1,-4 -1,-5 0,-1 1,-30 -4,-74 -6,-17 -15,-33 -28,-48 -65,-68 -142,-100 -193,-115 -17,49 -29,122 17,186zm344 185c58,34 102,81 119,161 24,-11 49,-30 61,-65 23,-65 31,-153 3,-236 -21,-61 -62,-119 -134,-160 -14,-9 -29,-17 -44,-27 7,30 12,57 16,82 9,37 11,75 9,111 0,1 0,2 0,2 0,5 -1,10 -2,15 -5,44 -16,84 -28,117zm-762 -354c-40,18 -83,43 -126,77 -1,1 -3,3 -4,4 -29,24 -45,75 -45,129 0,33 7,66 22,96 13,26 33,49 60,65 26,15 60,24 103,23 -28,-51 -44,-109 -49,-169 -5,-74 8,-152 39,-225zm148 541c-123,32 -222,22 -298,-13 4,115 21,258 85,287 59,26 121,25 170,16 -4,-11 -9,-23 -12,-34 -25,-85 -7,-182 36,-217 12,-8 25,-18 38,-28 -6,-4 -13,-8 -19,-11zm-459 -183c-20,-47 -29,-97 -29,-147 -1,-96 34,-192 96,-250 5,-8 10,-17 16,-25 -15,4 -31,9 -47,13 -25,8 -49,19 -71,32 -79,47 -130,124 -156,207 -26,85 -27,174 -5,243 5,18 12,34 20,48 43,72 119,105 180,120 -13,-125 -6,-232 -5,-233 0,-3 0,-6 1,-8zm520 -570c78,0 135,14 159,20l0 0c18,2 70,11 134,36 -1,-2 -3,-4 -5,-6 -24,-20 -47,-40 -69,-60 -35,-32 -65,-64 -92,-96 -34,44 -77,77 -127,106zm170 816l0 0c-1,0 -95,66 -147,106 -4,3 12,15 20,40 4,14 9,27 17,37 3,5 7,10 12,13 2,2 5,3 7,5 19,8 51,2 102,-34 71,-50 88,-120 82,-189 -26,11 -57,20 -93,22z"/>
   </g>
   <path class="fil1" d="M17494 6553c68,4 118,-6 139,-10l0 0c16,-1 61,-6 118,-25l-4 5c-52,38 -104,80 -148,128 -27,-39 -63,-71 -105,-98zm651 2890l54 -8c31,-7 63,-15 95,-21l-5 -12c303,-677 867,-1053 869,-1054 33,-22 41,-67 19,-100 -8,-12 -20,-21 -33,-27l0 0c-1,0 -389,-156 -751,137 -12,10 -23,19 -34,29 7,-118 -1,-249 -42,-372 -13,-37 -54,-58 -92,-45 -1,1 -3,1 -5,2l0 0c-1,0 -213,88 -290,386 -37,-139 -70,-280 -100,-421 776,-233 546,-843 534,-874 -15,-39 -61,-58 -99,-39 -300,144 -439,376 -503,561 -45,-255 -79,-511 -105,-768 13,-37 58,-84 118,-133 18,-16 38,-31 59,-46 2,-2 4,-3 6,-5 82,-59 176,-113 255,-153 99,-51 159,-126 192,-208 41,-102 38,-215 14,-298 -33,-115 -123,-155 -186,-169 -40,-143 -212,-170 -288,-175 -12,-12 -25,-23 -39,-35 -82,-64 -153,-77 -211,-61 -59,-27 -191,-71 -322,-21 -64,24 -106,88 -133,162 -78,6 -231,33 -319,164 -14,21 -25,45 -35,70 -31,85 -37,193 -12,296 37,148 133,266 276,319 44,17 88,31 130,46 182,61 330,111 350,248 0,2 0,3 1,5 78,779 199,1071 333,1586 61,238 193,846 299,1034zm-124 -3239c0,-4 0,-9 -1,-13 -2,-38 -10,-74 -19,-103 52,-27 93,-65 112,-134 21,11 41,28 50,59 17,58 19,135 -9,205 -21,52 -60,101 -124,133 -13,7 -27,14 -40,21 8,-25 13,-49 18,-70 10,-32 13,-65 13,-96l0 -2zm-143 -11c0,2 -1,4 -1,5 0,1 0,26 -7,64 -6,15 -15,28 -27,40 -59,56 -128,80 -173,90 -12,-42 -19,-107 24,-160 49,-50 113,-74 173,-94 5,17 9,36 11,55zm-793 -369c-17,107 -16,201 -16,201 0,3 0,5 1,8 -19,39 -30,83 -33,125 -5,85 21,169 72,222 4,8 8,16 13,24 -14,-5 -27,-10 -40,-15 -98,-36 -161,-117 -186,-218 -19,-75 -15,-153 7,-212 5,-15 12,-28 20,-40 41,-61 109,-85 162,-95zm497 317c-74,92 -71,196 -55,269l-8 0c-56,-62 -87,-147 -76,-231 7,-55 32,-107 78,-141 4,-2 7,-4 10,-7 8,-5 16,-9 25,-13 79,-36 129,-23 156,-6 -17,29 -31,49 -32,50 -32,19 -63,42 -92,72 -2,2 -4,5 -6,7zm-259 218c-34,-18 -70,-42 -106,-74 -1,-1 -2,-2 -3,-3 -24,-22 -36,-67 -33,-114 3,-55 28,-111 79,-136 23,-12 53,-18 90,-16 -63,103 -68,231 -27,343zm154 -463c-105,-33 -191,-30 -259,-3 9,-100 31,-224 88,-245 52,-20 106,-16 148,-6 -4,10 -8,19 -12,29 -26,73 -15,158 21,190 9,8 20,17 32,27 -6,2 -12,5 -18,8zm204 -43l0 -1c-1,0 -80,-61 -123,-99 -3,-3 12,-12 20,-34 5,-14 14,-33 27,-42 3,-1 5,-2 7,-3 17,-7 44,1 87,34 59,47 71,109 62,168 -22,-11 -49,-20 -80,-23zm201 129c20,-58 33,-125 23,-192 43,15 79,43 74,96 -5,54 -45,77 -97,96zm258 2766c-2,4 -3,8 -3,12 -16,57 -26,114 -33,169 -9,-27 -19,-54 -28,-82 -88,-418 40,-612 128,-693 39,211 -14,433 -45,536 -7,19 -13,38 -19,57l0 1zm133 56c0,-2 1,-4 2,-5 0,-1 10,-27 24,-73 37,-95 95,-184 184,-256 172,-140 349,-156 467,-145 -171,140 -480,428 -707,846 -8,-106 -6,-238 30,-367zm-413 -1029c25,-144 108,-410 391,-580 25,139 21,427 -391,580z"/>
   <path class="fil1" d="M2519 11796c-51,47 -96,73 -115,84l-1 1c-12,9 -51,35 -108,59l7 0c64,-5 130,-8 194,-1 -2,-48 6,-95 23,-143zm1251 2614l-47 29c-29,16 -59,31 -88,47l-3 -12c-653,-311 -1327,-221 -1329,-221 -40,5 -74,-23 -76,-62 -1,-16 2,-30 10,-43l0 0c0,-1 210,-375 675,-394 15,0 30,0 45,0 -78,-85 -152,-189 -194,-309 -13,-37 7,-79 44,-95 2,0 4,-1 6,-2l0 0c1,0 222,-74 464,100 -56,-130 -115,-258 -178,-385 -754,338 -945,-275 -954,-306 -13,-40 12,-84 53,-95 325,-90 576,-7 740,91 -120,-222 -250,-439 -386,-650 -33,-19 -98,-25 -175,-23 -24,1 -49,2 -74,5 -3,0 -6,0 -8,0 -101,10 -208,31 -295,53 -108,28 -202,10 -278,-30 -95,-50 -161,-137 -193,-216 -44,-108 2,-198 43,-251 -55,-134 64,-268 121,-322 2,-17 5,-34 9,-52 26,-103 74,-160 129,-186 31,-60 108,-180 242,-229 65,-24 136,-4 204,34 64,-47 202,-128 351,-87 24,7 47,17 71,30 76,43 147,121 190,216 61,136 58,288 -23,423 -25,42 -51,82 -75,121 -106,167 -192,302 -124,419 1,1 1,3 2,4 414,641 497,941 706,1419 96,220 365,767 395,979zm-1880 -2529c-2,-3 -5,-7 -7,-11 -22,-30 -37,-62 -48,-90 -57,15 -112,12 -169,-27 -11,21 -16,48 -4,78 22,54 67,114 133,148 48,26 108,37 178,19 15,-4 29,-7 45,-11 -22,-14 -41,-28 -57,-41 -28,-17 -51,-40 -69,-64l-2 -1zm107 -103c1,1 2,2 3,3 0,1 16,19 45,44 14,7 29,11 46,12 80,3 149,-24 191,-46 -16,-40 -50,-94 -117,-106 -69,-5 -134,20 -193,45 6,15 14,32 25,48zm400 -804c79,70 135,141 135,142 2,2 3,4 4,6 39,17 74,43 102,73 56,60 87,141 80,215 1,9 3,17 4,26 7,-12 15,-24 22,-37 55,-92 55,-195 14,-288 -31,-69 -82,-125 -135,-155 -14,-8 -27,-14 -41,-17 -69,-19 -137,7 -185,35zm-199 569c114,20 176,100 208,166l6 -5c7,-84 -21,-168 -81,-225 -39,-37 -91,-59 -147,-54 -5,0 -9,1 -13,1 -9,2 -18,4 -28,6 -83,26 -115,68 -126,99 31,11 54,16 56,17 36,-7 74,-10 116,-6 3,0 6,0 9,1zm337 -7c17,-37 30,-78 39,-126 0,-1 1,-3 1,-4 5,-34 -13,-75 -44,-109 -36,-39 -90,-65 -145,-50 -26,6 -53,22 -81,48 112,36 195,129 230,241zm-404 -247c63,-96 133,-150 202,-175 -67,-69 -160,-148 -218,-127 -53,20 -93,58 -121,94 10,4 19,9 28,14 64,38 108,109 99,157 -2,13 -5,27 -9,42 7,-2 13,-4 19,-5zm-187 101l0 0c0,0 25,-99 36,-156 1,-4 -17,-2 -36,-13 -13,-7 -31,-15 -47,-13 -3,0 -5,1 -8,2 -17,6 -34,29 -47,83 -18,74 10,129 53,168 11,-23 27,-47 49,-71zm-79 231c-52,-30 -103,-72 -136,-130 -24,40 -36,85 0,122 37,37 83,28 136,8zm1485 2261c4,2 7,4 10,7 47,32 90,68 129,106 -10,-27 -19,-54 -28,-81 -186,-374 -405,-436 -524,-439 98,186 275,318 362,375 17,10 34,20 50,31l1 1zm-71 129c-2,0 -3,-1 -5,-2 0,0 -24,-14 -63,-39 -87,-47 -188,-76 -302,-72 -221,9 -370,114 -457,201 221,-8 640,5 1075,170 -59,-85 -141,-184 -248,-258zm-302 -1050c-108,-93 -336,-238 -663,-179 65,122 244,336 663,179z"/>
   <path class="fil1" d="M5265 13111l0 -9 -662 0 0 -170c145,-57 290,-161 435,-313 145,-151 221,-328 227,-530l0 -7437c0,-177 -20,-317 -61,-421 -41,-104 -93,-183 -156,-237 -63,-53 -134,-91 -213,-113 -79,-22 -156,-43 -232,-62l0 -180 4144 0c511,0 956,90 1335,270 378,180 695,418 951,714 255,297 446,634 572,1013 126,378 189,763 189,1154 0,398 -63,786 -189,1164 -126,379 -317,716 -572,1013 -256,296 -573,534 -951,714 -379,180 -824,270 -1335,270l-1987 0 0 2138c7,202 81,379 223,530 142,152 285,256 430,313l0 170 -653 0 0 9 -1495 0zm3132 -3444c316,0 592,-82 828,-246 237,-164 432,-382 587,-653 155,-271 271,-577 350,-918 79,-340 118,-691 118,-1050 0,-360 -39,-711 -118,-1055 -79,-344 -195,-650 -350,-918 -155,-268 -350,-484 -587,-648 -236,-164 -512,-246 -828,-246l-1637 0 0 5734 1637 0z"/>
   <path class="fil1" d="M14955 16751l0 -1265c-244,130 -507,229 -790,297 -283,68 -591,102 -925,102 -622,0 -1167,-122 -1633,-365 -467,-244 -856,-562 -1167,-955 -311,-393 -545,-843 -700,-1349 -156,-507 -234,-1023 -234,-1549 0,-526 78,-1043 234,-1549 155,-506 389,-958 700,-1354 311,-396 700,-715 1167,-959 466,-243 1011,-365 1633,-365 391,0 746,49 1065,145 320,96 616,229 887,399 28,22 68,34 119,34 85,0 170,-49 255,-145 84,-96 133,-249 144,-458l161 0 0 1748 -161 0c-34,-164 -101,-315 -200,-454 -99,-138 -196,-256 -292,-352 -210,-187 -444,-332 -705,-437 -260,-105 -551,-157 -874,-157 -469,0 -878,112 -1226,335 -348,224 -640,518 -874,883 -235,365 -410,782 -526,1252 -116,469 -174,947 -174,1434 0,486 58,964 174,1434 116,470 291,887 526,1252 234,365 526,659 874,882 348,224 757,336 1226,336 255,0 491,-34 709,-102 218,-68 420,-167 607,-297l0 -3251 -1995 0 0 -254 3327 0 0 4243 -1332 841z"/>
   <path class="fil0" d="M13059 5576c327,-308 590,-428 985,-291 437,151 675,610 531,1026 -259,752 -1310,1231 -2361,1711 -531,-1026 -1062,-2051 -802,-2804 143,-415 614,-630 1051,-479 395,136 528,393 596,837zm-119 432c198,-187 358,-259 597,-176 265,91 409,370 322,621 -157,457 -794,747 -1431,1038 -322,-622 -644,-1244 -487,-1700 87,-252 373,-382 637,-291 240,83 321,239 362,508z"/>
  </g>
 </g>
</svg>
