<?xml version="1.0" encoding="UTF-8"?>
<!DOCTYPE svg PUBLIC "-//W3C//DTD SVG 1.1//EN" "http://www.w3.org/Graphics/SVG/1.1/DTD/svg11.dtd">
<!-- Creator: CorelDRAW X7 -->
<svg xmlns="http://www.w3.org/2000/svg" xml:space="preserve" width="210mm" height="210mm" version="1.1" style="shape-rendering:geometricPrecision; text-rendering:geometricPrecision; image-rendering:optimizeQuality; fill-rule:evenodd; clip-rule:evenodd"
viewBox="0 0 21000 21000"
 xmlns:xlink="http://www.w3.org/1999/xlink">
 <defs>
  <style type="text/css">
   <![CDATA[
    .str0 {stroke:#C5C6C6;stroke-width:7.62}
    .fil1 {fill:none}
    .fil0 {fill:#EBECEC}
    .fil2 {fill:#D4AD0C;fill-rule:nonzero}
   ]]>
  </style>
 </defs>
 <g id="Layer_x0020_1">
  <metadata id="CorelCorpID_0Corel-Layer"/>
  <g id="_2251589339280">
   <path class="fil0" d="M18318 15674c-1,122 -33,242 -90,357 140,26 271,80 379,176 241,213 260,536 203,833 -98,511 -387,761 -776,785 46,134 65,275 37,416 -65,315 -335,494 -621,592 -491,171 -852,45 -1067,-280 -93,108 -205,195 -341,240 -173,58 -345,37 -505,-32 -345,168 -713,270 -1093,328 -979,407 -2120,323 -3155,256 -415,-27 -831,-55 -1247,-55 -416,0 -832,28 -1247,55 -1172,76 -2467,173 -3525,-439 -6,-4 -13,-8 -19,-11 -231,37 -460,5 -653,-145 -71,-56 -130,-122 -179,-195 -92,106 -204,193 -340,238 -303,102 -597,-44 -824,-240 -392,-340 -464,-716 -291,-1065 -140,-27 -271,-80 -379,-176 -241,-213 -260,-536 -203,-833 25,-130 64,-247 116,-349 -85,85 -175,162 -264,228l-219 164 -218 -163c-166,-124 -335,-293 -465,-451 -267,-321 -470,-713 -470,-1140 0,-515 302,-994 666,-1354 -553,-843 -1028,-1735 -1028,-2773 0,-1135 568,-2095 1181,-3003 -126,-109 -249,-237 -350,-358 -266,-322 -470,-714 -470,-1140 0,-427 204,-819 470,-1141 131,-157 300,-327 465,-449l219 -164 218 163c166,123 335,293 466,450 61,75 120,153 173,235 0,-124 33,-243 89,-357 -139,-27 -271,-80 -379,-176 -241,-213 -260,-536 -203,-833 99,-511 388,-761 777,-785 -47,-134 -66,-275 -37,-416 64,-315 335,-494 620,-593 491,-170 852,-44 1068,280 92,-107 205,-194 341,-239 189,-64 376,-32 546,51 37,-23 74,-45 111,-67 1066,-617 2364,-521 3545,-444 414,27 829,55 1245,55 415,0 830,-28 1244,-55 709,-46 1439,-97 2145,-5 587,38 1158,158 1676,440 14,-6 28,-11 42,-16 491,-170 852,-44 1067,280 93,-107 205,-194 342,-240 303,-101 596,45 823,241 393,340 465,716 291,1065 140,26 272,80 379,176 242,213 261,536 204,833 -26,135 -66,252 -117,351 85,-84 175,-164 264,-230l219 -164 219 163c165,123 334,293 465,450 266,322 470,714 470,1141 0,426 -204,818 -470,1140 -105,126 -234,260 -366,371 544,834 1008,1717 1008,2743 0,1059 -495,1965 -1059,2821 150,118 299,270 417,413 266,322 470,714 470,1140 0,427 -204,819 -470,1140 -131,158 -299,327 -465,450l-219 164 -218 -163c-166,-124 -334,-293 -465,-451 -62,-74 -120,-152 -173,-234z"/>
   <path class="fil1 str0" d="M18318 15674c-1,122 -33,242 -90,357 140,26 271,80 379,176 241,213 260,536 203,833 -98,511 -387,761 -776,785 46,134 65,275 37,416 -65,315 -335,494 -621,592 -491,171 -852,45 -1067,-280 -93,108 -205,195 -341,240 -173,58 -345,37 -505,-32 -345,168 -713,270 -1093,328 -979,407 -2120,323 -3155,256 -415,-27 -831,-55 -1247,-55 -416,0 -832,28 -1247,55 -1172,76 -2467,173 -3525,-439 -6,-4 -13,-8 -19,-11 -231,37 -460,5 -653,-145 -71,-56 -130,-122 -179,-195 -92,106 -204,193 -340,238 -303,102 -597,-44 -824,-240 -392,-340 -464,-716 -291,-1065 -140,-27 -271,-80 -379,-176 -241,-213 -260,-536 -203,-833 25,-130 64,-247 116,-349 -85,85 -175,162 -264,228l-219 164 -218 -163c-166,-124 -335,-293 -465,-451 -267,-321 -470,-713 -470,-1140 0,-515 302,-994 666,-1354 -553,-843 -1028,-1735 -1028,-2773 0,-1135 568,-2095 1181,-3003 -126,-109 -249,-237 -350,-358 -266,-322 -470,-714 -470,-1140 0,-427 204,-819 470,-1141 131,-157 300,-327 465,-449l219 -164 218 163c166,123 335,293 466,450 61,75 120,153 173,235 0,-124 33,-243 89,-357 -139,-27 -271,-80 -379,-176 -241,-213 -260,-536 -203,-833 99,-511 388,-761 777,-785 -47,-134 -66,-275 -37,-416 64,-315 335,-494 620,-593 491,-170 852,-44 1068,280 92,-107 205,-194 341,-239 189,-64 376,-32 546,51 37,-23 74,-45 111,-67 1066,-617 2364,-521 3545,-444 414,27 829,55 1245,55 415,0 830,-28 1244,-55 709,-46 1439,-97 2145,-5 587,38 1158,158 1676,440 14,-6 28,-11 42,-16 491,-170 852,-44 1067,280 93,-107 205,-194 342,-240 303,-101 596,45 823,241 393,340 465,716 291,1065 140,26 272,80 379,176 242,213 261,536 204,833 -26,135 -66,252 -117,351 85,-84 175,-164 264,-230l219 -164 219 163c165,123 334,293 465,450 266,322 470,714 470,1141 0,426 -204,818 -470,1140 -105,126 -234,260 -366,371 544,834 1008,1717 1008,2743 0,1059 -495,1965 -1059,2821 150,118 299,270 417,413 266,322 470,714 470,1140 0,427 -204,819 -470,1140 -131,158 -299,327 -465,450l-219 164 -218 -163c-166,-124 -334,-293 -465,-451 -62,-74 -120,-152 -173,-234"/>
   <path class="fil2" d="M20256 10394c0,1166 -651,2154 -1297,3099 84,-76 142,-119 143,-119l72 -55 73 55c3,1 837,616 837,1394 0,778 -834,1393 -837,1395l-73 54 -72 -54c-3,-2 -837,-617 -837,-1395 0,-94 12,-185 34,-274 -21,34 -41,68 -61,102 -122,211 -238,433 -351,661 348,384 159,738 -168,1016 519,-75 984,33 852,721 -123,638 -560,668 -1002,511 324,412 464,869 -199,1098 -613,212 -858,-151 -942,-612 -175,436 -454,762 -891,496 -360,195 -750,306 -1159,365 -913,390 -1988,320 -3073,249 -422,-27 -845,-55 -1263,-55 -417,0 -841,28 -1263,55 -1212,80 -2412,158 -3387,-406 -32,-19 -65,-39 -96,-59 -532,133 -752,-214 -831,-645 -195,487 -520,836 -1050,377 -491,-425 -299,-819 58,-1122 -519,74 -984,-33 -852,-721 95,-494 379,-623 707,-584 -145,-298 -290,-595 -443,-876 -165,632 -795,1096 -797,1098l-73 54 -73 -54c-2,-2 -836,-617 -836,-1395 0,-614 520,-1126 740,-1316 -576,-858 -1102,-1762 -1102,-2811 0,-1148 631,-2123 1267,-3055l-69 -52c-2,-2 -837,-616 -837,-1394 0,-778 835,-1393 837,-1395l73 -54 73 54c2,2 837,617 837,1395 0,1 0,3 0,4 102,-192 201,-390 300,-591 -237,-346 -53,-664 246,-918 -520,74 -985,-33 -852,-721 122,-638 560,-668 1001,-511 -324,-412 -463,-869 199,-1098 613,-212 858,151 942,612 179,-446 467,-777 922,-476 33,-15 66,-29 100,-42 47,-31 95,-60 144,-89 984,-569 2190,-491 3407,-411 421,27 843,55 1261,55 417,0 839,-28 1260,-55 721,-47 1437,-94 2105,-6 590,38 1148,158 1648,447 12,7 24,14 36,21 41,-20 87,-39 138,-56 613,-212 858,151 942,612 195,-487 521,-836 1051,-378 490,426 298,819 -59,1123 520,-75 985,33 852,721 -122,633 -554,667 -992,514l11 23c127,167 222,340 245,501 132,265 265,525 406,770 11,18 21,36 32,54 -4,-35 -5,-70 -5,-105 0,-778 834,-1393 836,-1395l73 -54 73 54c3,2 837,617 837,1395 0,778 -834,1392 -837,1394l-73 55 -32 -24c581,864 1114,1773 1114,2829zm-15527 5989c92,28 169,89 219,169 154,-72 306,-152 448,-244 195,-126 486,-348 513,-599 19,-171 -93,-313 -215,-419 -105,-91 -251,-185 -396,-141 -347,105 -513,900 -569,1234zm268 287c7,29 11,59 11,89 0,67 -17,130 -47,186 139,97 284,188 435,265 207,106 544,247 775,145 158,-70 225,-237 256,-396 26,-136 34,-310 -76,-413 -187,-176 -628,-90 -848,-35 -171,42 -341,97 -506,159zm-114 376c-67,63 -157,103 -255,106 -15,169 -22,340 -13,509 11,233 58,595 262,744 139,102 318,76 471,23 131,-45 285,-125 320,-272 59,-249 -237,-588 -394,-752 -122,-127 -255,-246 -391,-358zm-382 89c-92,-28 -170,-88 -220,-168 -153,71 -305,152 -447,243 -196,127 -486,349 -513,599 -19,172 92,314 215,420 105,91 251,184 396,141 347,-105 513,-900 569,-1235zm-269 -286c-6,-29 -10,-59 -10,-90 0,-67 17,-130 46,-185 -138,-97 -284,-188 -434,-265 -207,-107 -545,-247 -776,-145 -157,69 -224,237 -255,396 -26,136 -34,309 76,413 186,176 627,89 848,35 171,-42 340,-98 505,-159zm114 -376c67,-63 157,-103 256,-106 15,-169 21,-340 13,-509 -12,-233 -59,-595 -262,-744 -140,-102 -318,-77 -471,-24 -131,46 -286,125 -320,273 -59,249 236,588 394,752 122,127 254,246 390,358zm12345 -90c92,28 170,89 220,169 153,-72 305,-152 447,-244 196,-126 486,-348 514,-599 18,-171 -93,-313 -216,-419 -105,-91 -251,-185 -396,-141 -347,105 -513,900 -569,1234zm269 287c7,29 10,59 10,89 0,67 -17,130 -46,186 138,97 284,188 434,265 207,106 545,247 776,145 158,-70 225,-237 255,-396 27,-136 35,-310 -76,-413 -186,-176 -627,-90 -848,-35 -171,42 -340,97 -505,159zm-114 376c-67,63 -157,103 -256,106 -15,169 -21,340 -13,509 12,233 59,595 263,744 139,102 317,76 470,23 132,-45 286,-125 321,-272 58,-249 -237,-588 -394,-752 -123,-127 -255,-246 -391,-358zm-383 89c-92,-28 -169,-88 -219,-168 -154,71 -305,152 -448,243 -195,127 -486,349 -513,599 -18,172 93,314 215,420 105,91 251,184 397,141 347,-105 512,-900 568,-1235zm-268 -286c-7,-29 -10,-59 -10,-90 0,-67 16,-130 46,-185 -139,-97 -284,-188 -435,-265 -207,-107 -544,-247 -775,-145 -158,69 -225,237 -256,396 -26,136 -34,309 77,413 186,176 627,89 847,35 171,-42 341,-98 506,-159zm114 -376c67,-63 157,-103 255,-106 15,-169 22,-340 13,-509 -11,-233 -58,-595 -262,-744 -139,-102 -317,-77 -471,-24 -131,46 -285,125 -320,273 -58,249 237,588 394,752 122,127 255,246 391,358zm380 -12701c92,28 169,89 219,169 154,-72 306,-152 448,-244 195,-126 486,-348 513,-599 19,-171 -93,-313 -215,-419 -105,-91 -251,-185 -396,-141 -347,105 -513,900 -569,1234zm268 287c7,29 11,59 11,89 0,67 -17,130 -47,186 139,97 284,188 435,265 207,107 544,247 775,145 158,-70 225,-237 256,-396 26,-136 34,-310 -76,-413 -187,-176 -628,-90 -848,-35 -171,42 -341,97 -506,159zm-114 376c-67,63 -157,103 -255,106 -15,169 -22,340 -13,509 11,233 58,595 262,744 139,102 318,77 471,24 131,-46 285,-126 320,-273 59,-249 -237,-588 -394,-752 -122,-127 -255,-246 -391,-358zm-382 89c-92,-27 -170,-88 -220,-168 -153,71 -305,152 -447,243 -196,127 -486,349 -513,599 -19,172 92,314 215,420 105,91 251,184 396,141 347,-105 513,-900 569,-1235zm-269 -286c-6,-29 -10,-59 -10,-90 0,-66 17,-129 46,-185 -138,-97 -284,-188 -434,-265 -207,-107 -545,-247 -776,-145 -157,69 -225,237 -255,396 -26,136 -34,309 76,413 186,176 627,89 848,35 171,-42 340,-97 505,-159zm114 -376c67,-63 157,-103 256,-106 15,-169 21,-340 13,-509 -12,-233 -59,-595 -262,-744 -140,-102 -318,-77 -471,-24 -132,46 -286,125 -320,273 -59,249 236,588 393,752 123,127 255,246 391,358zm-11380 88c160,-74 319,-157 467,-253 196,-126 486,-348 513,-599 19,-171 -92,-313 -215,-419 -105,-91 -251,-185 -396,-141 -354,107 -519,932 -572,1254l-10 60 -121 -15 5 -61c17,-175 24,-354 15,-529 -11,-233 -59,-595 -262,-744 -139,-102 -318,-77 -471,-24 -131,46 -285,125 -320,273 -59,249 236,588 394,752 127,131 264,255 405,370l48 39 -74 97 -50 -35c-144,-102 -294,-197 -451,-277 -207,-107 -545,-247 -775,-145 -158,69 -225,237 -256,396 -26,136 -34,309 76,413 187,176 628,89 848,35 178,-44 354,-102 525,-166l57 -22 47 113 -55 25c-160,74 -319,157 -467,252 -195,127 -486,349 -513,599 -19,172 93,314 215,420 105,91 251,184 396,141 354,-107 520,-933 573,-1254l9 -61 121 16 -5 61c-16,175 -24,353 -15,529 12,233 59,595 262,744 140,102 318,77 471,24 131,-46 286,-126 320,-273 59,-249 -236,-588 -394,-752 -127,-132 -265,-255 -407,-371l-47 -39 74 -97 50 35c144,102 295,198 452,278 207,107 545,247 775,145 158,-70 225,-237 256,-396 26,-136 34,-310 -76,-413 -186,-176 -627,-90 -848,-35 -178,44 -354,102 -525,166l-57 22 -47 -113 55 -25zm12745 11744c-583,1196 261,-533 0,0zm661 1254c250,-1300 -301,1564 0,0zm-1041 1425c1291,-447 -1469,509 0,0zm2637 -7979c0,518 -127,1000 -324,1459 -64,241 -221,697 -545,1006 -161,254 -331,502 -499,748 -233,339 -462,674 -655,1007 -83,144 -164,294 -243,447 30,21 61,44 93,71 107,-213 216,-421 333,-623 197,-340 428,-677 663,-1020 652,-952 1331,-1943 1331,-3095 0,-1153 -679,-2144 -1331,-3096 -235,-342 -466,-680 -663,-1020 -107,-185 -209,-377 -308,-572 -20,34 -46,67 -78,98 67,126 134,250 203,369 193,333 422,668 655,1008 192,280 387,564 566,855 469,436 596,1180 596,1182l7 39c124,362 199,739 199,1137zm-6599 8547c-480,12 -976,-20 -1474,-52 -421,-28 -843,-55 -1260,-55 -418,0 -840,27 -1261,55 -1217,79 -2423,158 -3407,-412 -52,-30 -104,-62 -154,-95 -58,67 -144,128 -262,181 924,517 2085,441 3257,365 428,-28 856,-56 1274,-56 418,0 847,28 1274,56 690,45 1377,90 2013,13zm-9784 -2952c26,7 52,16 78,25 -264,-335 -405,-700 -93,-948 -80,-155 -161,-306 -246,-452 -193,-333 -422,-668 -655,-1008 -138,-201 -277,-405 -411,-612 -596,-399 -750,-1302 -751,-1304l-15 -90 28 -14c-136,-378 -218,-774 -218,-1192 0,-1216 697,-2235 1367,-3213 233,-340 462,-675 655,-1008 68,-116 133,-236 198,-359 -23,-18 -46,-36 -70,-57 -23,-20 -44,-40 -64,-59 -140,283 -282,561 -436,827 -197,341 -428,679 -663,1021 -652,952 -1331,1943 -1331,3095 0,995 506,1870 1064,2703l33 -25 73 55c2,1 837,616 837,1394 0,4 0,7 0,11 199,347 379,716 560,1087 20,41 40,82 60,123zm14814 -2520c75,-109 151,-220 226,-331 -54,16 -109,28 -164,37 -143,223 -293,442 -442,660 -233,340 -463,675 -656,1009 -19,32 -37,63 -55,95 55,-6 113,-2 175,15 81,-157 165,-311 252,-462 197,-342 429,-680 664,-1023zm-157 -275c-30,0 -59,0 -88,-1 -41,60 -82,119 -122,178 -217,317 -431,629 -611,940 -149,259 -289,536 -428,818 12,-14 23,-26 35,-38 60,-113 121,-225 184,-334 197,-340 429,-678 663,-1020 123,-180 247,-360 367,-543zm-287 -19c-423,-57 -763,-230 -765,-231l-82 -40 16 -90c1,-3 175,-1024 870,-1374 312,-157 671,-149 972,-93 101,-306 161,-622 161,-953 0,-285 -45,-560 -122,-826 -291,50 -632,50 -931,-100 -694,-350 -868,-1372 -869,-1375l-16 -89 82 -41c1,0 326,-165 735,-226 -44,-64 -87,-128 -131,-191 -234,-343 -466,-680 -663,-1021 -91,-157 -178,-320 -263,-485 -287,-63 -425,-338 -484,-661 -195,488 -520,837 -1050,378 -491,-425 -299,-819 58,-1122 -519,74 -984,-33 -852,-721 91,-473 356,-612 666,-588 -125,-107 -260,-204 -405,-288 -864,-500 -1957,-429 -3061,-357 -398,26 -797,52 -1186,52 -389,0 -789,-26 -1187,-52 -1104,-72 -2197,-143 -3060,357 -92,52 -179,110 -262,173 -49,165 -174,317 -332,451 519,-75 984,33 852,721 -123,638 -561,668 -1002,510 324,413 464,870 -199,1099 -548,190 -801,-80 -909,-468l-3 6c-173,353 -344,703 -534,1033 -184,317 -399,632 -618,951 -48,69 -95,139 -143,209 457,46 840,240 842,240l81 41 -16 89c0,3 -174,1025 -869,1375 -325,164 -700,148 -1008,85 -79,271 -126,550 -126,841 0,326 59,638 158,940 283,-44 608,-38 895,106 695,350 869,1371 869,1374l16 90 -81 40c-2,1 -304,154 -693,220 25,37 50,73 75,109 219,319 434,634 618,951 121,210 234,428 345,649 271,73 403,342 460,656 195,-488 521,-837 1051,-378 490,425 298,818 -59,1122 520,-75 985,33 852,721 -76,396 -273,557 -518,586 82,61 168,118 258,170 864,499 1956,428 3060,356 398,-26 798,-52 1187,-52 389,0 788,26 1186,52 1104,72 2197,143 3061,-356 127,-74 245,-157 357,-249 62,-90 144,-176 237,-255 -520,74 -985,-33 -852,-721 123,-638 560,-668 1002,-511 -325,-412 -464,-869 198,-1098 513,-178 768,47 887,394l26 -53c172,-353 343,-703 534,-1033 183,-317 399,-632 617,-951 23,-32 45,-65 67,-98zm1328 -1747c95,31 175,62 232,86 130,-358 209,-730 209,-1120 0,-342 -60,-669 -163,-986 -90,36 -220,83 -373,122 120,354 193,722 193,1111 0,272 -36,534 -98,787zm-1047 -3713c155,-5 315,9 469,55 -101,-152 -204,-303 -306,-452 -235,-343 -467,-681 -664,-1023 -68,-116 -133,-235 -196,-356 -40,19 -83,36 -131,53 -80,27 -153,45 -220,54 76,148 153,291 233,430 180,311 394,623 611,940 68,99 136,199 204,299zm-2765 -4535c-106,-186 -154,-371 -90,-532 -65,-45 -132,-88 -201,-127 -920,-533 -2089,-457 -3269,-380 -429,28 -858,56 -1276,56 -418,0 -848,-28 -1276,-56 -581,-37 -1158,-75 -1705,-40 -56,7 -112,16 -167,25 435,-4 883,26 1332,55 422,27 846,55 1263,55 418,0 841,-28 1263,-55 1212,-79 2412,-157 3387,407 280,161 522,363 739,592zm-9422 -421c51,77 80,154 92,228 52,-35 105,-68 160,-100 909,-526 2028,-453 3158,-380 393,26 787,52 1176,52 388,0 783,-26 1176,-52 973,-63 1938,-126 2769,195 -919,-498 -2066,-423 -3224,-348 -427,28 -856,56 -1274,56 -418,0 -846,-28 -1273,-56 -722,-47 -1440,-94 -2101,-2 -93,41 -184,87 -273,138 -137,80 -265,170 -386,269zm-1885 3126c-36,26 -74,47 -113,62 -60,112 -121,222 -183,331 -197,340 -429,678 -663,1020 -96,140 -192,280 -286,421 38,-3 77,-5 115,-5 68,-100 136,-199 204,-298 216,-317 430,-629 610,-940 109,-189 213,-388 316,-591zm-321 81c-36,-5 -72,-15 -110,-30 -65,122 -130,242 -198,359 -198,342 -430,680 -665,1023 -110,162 -222,324 -331,489 48,-20 96,-35 145,-48 124,-188 251,-374 377,-559 233,-340 463,-675 656,-1009 43,-74 85,-149 126,-225zm-1745 3547c-30,-9 -60,-17 -88,-26 -86,292 -136,593 -136,907 0,345 61,676 164,996 29,-8 58,-15 89,-22 -100,-311 -159,-635 -159,-974 0,-306 48,-599 130,-881zm-253 -83c-52,-20 -95,-38 -127,-52 -108,326 -173,663 -173,1016 0,379 75,742 199,1092 37,-15 80,-30 127,-46 -108,-334 -172,-681 -172,-1046 0,-335 54,-656 146,-964zm1267 3758c-36,3 -72,5 -109,6 67,99 135,197 202,295 234,342 466,680 663,1020 67,116 132,235 195,355 27,-4 52,-7 77,-9 -94,-187 -191,-370 -292,-544 -180,-311 -394,-623 -610,-940 -42,-60 -84,-121 -126,-183zm-325 -5c-42,-4 -84,-11 -125,-20 69,103 139,205 208,306 235,343 467,681 665,1023 85,148 167,300 247,454 25,-10 52,-20 80,-30 9,-3 18,-6 27,-9 -56,-106 -113,-210 -172,-311 -193,-334 -423,-669 -656,-1009 -91,-134 -183,-268 -274,-404zm3041 4375c-60,-14 -120,-32 -181,-53 93,119 171,242 219,361 172,165 360,310 569,431 372,215 783,332 1219,389 547,35 1124,-2 1705,-40 428,-28 858,-56 1276,-56 418,0 847,28 1276,56 1022,66 2036,132 2887,-197 145,-97 280,-206 406,-326 -65,-110 -89,-217 -80,-320 -51,34 -102,66 -155,97 -910,526 -2029,453 -3158,380 -393,-26 -788,-52 -1176,-52 -389,0 -783,26 -1176,52 -1130,73 -2249,146 -3158,-380 -172,-99 -328,-214 -473,-342zm9746 -11985c1013,878 -1209,-1047 0,0zm329 9572c-1314,456 1437,-497 0,0zm-11287 -11415c217,0 393,176 393,393 0,217 -176,393 -393,393 -216,0 -392,-176 -392,-393 0,-217 176,-393 392,-393zm14598 3591c22,-18 44,-37 65,-56 93,-83 181,-173 261,-268 200,-238 371,-539 371,-857 0,-319 -171,-620 -371,-858 -80,-95 -168,-185 -261,-268 -21,-18 -43,-37 -65,-56 -22,19 -44,38 -64,56 -94,83 -182,173 -262,268 -199,238 -370,539 -370,858 0,318 171,619 370,857 80,95 168,185 262,268 20,19 42,38 64,56zm-17483 4400c6,28 13,56 20,83 32,120 73,239 123,354 122,285 314,573 599,716 284,144 630,126 932,55 121,-29 241,-67 357,-113 26,-10 53,-21 79,-33 -6,-28 -14,-56 -21,-83 -32,-120 -72,-239 -122,-354 -123,-285 -314,-573 -599,-716 -284,-144 -630,-126 -932,-55 -121,29 -241,67 -357,113 -26,10 -53,21 -79,33zm2191 -3597c-26,-11 -53,-22 -79,-32 -116,-46 -236,-84 -357,-113 -302,-71 -648,-89 -932,54 -285,144 -477,432 -600,717 -49,115 -90,234 -122,354 -7,27 -14,55 -20,83 26,12 53,23 79,33 115,46 235,84 357,113 302,71 647,88 932,-55 285,-143 476,-431 599,-717 49,-114 90,-233 122,-354 7,-27 15,-54 21,-83zm-1867 -3166c-22,19 -44,38 -65,56 -93,83 -181,173 -261,268 -199,238 -371,539 -371,858 0,318 172,619 371,857 80,95 168,185 261,268 21,19 43,38 65,56 22,-18 44,-37 65,-56 93,-83 181,-173 261,-268 200,-238 371,-539 371,-857 0,-319 -171,-620 -371,-858 -80,-95 -168,-185 -261,-268 -21,-18 -43,-37 -65,-56zm0 8629c-22,18 -44,37 -65,56 -93,82 -181,172 -261,268 -199,238 -371,538 -371,857 0,319 172,620 371,857 80,96 168,186 261,269 21,18 43,37 65,56 22,-19 44,-38 65,-56 93,-83 181,-173 261,-269 200,-237 371,-538 371,-857 0,-319 -171,-619 -371,-857 -80,-96 -168,-186 -261,-268 -21,-19 -43,-38 -65,-56zm17159 2363c23,-19 44,-38 65,-56 93,-83 181,-173 261,-269 200,-237 371,-538 371,-857 0,-319 -171,-619 -371,-857 -80,-96 -168,-186 -261,-268 -21,-19 -42,-38 -65,-56 -22,18 -43,37 -64,56 -93,82 -182,172 -262,268 -199,238 -370,538 -370,857 0,319 171,620 370,857 80,96 169,186 262,269 21,18 42,37 64,56zm-1866 -3167c26,12 53,23 79,33 115,46 235,84 357,113 302,71 647,89 932,-55 285,-143 476,-431 599,-716 49,-115 90,-234 122,-354 7,-27 14,-55 21,-83 -26,-12 -53,-23 -79,-33 -116,-46 -236,-84 -357,-113 -303,-71 -648,-89 -933,55 -284,143 -476,431 -599,716 -49,115 -90,234 -122,354 -7,27 -14,55 -20,83zm2191 -3596c-7,-28 -14,-56 -21,-83 -32,-120 -73,-239 -122,-354 -123,-285 -314,-573 -599,-717 -285,-143 -630,-125 -932,-54 -122,29 -242,67 -357,113 -27,10 -53,21 -80,32 7,29 14,56 21,83 32,121 73,240 122,354 123,286 314,574 599,717 285,143 630,126 933,55 121,-29 241,-67 357,-113 26,-10 52,-21 79,-33z"/>
   <path class="fil2" d="M6524 7390c138,-101 255,-239 318,-415 84,-231 46,-399 -50,-504 -46,-50 -109,-83 -180,-104 -67,-17 -143,-17 -218,-5 -193,34 -390,177 -453,411 -67,264 25,487 172,692 -29,8 -63,13 -96,17 -109,17 -218,8 -319,-17 -101,-29 -189,-75 -256,-143 -167,-171 -184,-402 -58,-599 20,-29 46,-67 62,-109 26,-63 5,-138 -58,-163 -21,-5 -38,-9 -55,-5 -38,9 -75,38 -92,93 -122,402 -46,687 122,859 83,84 188,138 306,172 113,33 234,38 360,21 55,-9 109,-17 159,-34 72,88 151,172 231,252 193,205 377,398 402,599l0 17c21,172 -16,327 -100,444 -67,101 -168,172 -298,210 -96,25 -205,29 -306,4 -109,-29 -201,-96 -268,-180 -67,-84 -109,-189 -122,-298 -8,-71 -4,-142 13,-209 50,-181 159,-285 281,-323 50,-13 100,-17 146,-8 42,8 80,25 114,46 50,42 67,96 67,155 0,58 -17,130 -38,188 -21,59 -8,109 17,139 17,16 33,29 54,33 17,4 38,4 59,-8 33,-13 67,-50 75,-113 30,-218 -37,-373 -151,-466 -50,-42 -113,-71 -176,-79 -67,-13 -134,-9 -201,8 -151,46 -293,176 -352,398 -21,84 -25,168 -17,252 13,130 63,251 147,352 80,105 189,180 323,218 117,29 239,21 352,4 180,-33 381,-109 532,-251 134,-126 227,-298 235,-529 8,-310 -239,-561 -490,-817 -63,-67 -130,-134 -193,-205zm-80 -923c50,-8 97,-4 138,9 51,12 97,37 130,71 72,75 97,201 26,390 -55,155 -160,281 -285,373 -135,-168 -227,-340 -210,-532 8,-63 33,-151 84,-223 29,-46 67,-79 117,-88zm2121 2511c-71,42 -92,-37 -100,-121 -9,-105 -9,-243 0,-398 17,-298 58,-642 130,-856 21,-75 -17,-142 -76,-180 -17,-12 -42,-25 -63,-33 -25,-9 -46,-9 -71,-9 -54,4 -101,34 -113,92l-13 47 -33 134c-4,-5 -4,-9 -4,-13 -26,-67 -59,-121 -105,-155 -34,-25 -67,-34 -105,-38 -293,-33 -499,189 -608,482 -50,139 -80,294 -88,445 -8,146 8,293 50,415 63,201 193,335 394,318 168,-12 302,-297 386,-570 25,289 118,499 298,558 4,0 4,0 8,4l9 0c117,29 230,-55 327,-193 113,-151 213,-377 280,-578 30,-93 -75,-126 -104,-30 -67,193 -160,403 -265,545 -46,63 -92,109 -134,134zm-587 -1396c47,-25 76,-12 101,21 13,17 25,46 38,76 29,84 42,201 46,323 -4,25 -8,46 -8,71 -38,189 -198,910 -403,926 -38,5 -67,-46 -88,-130 -25,-109 -29,-272 -13,-444 13,-172 51,-352 105,-507 59,-164 134,-294 222,-336zm1581 9c25,4 50,8 67,17 50,16 88,54 109,104 4,9 8,17 8,26 30,92 -25,155 -71,205 -17,21 -29,33 -38,50 -37,55 -37,109 -25,147 9,25 21,42 42,54 21,13 46,13 76,5 33,-17 71,-55 104,-143 21,-50 34,-105 38,-163 4,-63 0,-126 -21,-185l-12 -42c-34,-71 -88,-130 -168,-163 -29,-9 -67,-17 -105,-21 -197,-17 -360,113 -465,306 -59,109 -101,239 -122,373 -21,134 -21,272 0,402 46,260 185,482 436,550 172,46 336,-17 478,-160 143,-138 264,-356 352,-620 21,-63 -84,-101 -105,-34 -83,248 -192,449 -322,579 -105,100 -218,155 -340,134 -88,-17 -142,-147 -168,-323 -21,-134 -21,-289 -8,-444 17,-151 46,-302 88,-424 50,-134 109,-230 172,-230zm905 1496c17,-21 21,-46 17,-75 71,-382 193,-734 327,-981 80,-143 159,-247 235,-298 42,-4 63,17 67,55 17,88 -8,235 -38,394 -21,138 -46,281 -54,415 -13,277 58,503 373,516l0 -5c243,-4 453,-662 490,-779 21,-80 -79,-109 -104,-30 -38,118 -239,742 -395,700 -117,-33 -67,-285 -12,-557 17,-84 33,-168 46,-248 42,-301 34,-561 -235,-603 -163,-25 -327,126 -469,385 -92,172 -176,386 -248,629 5,-172 13,-377 30,-591 155,-167 511,-650 645,-1031 38,-96 59,-189 59,-273 0,-88 -25,-167 -84,-222 -25,-25 -59,-42 -100,-58 -59,-21 -114,-30 -168,-26 -118,5 -218,63 -302,160 -80,92 -142,218 -193,360 -214,591 -230,1530 -218,1811 4,17 4,30 4,42 5,189 9,319 269,340 4,0 12,0 21,-4 12,0 25,-9 37,-26zm59 -1375c34,-306 84,-603 159,-825 55,-172 126,-298 206,-340 29,-17 58,-21 92,-13 25,9 42,21 59,34 33,33 50,84 50,142 0,68 -21,151 -50,239 -109,302 -361,667 -528,881l12 -118zm1681 1271c-12,12 -25,8 -29,-5 -21,-42 -42,-125 -55,-234 -16,-172 -16,-394 9,-617 8,-104 25,-205 42,-301 12,-63 -34,-118 -97,-147 -25,-13 -54,-21 -84,-25 -29,-5 -58,0 -84,4 -50,17 -88,54 -88,117 -29,210 -41,398 -41,558 0,235 29,419 83,549 55,138 143,218 252,235 12,4 25,4 38,4 29,0 42,-4 67,-17 92,-50 176,-184 247,-335 71,-164 134,-340 164,-432 25,-75 -80,-109 -105,-38 -30,88 -88,264 -160,424 -50,113 -109,213 -159,260zm-189 -1828c-20,-13 -37,-21 -58,-21 -25,-4 -51,0 -67,8 -25,9 -42,21 -55,46 -38,72 51,189 118,281 16,21 29,42 42,55l37 54 42 -50 71 -76c84,-88 168,-176 126,-251 -17,-29 -38,-46 -67,-55 -21,-8 -42,-8 -63,-4 -17,4 -37,13 -54,21l-30 21c-12,-12 -25,-21 -42,-29zm1820 1823c-38,30 -80,30 -105,-21 -17,-41 -21,-109 -21,-197 0,-100 13,-222 25,-348 13,-159 30,-318 25,-461 -4,-276 -71,-490 -310,-486 -163,0 -297,151 -398,352 -63,126 -117,273 -164,415 13,-188 38,-381 76,-570 17,-84 -29,-142 -92,-176 -25,-17 -55,-25 -84,-29 -30,-5 -63,0 -88,8 -46,13 -80,50 -80,105 -50,235 -75,436 -92,624 -8,143 -25,537 13,726 25,138 92,234 285,197 12,-4 33,-9 50,-34l12 -25 5 0c-9,-92 -13,-197 -17,-306 33,-172 121,-587 272,-885 51,-100 109,-184 172,-238 51,-17 76,-5 88,29 30,84 17,251 0,436 -8,79 -12,159 -16,247 -5,13 -5,34 -5,59 -8,84 -12,189 -4,289 13,176 67,344 226,398 93,34 189,55 286,-25 167,-126 285,-507 343,-691 5,-13 9,-26 9,-34 25,-80 -84,-109 -101,-38l-12 38c-55,176 -172,549 -298,641zm1505 -1379c-59,-29 -118,-42 -185,-25 -58,13 -121,50 -176,105 -84,75 -159,188 -226,314 -50,88 -96,185 -138,285 -38,88 -93,218 -139,357 0,-181 9,-390 25,-621 156,-167 512,-650 646,-1031 38,-96 59,-189 59,-273 0,-88 -25,-167 -84,-222 -25,-25 -59,-42 -101,-58 -58,-21 -117,-30 -167,-26 -122,5 -218,63 -302,160 -80,92 -143,218 -197,360 -206,591 -227,1530 -214,1811 4,17 4,30 4,42 4,189 13,319 268,340 5,0 13,0 17,-4 13,0 30,-9 42,-26 25,-29 17,-62 13,-96 21,-92 75,-281 155,-486 54,146 121,268 193,360 109,139 234,218 348,222 109,5 259,-79 398,-239 105,-125 209,-297 281,-515 21,-67 -80,-101 -105,-34 -67,197 -159,357 -256,474 -33,34 -67,54 -100,67 -42,17 -88,17 -139,0 -50,-17 -100,-50 -151,-101 -88,-83 -167,-205 -230,-360 201,-29 343,-97 440,-176 80,-63 126,-138 151,-210 29,-75 29,-151 8,-218 -21,-75 -71,-138 -138,-176zm-809 113c33,-306 84,-603 159,-825 59,-172 126,-298 205,-340 30,-17 59,-21 93,-13 25,9 42,21 58,34 34,33 51,84 51,142 0,68 -21,151 -51,239 -109,302 -360,667 -528,881l13 -118zm197 575c38,-84 75,-168 121,-239 63,-118 130,-222 206,-290 42,-41 84,-67 126,-79 29,-4 75,-9 92,21 12,21 12,50 8,88 -4,38 -21,88 -46,138 -80,147 -235,306 -444,352l-63 9z"/>
   <path class="fil2" d="M9841 10625c-36,21 -47,-19 -51,-61 -4,-53 -4,-123 0,-201 8,-150 30,-323 65,-431 11,-38 -8,-72 -38,-91 -8,-6 -21,-12 -31,-17 -13,-4 -24,-4 -36,-4 -28,2 -51,17 -57,47l-7 23 -17 68c-2,-3 -2,-5 -2,-7 -12,-34 -29,-61 -52,-78 -17,-13 -34,-17 -53,-19 -148,-17 -252,95 -307,243 -25,70 -40,148 -44,224 -4,74 4,148 25,209 32,102 97,169 199,161 84,-6 152,-150 194,-288 13,146 59,252 150,282 2,0 2,0 5,2l4 0c59,14 116,-28 165,-98 57,-76 107,-190 141,-291 15,-47 -38,-64 -53,-15 -33,97 -80,203 -133,275 -23,31 -46,55 -67,67zm-296 -703c23,-13 38,-7 51,10 6,9 12,23 19,38 14,42 21,102 23,163 -2,13 -4,23 -4,36 -19,95 -100,458 -203,467 -19,2 -34,-23 -45,-66 -12,-55 -15,-137 -6,-224 6,-86 25,-177 53,-255 29,-83 67,-148 112,-169zm1158 703c-19,15 -40,15 -53,-10 -8,-21 -11,-55 -11,-100 0,-50 7,-112 13,-175 7,-80 15,-161 13,-232 -2,-140 -36,-248 -157,-246 -82,0 -150,77 -200,178 -32,63 -59,137 -83,209 7,-95 19,-192 38,-287 9,-43 -14,-72 -46,-89 -13,-8 -28,-13 -42,-15 -15,-2 -32,0 -45,4 -23,7 -40,26 -40,53 -25,119 -38,220 -46,315 -5,72 -13,271 6,366 13,69 46,118 144,99 6,-2 16,-4 25,-17l6 -13 2 0c-4,-46 -6,-99 -8,-154 17,-86 61,-296 137,-446 26,-50 55,-93 87,-120 25,-9 38,-2 44,15 15,42 9,126 0,219 -4,41 -6,81 -8,125 -2,6 -2,17 -2,30 -4,42 -7,95 -2,146 6,88 33,173 114,200 46,17 95,28 143,-12 85,-64 144,-256 174,-349 2,-6 4,-13 4,-17 13,-40 -42,-55 -51,-19l-6 19c-28,89 -87,277 -150,323zm740 -453c46,-58 145,-221 219,-388 43,-93 74,-184 87,-260 15,-84 4,-154 -44,-186 -11,-6 -22,-10 -32,-14 -99,-26 -190,76 -258,236 -46,110 -87,245 -110,384 -19,-48 -48,-77 -97,-84 -148,-17 -252,97 -306,244 -26,68 -41,146 -45,222 -4,77 4,151 26,210 31,102 97,170 198,163 93,-8 163,-178 205,-324 0,4 2,7 2,11 19,178 85,307 210,315 71,7 133,-61 181,-152 45,-83 81,-182 102,-250 12,-39 -38,-55 -51,-17 -21,63 -55,161 -99,242 -41,74 -87,131 -133,122 -34,-8 -53,-97 -60,-222 -4,-77 -2,-161 5,-252zm-246 -244c24,-9 36,0 47,14 6,9 13,21 17,34 15,41 21,100 23,162 -2,8 -2,19 -2,27 -15,79 -97,471 -205,477 -19,2 -34,-23 -44,-65 -13,-56 -15,-136 -9,-223 9,-87 28,-178 55,-257 30,-86 70,-153 118,-169zm478 -543c27,17 32,65 21,129 -13,72 -44,160 -82,247 -51,114 -114,225 -161,300l6 -69c22,-151 51,-303 89,-417 36,-116 76,-194 114,-197l13 7z"/>
   <path class="fil2" d="M6740 11706c8,290 25,646 50,986 34,461 75,897 134,1119 25,80 105,113 185,113 25,4 54,0 75,-4 29,-9 50,-17 71,-34 76,-50 59,-84 38,-146 -176,-571 -197,-2256 -201,-2595 0,-63 -9,-97 -92,-114 -30,-4 -72,-4 -105,-4 -88,0 -160,-21 -160,59 -4,189 -125,713 -247,1266 -75,323 -151,658 -205,943 -59,-285 -97,-671 -118,-1044 -29,-482 -37,-930 -42,-1102 0,-63 -4,-101 -92,-118 -29,-4 -67,-4 -105,-4 -79,0 -151,-21 -159,51 -4,33 -12,92 -17,167 -67,621 -264,2549 -725,2537 -29,0 -59,-9 -80,-26 -33,-16 -58,-50 -71,-92 -8,-12 -12,-29 -17,-46l5 0c-5,-54 4,-101 25,-142 25,-55 63,-101 100,-135 46,-37 59,-88 51,-125 0,-21 -13,-42 -30,-55 -16,-17 -42,-25 -67,-21 -37,4 -79,34 -121,101 -51,79 -76,176 -80,272 0,67 8,134 29,193 26,59 63,113 118,143 37,25 84,37 134,42 432,12 654,-1166 763,-2004 12,197 25,415 42,629 33,423 79,830 138,1052 21,84 105,117 185,117 25,0 50,0 75,-8 25,-4 50,-17 71,-30 38,-25 67,-67 51,-109 58,-327 155,-754 247,-1165 54,-235 105,-461 147,-667zm2004 1954c-72,42 -93,-38 -101,-122 -8,-104 -8,-243 0,-398 17,-298 59,-641 130,-855 21,-76 -17,-143 -76,-180 -16,-13 -42,-25 -62,-34 -26,-8 -47,-8 -72,-8 -54,4 -100,33 -113,92l-13 46 -33 134c-4,-4 -4,-8 -4,-12 -25,-67 -59,-122 -105,-155 -34,-26 -67,-34 -105,-38 -293,-34 -499,188 -608,482 -50,138 -79,293 -88,444 -8,147 9,294 51,415 62,202 192,336 394,319 167,-13 301,-298 385,-570 25,289 118,499 298,557 4,0 4,0 8,5l9 0c117,29 230,-55 327,-193 113,-151 214,-378 281,-579 29,-92 -76,-126 -105,-29 -67,193 -160,402 -264,545 -46,63 -93,109 -134,134zm-587 -1396c46,-25 75,-13 100,21 13,17 25,46 38,75 29,84 42,202 46,323 -4,25 -8,46 -8,71 -38,189 -197,910 -403,927 -37,4 -67,-46 -88,-130 -25,-109 -29,-273 -12,-444 12,-172 50,-353 104,-508 59,-163 135,-293 223,-335zm2142 496c92,-114 289,-438 436,-769 84,-184 147,-364 172,-515 29,-168 8,-306 -88,-369 -21,-13 -42,-21 -63,-29 -197,-51 -378,151 -512,469 -92,218 -172,486 -218,762 -37,-95 -96,-154 -193,-167 -293,-33 -498,192 -607,483 -51,135 -80,290 -88,442 -9,151 8,299 50,416 63,202 193,336 394,324 184,-17 323,-353 407,-643 0,8 4,12 4,21 38,353 167,609 415,626 142,12 264,-122 360,-303 88,-163 160,-361 202,-496 25,-76 -76,-109 -101,-33 -42,125 -109,319 -197,479 -80,147 -172,261 -264,244 -67,-17 -105,-194 -118,-442 -8,-151 -4,-320 9,-500zm-486 -483c46,-17 71,0 92,28 12,17 25,41 33,67 30,82 42,199 46,320 -4,17 -4,38 -4,55 -29,156 -193,934 -406,946 -38,5 -68,-46 -88,-129 -26,-110 -30,-270 -17,-443 17,-172 54,-353 109,-508 58,-172 138,-304 235,-336zm947 -1078c54,34 63,130 42,256 -25,142 -88,318 -164,490 -100,227 -226,447 -318,596l12 -137c42,-299 101,-601 176,-828 72,-230 151,-385 227,-389l25 12zm432 2570c17,-21 21,-46 17,-76 71,-381 192,-733 326,-980 80,-143 160,-248 235,-298 42,-4 63,17 67,54 17,88 -8,235 -37,394 -21,139 -47,281 -55,415 -12,277 59,504 373,516l0 -4c243,-4 453,-662 491,-780 21,-79 -80,-109 -105,-29 -38,117 -239,742 -394,700 -118,-34 -67,-285 -13,-558 17,-83 34,-167 46,-247 42,-302 34,-562 -234,-604 -164,-25 -327,126 -470,386 -92,172 -176,386 -247,629 4,-172 12,-377 29,-591 155,-168 512,-650 646,-1032 37,-96 58,-188 58,-272 0,-88 -25,-168 -83,-222 -26,-25 -59,-42 -101,-59 -59,-21 -113,-29 -168,-25 -117,4 -218,63 -302,159 -79,93 -142,218 -192,361 -214,591 -231,1530 -218,1811 4,17 4,29 4,42 4,188 8,318 268,339 4,0 13,0 21,-4 13,0 25,-8 38,-25zm58 -1375c34,-306 84,-604 160,-826 54,-172 125,-298 205,-339 29,-17 59,-21 92,-13 26,8 42,21 59,33 34,34 50,84 50,143 0,67 -21,151 -50,239 -109,302 -360,667 -528,880l12 -117zm1447 -235c-72,13 -113,50 -126,122 -46,184 -71,402 -71,612 0,214 29,423 88,587 67,172 172,297 323,331 25,8 58,12 88,12 192,-4 306,-264 402,-557 8,59 21,113 38,163 50,176 138,302 255,336 17,4 38,8 55,8 96,4 184,-80 264,-209 92,-143 172,-348 239,-550 21,-71 -84,-100 -105,-33 -63,197 -142,390 -226,528 -55,92 -113,155 -164,155 -25,-8 -46,-96 -54,-226 -13,-147 -9,-344 12,-537 17,-168 47,-339 84,-478 21,-67 -21,-130 -75,-172 -25,-12 -46,-25 -71,-29 -26,-8 -55,-8 -80,-4 -55,8 -101,46 -118,113 -41,164 -67,335 -75,503 -4,50 -4,101 -4,147l-21 79c-92,290 -189,596 -319,646 -67,-17 -113,-113 -138,-256 -34,-159 -38,-364 -25,-570 8,-184 33,-369 67,-515 17,-76 -29,-139 -97,-172 -21,-13 -46,-25 -71,-30 -21,-4 -50,-8 -75,-4zm2247 1648c12,0 33,0 50,-5 256,-33 398,-486 482,-742l13 -46c21,-67 -84,-100 -105,-33l-13 46c-75,231 -205,641 -390,666 -67,9 -100,-46 -113,-138 -37,-277 113,-817 189,-1094 46,-159 8,-218 -180,-252 -155,-25 -340,-54 -474,-117 0,-75 0,-142 -8,-197 -17,-80 -63,-130 -114,-147 -25,-8 -54,-8 -79,0 -21,5 -46,21 -63,42 -34,38 -46,101 -17,176 34,80 92,143 168,189 0,75 -9,155 -17,239 -29,201 -75,436 -126,587 -25,79 76,109 105,33 50,-159 101,-398 126,-607 8,-68 17,-135 21,-198 92,38 193,63 293,80 34,9 42,29 34,67 -59,218 -164,616 -160,935 5,289 97,516 378,516zm867 -143c-12,13 -25,9 -29,-4 -21,-42 -42,-126 -54,-235 -17,-172 -17,-394 8,-616 8,-105 25,-205 42,-302 13,-63 -34,-117 -96,-147 -26,-12 -55,-21 -84,-25 -30,-4 -59,0 -84,4 -50,17 -88,55 -88,118 -30,209 -42,398 -42,557 0,235 29,420 84,550 54,138 142,218 251,234 13,4 25,4 38,4 29,0 42,-4 67,-16 92,-51 176,-185 247,-336 72,-163 135,-339 164,-431 25,-76 -80,-109 -105,-38 -29,88 -88,264 -159,423 -51,113 -109,214 -160,260zm-188 -1828c-21,-12 -38,-21 -59,-21 -25,-4 -50,0 -67,9 -25,8 -42,21 -54,46 -38,71 50,189 117,281 17,21 29,42 42,54l38 55 42 -51 71 -75c84,-88 167,-176 126,-252 -17,-29 -38,-46 -68,-54 -20,-8 -41,-8 -62,-4 -17,4 -38,12 -55,21l-29 21c-13,-13 -25,-21 -42,-30z"/>
  </g>
 </g>
</svg>
