<?xml version="1.0" encoding="UTF-8"?>
<!DOCTYPE svg PUBLIC "-//W3C//DTD SVG 1.1//EN" "http://www.w3.org/Graphics/SVG/1.1/DTD/svg11.dtd">
<!-- Creator: CorelDRAW X7 -->
<svg xmlns="http://www.w3.org/2000/svg" xml:space="preserve" width="210mm" height="210mm" version="1.1" style="shape-rendering:geometricPrecision; text-rendering:geometricPrecision; image-rendering:optimizeQuality; fill-rule:evenodd; clip-rule:evenodd"
viewBox="0 0 21000 21000"
 xmlns:xlink="http://www.w3.org/1999/xlink">
 <defs>
  <style type="text/css">
   <![CDATA[
    .fil0 {fill:#D4AD0C;fill-rule:nonzero}
   ]]>
  </style>
 </defs>
 <g id="Layer_x0020_1">
  <metadata id="CorelCorpID_0Corel-Layer"/>
  <g id="_2251731023728">
   <path class="fil0" d="M20500 10391c0,1196 -667,2208 -1330,3177 87,-78 146,-122 147,-123l74 -55 75 55c2,2 858,632 858,1430 0,797 -856,1428 -858,1429l-75 56 -74 -56c-3,-1 -858,-632 -858,-1429 0,-96 12,-190 34,-281 -20,35 -41,70 -61,105 -125,216 -244,444 -361,677 357,394 163,756 -172,1041 533,-76 1009,34 874,739 -126,654 -575,685 -1027,524 332,423 475,890 -204,1126 -628,217 -879,-155 -966,-628 -179,447 -465,781 -913,508 -369,200 -769,314 -1188,375 -936,400 -2038,328 -3150,256 -432,-29 -866,-57 -1294,-57 -428,0 -862,28 -1295,57 -1242,81 -2472,161 -3472,-417 -33,-20 -66,-40 -98,-60 -545,136 -770,-219 -851,-662 -200,500 -534,858 -1077,387 -503,-436 -306,-839 60,-1150 -533,76 -1009,-34 -874,-739 98,-507 389,-639 725,-599 -149,-305 -298,-610 -454,-898 -169,648 -815,1124 -817,1125l-75 56 -75 -56c-2,-1 -857,-632 -857,-1429 0,-630 533,-1155 758,-1349 -590,-880 -1129,-1806 -1129,-2881 0,-1178 647,-2177 1299,-3132l-71 -53c-2,-2 -857,-632 -857,-1429 0,-798 855,-1428 857,-1430l75 -56 75 56c2,2 857,632 857,1430 0,1 0,3 0,5 105,-197 207,-401 308,-607 -242,-355 -54,-680 252,-941 -533,77 -1009,-33 -873,-739 126,-653 574,-684 1026,-523 -332,-423 -475,-891 204,-1126 629,-218 880,155 966,628 183,-458 479,-797 945,-489 33,-15 68,-29 102,-42 48,-32 97,-62 148,-92 1009,-583 2244,-503 3492,-421 431,28 864,56 1292,56 428,0 861,-28 1292,-56 739,-49 1473,-96 2158,-7 604,39 1177,163 1689,459 12,7 24,15 36,22 43,-21 90,-40 142,-58 628,-218 879,155 966,628 200,-500 533,-858 1077,-388 503,436 305,840 -60,1151 532,-76 1009,34 873,739 -125,649 -568,684 -1018,527l12 24c131,171 228,348 251,513 135,272 272,538 417,789 10,18 21,37 32,55 -3,-35 -5,-71 -5,-107 0,-798 855,-1428 858,-1430l74 -56 75 56c2,2 858,632 858,1430 0,797 -856,1427 -858,1429l-75 56 -32 -24c595,885 1141,1817 1141,2899zm-15916 6140c95,28 174,90 225,172 158,-73 313,-155 459,-249 201,-130 498,-358 526,-615 19,-175 -95,-321 -220,-429 -108,-93 -258,-189 -406,-145 -356,107 -526,923 -584,1266zm276 293c7,30 10,60 10,92 0,69 -17,133 -47,190 142,99 291,193 445,272 212,109 558,253 795,148 162,-71 230,-242 262,-405 27,-140 35,-318 -78,-424 -191,-180 -643,-92 -869,-36 -176,44 -349,100 -518,163zm-117 386c-69,64 -161,105 -262,108 -15,173 -22,349 -13,522 11,239 60,610 268,763 143,104 326,78 483,24 135,-47 292,-128 328,-280 60,-255 -242,-602 -404,-770 -125,-130 -261,-252 -400,-367zm-392 91c-94,-28 -174,-91 -225,-172 -158,73 -313,155 -459,249 -200,129 -498,357 -526,614 -19,176 95,321 221,430 107,93 257,189 406,144 355,-107 525,-922 583,-1265zm-275 -294c-7,-29 -11,-60 -11,-91 0,-69 17,-133 47,-190 -142,-99 -291,-193 -445,-272 -212,-109 -558,-253 -795,-149 -161,72 -230,243 -262,406 -26,140 -35,318 78,424 191,180 643,92 869,36 176,-44 349,-100 519,-164zm116 -385c69,-64 161,-105 262,-108 16,-173 22,-349 14,-522 -12,-239 -60,-610 -269,-763 -143,-104 -326,-78 -483,-24 -134,47 -292,128 -328,280 -60,255 242,602 404,770 125,130 261,252 400,367zm12654 -91c94,28 174,90 225,172 158,-73 313,-155 459,-249 200,-130 498,-358 526,-615 19,-175 -95,-321 -221,-429 -107,-93 -257,-189 -406,-145 -355,107 -525,923 -583,1266zm275 293c7,30 11,60 11,92 0,69 -17,133 -48,190 143,99 291,193 446,272 212,109 558,253 795,148 161,-71 230,-242 261,-405 27,-140 36,-318 -77,-424 -191,-180 -644,-92 -870,-36 -175,44 -348,100 -518,163zm-116 386c-69,64 -161,105 -263,108 -15,173 -21,349 -13,522 12,239 60,610 269,763 143,104 326,78 483,24 134,-47 292,-128 328,-280 60,-255 -243,-602 -404,-770 -125,-130 -261,-252 -400,-367zm-392 91c-95,-28 -175,-91 -226,-172 -157,73 -312,155 -458,249 -201,129 -498,357 -526,614 -19,176 95,321 220,430 108,93 258,189 407,144 355,-107 525,-922 583,-1265zm-276 -294c-7,-29 -10,-60 -10,-91 0,-69 17,-133 47,-190 -142,-99 -291,-193 -445,-272 -213,-109 -558,-253 -795,-149 -162,72 -230,243 -262,406 -27,140 -35,318 78,424 191,180 643,92 869,36 175,-44 349,-100 518,-164zm117 -385c69,-64 161,-105 262,-108 15,-173 22,-349 13,-522 -12,-239 -60,-610 -268,-763 -143,-104 -326,-78 -483,-24 -135,47 -292,128 -328,280 -60,255 242,602 404,770 125,130 260,252 400,367zm389 -13018c95,29 174,91 225,173 158,-73 313,-156 459,-250 201,-129 498,-357 526,-614 19,-176 -95,-321 -220,-429 -108,-94 -258,-190 -407,-145 -355,107 -525,923 -583,1265zm276 294c7,29 10,60 10,92 0,68 -17,133 -47,189 142,100 291,194 445,273 212,109 558,253 795,148 162,-71 230,-243 262,-406 27,-139 35,-317 -78,-424 -191,-179 -643,-91 -869,-35 -176,43 -349,100 -518,163zm-117 385c-69,65 -161,106 -262,109 -15,173 -22,349 -13,522 11,238 60,610 268,763 143,104 326,78 483,23 135,-46 292,-128 328,-279 60,-255 -242,-603 -404,-770 -125,-131 -261,-253 -400,-368zm-392 92c-95,-29 -174,-91 -225,-173 -158,74 -313,156 -459,250 -200,129 -498,357 -526,614 -19,176 95,321 221,430 107,93 257,189 406,144 355,-107 525,-922 583,-1265zm-275 -294c-7,-29 -11,-60 -11,-91 0,-69 17,-133 47,-190 -142,-100 -291,-193 -445,-272 -212,-109 -558,-253 -795,-149 -161,72 -230,243 -262,406 -27,140 -35,317 78,424 191,180 643,91 869,35 176,-43 349,-99 519,-163zm116 -385c69,-65 161,-105 262,-109 16,-173 22,-348 14,-522 -12,-238 -61,-610 -269,-762 -143,-105 -326,-78 -483,-24 -134,46 -292,128 -328,279 -60,256 242,603 404,771 125,130 261,252 400,367zm-11664 90c164,-75 327,-161 478,-259 201,-129 499,-357 527,-614 19,-176 -95,-321 -221,-429 -108,-94 -257,-190 -406,-145 -363,109 -533,955 -587,1285l-10 62 -124 -16 6 -62c16,-180 24,-363 15,-543 -12,-238 -60,-610 -269,-762 -142,-105 -325,-78 -482,-24 -135,46 -293,128 -328,279 -61,256 242,603 403,771 130,135 271,261 416,380l48 39 -76 100 -51 -36c-147,-104 -301,-202 -462,-284 -212,-109 -558,-253 -794,-149 -162,72 -231,243 -262,406 -27,140 -35,317 78,424 191,180 643,91 869,35 182,-45 362,-104 538,-170l58 -22 48 115 -56 26c-164,76 -327,161 -479,259 -200,129 -498,357 -526,614 -19,176 95,321 221,430 108,93 257,189 406,144 363,-109 532,-955 587,-1285l10 -62 124 16 -6 62c-17,180 -24,363 -15,543 12,238 60,610 269,763 142,104 325,78 482,23 135,-46 293,-128 328,-279 61,-255 -242,-603 -403,-770 -131,-136 -272,-262 -417,-381l-49 -40 76 -99 51 36c148,104 303,202 463,285 213,109 559,253 795,148 162,-71 231,-243 262,-406 27,-139 35,-317 -78,-424 -191,-179 -643,-91 -869,-35 -182,45 -362,104 -538,171l-59 22 -48 -116 57 -26zm13064 12038c-598,1225 267,-547 0,0zm677 1285c256,-1332 -309,1603 0,0zm-1067 1461c1324,-458 -1506,522 0,0zm2703 -8179c0,531 -130,1026 -333,1496 -66,247 -226,714 -559,1031 -164,260 -338,514 -511,766 -238,348 -473,691 -671,1033 -85,147 -168,301 -249,458 31,21 63,45 95,72 110,-217 222,-431 342,-637 201,-349 438,-695 679,-1046 668,-976 1365,-1992 1365,-3173 0,-1181 -697,-2197 -1365,-3173 -240,-351 -477,-697 -679,-1046 -110,-190 -214,-386 -316,-586 -20,35 -47,68 -80,100 68,130 137,256 208,379 198,342 433,685 671,1033 197,287 397,578 581,877 480,446 610,1209 611,1211l7 40c127,371 204,757 204,1165zm-6764 8761c-492,13 -1000,-20 -1511,-54 -431,-28 -864,-56 -1292,-56 -428,0 -861,28 -1292,56 -1248,82 -2483,162 -3492,-421 -54,-31 -106,-64 -158,-98 -60,69 -148,132 -269,185 948,531 2138,453 3339,375 438,-29 877,-57 1306,-57 428,0 868,28 1306,57 707,46 1411,92 2063,13zm-10029 -3026c27,8 53,17 80,26 -270,-344 -415,-717 -95,-971 -82,-159 -166,-315 -252,-464 -198,-342 -433,-685 -671,-1033 -142,-207 -285,-415 -423,-627 -610,-409 -768,-1335 -768,-1338l-17 -91 30 -15c-140,-387 -224,-793 -224,-1222 0,-1246 715,-2290 1402,-3293 238,-348 473,-691 671,-1033 69,-119 136,-242 202,-368 -23,-18 -47,-37 -71,-58 -24,-21 -46,-41 -66,-61 -143,290 -289,576 -447,848 -202,349 -439,695 -679,1046 -669,976 -1365,1992 -1365,3173 0,1019 519,1916 1091,2770l34 -25 75 55c2,2 857,632 857,1430 0,4 0,7 0,11 205,356 389,734 575,1114 20,42 41,84 61,126zm15184 -2582c78,-113 155,-226 232,-340 -55,17 -111,29 -168,38 -147,229 -301,453 -453,676 -239,349 -474,692 -673,1035 -18,32 -37,65 -55,97 56,-7 115,-2 179,15 83,-160 168,-319 258,-473 202,-350 440,-697 680,-1048zm-161 -283c-30,1 -60,0 -90,-1 -41,61 -83,122 -125,183 -222,325 -441,645 -626,963 -153,265 -296,549 -438,838 11,-13 23,-26 35,-38 62,-116 124,-231 189,-343 202,-349 439,-694 679,-1045 126,-184 253,-369 376,-557zm-293 -19c-434,-59 -783,-236 -785,-236l-83 -42 16 -92c0,-3 179,-1050 891,-1409 320,-161 688,-153 996,-94 104,-314 166,-639 166,-978 0,-292 -46,-574 -125,-846 -299,51 -648,51 -954,-103 -712,-359 -891,-1406 -891,-1409l-16 -91 83 -42c2,-1 334,-169 753,-232 -44,-66 -89,-131 -133,-196 -241,-351 -478,-697 -680,-1046 -93,-162 -183,-328 -270,-497 -294,-65 -435,-347 -496,-678 -200,500 -533,858 -1076,388 -503,-436 -306,-840 60,-1151 -533,77 -1010,-33 -874,-739 94,-485 365,-627 683,-602 -129,-110 -267,-210 -416,-296 -885,-512 -2005,-439 -3137,-366 -408,27 -817,54 -1216,54 -399,0 -808,-27 -1216,-54 -1132,-73 -2252,-146 -3137,366 -94,54 -183,114 -269,178 -49,168 -178,324 -340,462 533,-76 1009,34 873,739 -126,654 -574,685 -1027,523 333,423 476,891 -203,1126 -562,195 -822,-82 -933,-480l-3 7c-176,361 -351,721 -547,1059 -188,325 -409,647 -633,974 -49,72 -98,143 -147,215 469,47 861,245 863,246l84 42 -17 91c0,3 -178,1050 -891,1409 -333,168 -717,152 -1033,88 -81,277 -129,563 -129,861 0,334 60,655 161,964 291,-45 625,-39 918,108 713,359 891,1406 891,1409l17 92 -84 42c-1,0 -311,157 -709,225 25,37 51,75 76,112 224,327 445,649 633,974 124,215 240,438 354,666 278,74 413,350 472,671 200,-500 533,-858 1077,-387 503,436 305,839 -60,1150 532,-76 1009,34 873,739 -78,406 -280,572 -531,601 84,62 172,121 264,174 885,512 2005,439 3137,365 408,-26 817,-53 1216,-53 399,0 808,27 1216,53 1132,74 2252,147 3137,-365 130,-75 252,-161 366,-255 64,-92 148,-180 243,-261 -532,76 -1009,-34 -873,-739 126,-654 574,-685 1027,-524 -333,-423 -476,-891 203,-1126 525,-182 787,49 909,405l27 -55c176,-362 352,-721 547,-1059 188,-325 409,-647 633,-974 23,-34 46,-67 69,-101zm1361 -1790c97,31 179,63 238,88 133,-368 214,-749 214,-1149 0,-350 -62,-686 -167,-1010 -93,37 -226,85 -383,124 123,363 198,741 198,1140 0,278 -37,547 -100,807zm-1074 -3807c159,-5 323,9 482,56 -104,-155 -210,-309 -315,-463 -240,-351 -478,-698 -680,-1048 -70,-119 -136,-241 -202,-365 -40,19 -85,37 -133,54 -82,29 -157,47 -226,56 78,151 157,298 239,440 185,319 404,639 626,964 70,101 140,204 209,306zm-2834 -4648c-108,-190 -158,-380 -92,-545 -67,-46 -135,-90 -206,-131 -943,-546 -2141,-467 -3351,-389 -439,29 -880,58 -1308,58 -428,0 -869,-29 -1308,-58 -595,-38 -1187,-77 -1747,-41 -57,7 -115,16 -171,26 446,-4 905,26 1365,56 433,28 867,56 1295,56 428,0 862,-28 1294,-56 1243,-81 2473,-161 3472,417 286,166 535,372 757,607zm-9657 -432c52,80 82,158 94,234 53,-36 108,-70 164,-102 932,-540 2079,-465 3237,-389 403,26 807,52 1205,52 399,0 803,-26 1205,-52 998,-65 1988,-130 2839,199 -942,-510 -2118,-434 -3305,-356 -438,28 -877,57 -1305,57 -428,0 -868,-29 -1306,-57 -740,-49 -1475,-97 -2152,-2 -96,41 -190,88 -281,141 -140,82 -272,174 -395,275zm-1933 3205c-36,26 -75,48 -116,63 -61,115 -123,228 -187,339 -202,349 -439,695 -680,1046 -98,143 -196,287 -293,432 40,-3 79,-5 119,-6 69,-102 139,-204 208,-305 222,-325 441,-645 626,-964 112,-193 219,-397 323,-605zm-328 83c-37,-6 -75,-16 -114,-31 -65,124 -133,247 -202,368 -203,350 -441,697 -681,1048 -114,166 -228,333 -340,501 49,-19 99,-36 149,-49 126,-193 257,-383 386,-572 239,-349 474,-692 673,-1035 43,-75 86,-152 129,-230zm-1789 3635c-31,-9 -61,-17 -90,-26 -89,299 -140,608 -140,929 0,354 63,693 168,1021 30,-8 60,-16 91,-23 -102,-318 -162,-650 -162,-998 0,-314 49,-614 133,-903zm-259 -85c-54,-20 -98,-39 -131,-53 -111,334 -177,680 -177,1041 0,389 77,761 204,1119 38,-14 82,-30 130,-46 -110,-343 -176,-699 -176,-1073 0,-343 55,-672 150,-988zm1299 3853c-37,2 -74,4 -112,5 69,101 138,202 206,303 241,351 478,697 680,1046 69,119 135,240 200,363 27,-4 54,-7 79,-9 -97,-191 -196,-379 -299,-558 -185,-318 -404,-638 -626,-963 -43,-62 -86,-125 -128,-187zm-334 -5c-43,-5 -86,-12 -128,-21 71,105 142,209 214,314 241,351 478,697 681,1048 87,152 171,307 253,465 26,-10 53,-21 82,-31 9,-3 18,-6 28,-9 -58,-108 -116,-215 -176,-318 -198,-343 -434,-686 -673,-1035 -93,-137 -188,-275 -281,-413zm3118 4483c-62,-13 -124,-32 -187,-54 96,122 176,248 226,371 176,168 368,317 582,441 382,220 803,340 1250,399 560,36 1152,-3 1747,-42 439,-28 880,-57 1308,-57 428,0 869,29 1308,57 1048,69 2087,136 2960,-201 148,-100 287,-212 416,-334 -67,-113 -91,-223 -83,-328 -51,34 -104,68 -158,99 -933,539 -2080,465 -3238,389 -402,-26 -806,-52 -1205,-52 -398,0 -803,26 -1205,52 -1158,76 -2305,150 -3237,-389 -176,-101 -336,-219 -484,-351zm9989 -12284c1038,900 -1240,-1073 0,0zm337 9812c-1347,466 1473,-510 0,0zm-11569 -11701c223,0 403,180 403,403 0,222 -180,402 -403,402 -222,0 -402,-180 -402,-402 0,-223 180,-403 402,-403zm14963 3681c23,-19 45,-39 67,-58 95,-85 185,-177 267,-275 205,-244 380,-552 380,-878 0,-327 -175,-635 -380,-879 -82,-98 -172,-190 -267,-275 -22,-19 -44,-38 -67,-57 -23,19 -45,38 -66,57 -96,85 -186,177 -268,275 -204,244 -380,552 -380,879 0,326 176,634 380,878 82,98 172,190 268,275 21,19 43,39 66,58zm-17921 4509c7,29 14,58 22,85 33,124 74,246 125,363 126,293 322,588 614,735 292,147 646,128 956,56 124,-30 247,-69 366,-116 26,-11 54,-22 81,-34 -7,-28 -14,-57 -22,-85 -33,-123 -74,-245 -125,-362 -126,-293 -322,-588 -614,-735 -292,-147 -646,-129 -956,-56 -124,29 -247,69 -365,116 -27,10 -55,21 -82,33zm2247 -3686c-27,-12 -55,-23 -82,-33 -118,-48 -241,-87 -365,-116 -310,-73 -664,-91 -956,56 -292,147 -488,442 -614,734 -51,118 -92,240 -125,363 -8,28 -15,57 -22,85 27,12 55,23 81,34 119,47 242,86 366,115 310,73 664,92 956,-55 292,-147 488,-443 614,-735 51,-117 92,-239 125,-363 8,-28 15,-56 22,-85zm-1914 -3245c-23,19 -45,38 -66,57 -96,85 -186,177 -268,275 -205,244 -380,552 -380,879 0,326 175,634 380,878 82,98 172,190 268,275 21,19 43,39 66,58 23,-19 45,-39 66,-58 96,-85 186,-177 268,-275 205,-244 380,-552 380,-878 0,-327 -175,-635 -380,-879 -82,-98 -172,-190 -268,-275 -21,-19 -43,-38 -66,-57zm0 8844c-23,19 -45,38 -66,57 -96,85 -186,177 -268,275 -205,244 -380,552 -380,879 0,327 175,635 380,879 82,98 172,190 268,275 21,19 43,38 66,57 23,-19 45,-38 66,-57 96,-85 186,-177 268,-275 205,-244 380,-552 380,-879 0,-327 -175,-635 -380,-879 -82,-98 -172,-190 -268,-275 -21,-19 -43,-38 -66,-57zm17588 2422c23,-19 45,-38 67,-57 95,-85 185,-177 267,-275 205,-244 380,-552 380,-879 0,-327 -175,-635 -380,-879 -82,-98 -172,-190 -267,-275 -22,-19 -44,-38 -67,-57 -22,19 -45,38 -66,57 -96,85 -186,177 -268,275 -204,244 -380,552 -380,879 0,327 176,635 380,879 82,98 172,190 268,275 21,19 44,38 66,57zm-1913 -3246c27,12 54,23 81,34 118,47 241,86 366,116 309,72 664,91 955,-56 292,-147 488,-442 614,-735 51,-117 93,-239 126,-363 7,-27 14,-56 21,-85 -27,-12 -55,-23 -81,-33 -119,-47 -242,-87 -366,-116 -310,-73 -664,-91 -956,56 -292,147 -488,442 -614,735 -50,117 -92,239 -125,362 -7,28 -15,57 -21,85zm2246 -3686c-7,-28 -14,-57 -22,-85 -32,-123 -74,-245 -125,-363 -126,-292 -322,-587 -614,-734 -292,-147 -646,-129 -955,-56 -125,29 -248,68 -366,116 -27,10 -54,21 -81,33 6,29 14,57 21,85 33,124 75,246 125,363 126,292 322,588 614,735 292,147 646,128 956,55 124,-29 247,-68 366,-115 26,-11 54,-22 81,-34z"/>
   <path class="fil0" d="M8559 8126c482,-351 891,-833 1110,-1447 292,-803 161,-1388 -175,-1753 -161,-175 -380,-292 -629,-365 -233,-58 -496,-58 -759,-15 -672,117 -1359,614 -1578,1432 -234,921 88,1695 599,2411 -102,29 -219,44 -336,58 -380,59 -760,29 -1110,-58 -351,-103 -658,-263 -892,-497 -584,-599 -643,-1403 -204,-2089 73,-102 160,-234 219,-380 88,-219 15,-482 -205,-570 -73,-14 -131,-29 -190,-14 -131,29 -263,131 -321,321 -424,1403 -161,2396 424,2995 292,292 657,482 1066,599 395,117 818,131 1257,73 190,-29 380,-58 555,-117 248,307 526,599 803,877 672,716 1315,1388 1403,2089l0 58c73,599 -59,1140 -351,1549 -234,351 -584,599 -1037,730 -336,88 -716,103 -1067,15 -379,-102 -701,-336 -935,-628 -233,-292 -379,-658 -423,-1038 -29,-248 -15,-496 44,-730 175,-628 555,-993 978,-1125 176,-44 351,-58 512,-29 146,29 277,88 394,161 176,146 234,336 234,540 0,205 -58,453 -132,658 -73,204 -29,379 59,482 58,58 117,102 190,117 58,14 131,14 204,-30 117,-44 234,-175 263,-394 103,-760 -131,-1300 -526,-1622 -175,-146 -394,-248 -613,-277 -234,-44 -468,-30 -701,29 -526,161 -1023,613 -1228,1388 -73,292 -87,584 -58,876 44,453 219,877 511,1228 278,365 658,628 1125,759 409,102 833,73 1227,15 629,-117 1330,-380 1856,-877 467,-438 789,-1037 818,-1841 29,-1081 -833,-1957 -1709,-2848 -220,-234 -453,-468 -672,-716zm-278 -3214c175,-30 336,-15 482,29 175,44 336,131 453,248 248,263 336,701 88,1359 -190,540 -555,979 -994,1300 -467,-584 -789,-1183 -730,-1855 29,-219 117,-526 292,-775 102,-160 234,-277 409,-306z"/>
   <path class="fil0" d="M15771 8466c26,902 78,2013 156,3071 105,1438 236,2797 419,3490 78,248 326,352 575,352 78,13 170,0 235,-13 91,-26 157,-52 222,-104 235,-157 183,-262 118,-458 -549,-1777 -615,-7030 -628,-8089 0,-196 -26,-301 -287,-353 -92,-13 -222,-13 -327,-13 -274,0 -496,-65 -496,183 -14,588 -393,2222 -772,3947 -235,1006 -470,2051 -640,2940 -183,-889 -300,-2091 -366,-3254 -91,-1503 -117,-2901 -130,-3437 0,-196 -14,-314 -288,-366 -91,-13 -209,-13 -327,-13 -248,0 -470,-65 -496,157 -13,104 -39,287 -53,523 -209,1934 -823,7945 -2260,7906 -92,0 -183,-26 -249,-78 -104,-53 -183,-157 -222,-288 -26,-39 -39,-91 -52,-144l13 0c-13,-170 13,-313 78,-444 79,-170 196,-314 314,-418 144,-118 183,-275 157,-392 0,-66 -39,-131 -92,-170 -52,-52 -130,-78 -209,-65 -117,13 -248,104 -379,313 -157,249 -235,549 -248,850 0,209 26,418 91,601 79,183 196,353 366,444 118,79 262,118 419,131 1346,39 2038,-3633 2378,-6247 39,614 78,1294 131,1960 104,1320 248,2588 431,3281 65,261 327,365 575,365 78,0 157,0 235,-26 79,-13 157,-52 222,-91 118,-79 209,-209 157,-340 183,-1019 484,-2352 771,-3633 170,-732 327,-1437 458,-2078z"/>
  </g>
 </g>
</svg>
